;TYPE=PLATED
;Layer: PTH_Through
;EasyEDA Pro v3.2.149, 2026-09-20 15:54:07
;Gerber Generator version 0.3
M48
METRIC,LZ,0000.00000
;Hole size 1 = 0.30480 METRIC
T01C0.30480
;Hole size 2 = 0.30500 METRIC
T02C0.30500
;Hole size 3 = 0.60000 METRIC
T03C0.60000
%
G05
G90
T01
X48.76044Y46.20631
X48.76044Y47.20631
X46.7607Y46.20656
X46.7607Y47.20631
X48.76044Y45.20631
X46.76045Y45.20631
X47.76045Y46.20631
X47.76095Y45.20682
X47.76045Y47.20631
T02
X74.29185Y44.16441
X73.78385Y41.87842
X58.80098Y41.10802
X52.70499Y23.58206
X49.5603Y50.7984
X50.3223Y40.63842
X50.8303Y31.24044
X46.36041Y50.6299
X49.1544Y41.23192
X47.5224Y50.5444
X48.5384Y39.62242
X48.2524Y50.7984
X40.12442Y49.5284
X41.79452Y48.2584
X40.52452Y47.2424
X44.90651Y41.14642
X45.59301Y39.18992
X45.89051Y43.60341
X46.60901Y40.34492
X45.19831Y48.7664
X47.7383Y32.00244
X43.78231Y40.89242
X46.57631Y32.00244
X45.33901Y36.65913
X33.65503Y52.6611
X66.67087Y39.50692
X68.61336Y44.58691
X65.16287Y40.77692
X67.95686Y43.57091
X68.44486Y36.81443
X68.44486Y35.03643
X63.27427Y47.6005
X68.60826Y45.91821
X73.27585Y46.68021
X67.68787Y47.18821
X62.25828Y48.2924
X71.14826Y48.0384
X73.89645Y42.75021
X65.03897Y45.42602
X65.54697Y47.45801
X55.38699Y35.77403
X62.21498Y41.49082
X69.61046Y42.98531
X74.02435Y45.68021
X62.21498Y43.63901
X58.93718Y52.75879
X50.8092Y50.2188
X67.54196Y40.95202
X66.47587Y36.83794
X51.7515Y33.40593
X51.7515Y31.24254
T03
X22.85307Y52.74398G85X22.85307Y51.84398
X31.50304Y52.74403G85X31.50304Y51.84403
X22.85304Y48.34411G85X22.85304Y47.84411
X31.50288Y48.34414G85X31.50288Y47.84414
M30