G04 Layer: TopPasteMaskLayer*
G04 EasyEDA Pro v3.2.149, 2026-09-20 15:54:07*
G04 Gerber Generator version 0.3*
G04 Scale: 100 percent, Rotated: No, Reflected: No*
G04 Dimensions in millimeters*
G04 Leading zeros omitted, absolute positions, 4 integers and 5 decimals*
G04 Generated by one-click*
G04 Object Configs: Pad,Via,Track,Text,Image,Dimension,BoardOutline,BoardCutout,CopperFilled,SolidRegion,FPCStiffener,Line,PlaneZone,ComponentProperty,ComponentSilkscreen,TearDrop*
G04 Layer Configs: 1,2,3,4,5,6,7,8,9,10,11,13,14,56*
G04 Copper Areas: 0*
%FSLAX45Y45*%
%MOMM*%
%ADD10R,0.8X0.9*%
%ADD11R,0.9X0.8*%
%ADD12R,0.3X0.4*%
%ADD13R,0.25001X0.4*%
%ADD14R,0.54X0.54*%
%ADD15R,0.3514X0.78001*%
%ADD16R,0.35001X0.78001*%
%ADD17R,1.0X0.6*%
%ADD18O,0.63X2.25001*%
%ADD19R,1.4X1.2*%
G75*


G04 PolygonModel Start*
G36*
G01X7569439Y4065598D02*
G01X7569439Y4037947D01*
G01X7542019Y4008572D01*
G01X7491692Y4008572D01*
G01X7485291Y4014973D01*
G01X7485291Y4088572D01*
G01X7491692Y4094973D01*
G01X7542019Y4094973D01*
G01X7569439Y4065598D01*
G37*
G36*
G01X7621003Y4066723D02*
G01X7648423Y4096098D01*
G01X7698750Y4096098D01*
G01X7705151Y4089697D01*
G01X7705151Y4016098D01*
G01X7698750Y4009697D01*
G01X7648423Y4009697D01*
G01X7621003Y4039072D01*
G01X7621003Y4066723D01*
G37*
G36*
G01X5575539Y1970098D02*
G01X5575539Y1942447D01*
G01X5548119Y1913072D01*
G01X5497792Y1913072D01*
G01X5491391Y1919473D01*
G01X5491391Y1993072D01*
G01X5497792Y1999473D01*
G01X5548119Y1999473D01*
G01X5575539Y1970098D01*
G37*
G36*
G01X5627103Y1971223D02*
G01X5654523Y2000598D01*
G01X5704850Y2000598D01*
G01X5711251Y1994197D01*
G01X5711251Y1920598D01*
G01X5704850Y1914197D01*
G01X5654523Y1914197D01*
G01X5627103Y1943572D01*
G01X5627103Y1971223D01*
G37*
G36*
G01X6672049Y4469841D02*
G01X6672049Y4442191D01*
G01X6644630Y4412816D01*
G01X6594302Y4412816D01*
G01X6587901Y4419217D01*
G01X6587901Y4492816D01*
G01X6594302Y4499217D01*
G01X6644630Y4499217D01*
G01X6672049Y4469841D01*
G37*
G36*
G01X6723614Y4470967D02*
G01X6751033Y4500342D01*
G01X6801361Y4500342D01*
G01X6807761Y4493941D01*
G01X6807761Y4420342D01*
G01X6801361Y4413941D01*
G01X6751033Y4413941D01*
G01X6723614Y4443316D01*
G01X6723614Y4470967D01*
G37*
G36*
G01X6609801Y4920102D02*
G01X6614803Y4925101D01*
G01X6694802Y4925101D01*
G01X6699801Y4920102D01*
G01X6699801Y4840102D01*
G01X6694802Y4835101D01*
G01X6670599Y4835101D01*
G01X6670599Y4872101D01*
G01X6637599Y4872101D01*
G01X6637599Y4835101D01*
G01X6614803Y4835101D01*
G01X6609801Y4840102D01*
G01X6609801Y4920102D01*
G37*
G36*
G01X6699799Y4681098D02*
G01X6694797Y4676099D01*
G01X6614798Y4676099D01*
G01X6609799Y4681098D01*
G01X6609799Y4761098D01*
G01X6614798Y4766099D01*
G01X6639001Y4766099D01*
G01X6639001Y4729099D01*
G01X6672001Y4729099D01*
G01X6672001Y4766099D01*
G01X6694797Y4766099D01*
G01X6699799Y4761098D01*
G01X6699799Y4681098D01*
G37*
G36*
G01X4374002Y2521499D02*
G01X4379001Y2516497D01*
G01X4379001Y2436498D01*
G01X4374002Y2431499D01*
G01X4294002Y2431499D01*
G01X4289001Y2436498D01*
G01X4289001Y2460701D01*
G01X4326001Y2460701D01*
G01X4326001Y2493701D01*
G01X4289001Y2493701D01*
G01X4289001Y2516497D01*
G01X4294002Y2521499D01*
G01X4374002Y2521499D01*
G37*
G36*
G01X4134998Y2431501D02*
G01X4129999Y2436503D01*
G01X4129999Y2516502D01*
G01X4134998Y2521501D01*
G01X4214998Y2521501D01*
G01X4219999Y2516502D01*
G01X4219999Y2492299D01*
G01X4182999Y2492299D01*
G01X4182999Y2459299D01*
G01X4219999Y2459299D01*
G01X4219999Y2436503D01*
G01X4214998Y2431501D01*
G01X4134998Y2431501D01*
G37*
G36*
G01X5428102Y4083599D02*
G01X5433101Y4078597D01*
G01X5433101Y3998598D01*
G01X5428102Y3993599D01*
G01X5348102Y3993599D01*
G01X5343101Y3998598D01*
G01X5343101Y4022801D01*
G01X5380101Y4022801D01*
G01X5380101Y4055801D01*
G01X5343101Y4055801D01*
G01X5343101Y4078597D01*
G01X5348102Y4083599D01*
G01X5428102Y4083599D01*
G37*
G36*
G01X5189098Y3993601D02*
G01X5184099Y3998603D01*
G01X5184099Y4078602D01*
G01X5189098Y4083601D01*
G01X5269098Y4083601D01*
G01X5274099Y4078602D01*
G01X5274099Y4054399D01*
G01X5237099Y4054399D01*
G01X5237099Y4021399D01*
G01X5274099Y4021399D01*
G01X5274099Y3998603D01*
G01X5269098Y3993601D01*
G01X5189098Y3993601D01*
G37*
G36*
G01X3944697Y4986761D02*
G01X3949696Y4981759D01*
G01X3949696Y4901760D01*
G01X3944697Y4896761D01*
G01X3864698Y4896761D01*
G01X3859696Y4901760D01*
G01X3859696Y4925963D01*
G01X3896697Y4925963D01*
G01X3896697Y4958963D01*
G01X3859696Y4958963D01*
G01X3859696Y4981759D01*
G01X3864698Y4986761D01*
G01X3944697Y4986761D01*
G37*
G36*
G01X3705694Y4896763D02*
G01X3700695Y4901765D01*
G01X3700695Y4981764D01*
G01X3705694Y4986763D01*
G01X3785693Y4986763D01*
G01X3790695Y4981764D01*
G01X3790695Y4957561D01*
G01X3753695Y4957561D01*
G01X3753695Y4924561D01*
G01X3790695Y4924561D01*
G01X3790695Y4901765D01*
G01X3785693Y4896763D01*
G01X3705694Y4896763D01*
G37*
G36*
G01X3944697Y4765826D02*
G01X3949696Y4760825D01*
G01X3949696Y4680825D01*
G01X3944697Y4675827D01*
G01X3864698Y4675827D01*
G01X3859696Y4680825D01*
G01X3859696Y4705029D01*
G01X3896697Y4705029D01*
G01X3896697Y4738029D01*
G01X3859696Y4738029D01*
G01X3859696Y4760825D01*
G01X3864698Y4765826D01*
G01X3944697Y4765826D01*
G37*
G36*
G01X3705694Y4675829D02*
G01X3700695Y4680830D01*
G01X3700695Y4760830D01*
G01X3705694Y4765829D01*
G01X3785693Y4765829D01*
G01X3790695Y4760830D01*
G01X3790695Y4736627D01*
G01X3753695Y4736627D01*
G01X3753695Y4703627D01*
G01X3790695Y4703627D01*
G01X3790695Y4680830D01*
G01X3785693Y4675829D01*
G01X3705694Y4675829D01*
G37*
G36*
G01X2646802Y4210599D02*
G01X2651801Y4205597D01*
G01X2651801Y4125598D01*
G01X2646802Y4120599D01*
G01X2566802Y4120599D01*
G01X2561801Y4125598D01*
G01X2561801Y4149801D01*
G01X2598801Y4149801D01*
G01X2598801Y4182801D01*
G01X2561801Y4182801D01*
G01X2561801Y4205597D01*
G01X2566802Y4210599D01*
G01X2646802Y4210599D01*
G37*
G36*
G01X2407798Y4120601D02*
G01X2402799Y4125603D01*
G01X2402799Y4205602D01*
G01X2407798Y4210601D01*
G01X2487798Y4210601D01*
G01X2492799Y4205602D01*
G01X2492799Y4181399D01*
G01X2455799Y4181399D01*
G01X2455799Y4148399D01*
G01X2492799Y4148399D01*
G01X2492799Y4125603D01*
G01X2487798Y4120601D01*
G01X2407798Y4120601D01*
G37*
G36*
G01X2608702Y3981999D02*
G01X2613701Y3976997D01*
G01X2613701Y3896998D01*
G01X2608702Y3891999D01*
G01X2528702Y3891999D01*
G01X2523701Y3896998D01*
G01X2523701Y3921201D01*
G01X2560701Y3921201D01*
G01X2560701Y3954201D01*
G01X2523701Y3954201D01*
G01X2523701Y3976997D01*
G01X2528702Y3981999D01*
G01X2608702Y3981999D01*
G37*
G36*
G01X2369698Y3892001D02*
G01X2364699Y3897003D01*
G01X2364699Y3977002D01*
G01X2369698Y3982001D01*
G01X2449698Y3982001D01*
G01X2454699Y3977002D01*
G01X2454699Y3952799D01*
G01X2417699Y3952799D01*
G01X2417699Y3919799D01*
G01X2454699Y3919799D01*
G01X2454699Y3897003D01*
G01X2449698Y3892001D01*
G01X2369698Y3892001D01*
G37*
G36*
G01X4526050Y4928146D02*
G01X4506050Y4928146D01*
G01X4506050Y4994649D01*
G01X4526050Y4994649D01*
G01X4526050Y4928146D01*
G37*
G36*
G01X4806034Y4928146D02*
G01X4786034Y4928146D01*
G01X4786034Y4994649D01*
G01X4806034Y4994649D01*
G01X4806034Y4928146D01*
G37*
G36*
G01X4746029Y4994649D02*
G01X4766029Y4994649D01*
G01X4766029Y4928146D01*
G01X4746029Y4928146D01*
G01X4746029Y4994649D01*
G37*
G36*
G01X5026039Y4994649D02*
G01X5046039Y4994649D01*
G01X5046039Y4928146D01*
G01X5026039Y4928146D01*
G01X5026039Y4994649D01*
G37*
G36*
G01X4566030Y4928146D02*
G01X4546030Y4928146D01*
G01X4546030Y4994649D01*
G01X4566030Y4994649D01*
G01X4566030Y4928146D01*
G37*
G36*
G01X4846039Y4928146D02*
G01X4826039Y4928146D01*
G01X4826039Y4994649D01*
G01X4846039Y4994649D01*
G01X4846039Y4928146D01*
G37*
G36*
G01X4606035Y4928146D02*
G01X4586035Y4928146D01*
G01X4586035Y4994649D01*
G01X4606035Y4994649D01*
G01X4606035Y4928146D01*
G37*
G36*
G01X4886044Y4928146D02*
G01X4866044Y4928146D01*
G01X4866044Y4994649D01*
G01X4886044Y4994649D01*
G01X4886044Y4928146D01*
G37*
G36*
G01X4646040Y4928146D02*
G01X4626040Y4928146D01*
G01X4626040Y4994649D01*
G01X4646040Y4994649D01*
G01X4646040Y4928146D01*
G37*
G36*
G01X4926049Y4928146D02*
G01X4906049Y4928146D01*
G01X4906049Y4994649D01*
G01X4926049Y4994649D01*
G01X4926049Y4928146D01*
G37*
G36*
G01X4706050Y4994649D02*
G01X4726050Y4994649D01*
G01X4726050Y4928146D01*
G01X4706050Y4928146D01*
G01X4706050Y4994649D01*
G37*
G36*
G01X4986034Y4994649D02*
G01X5006034Y4994649D01*
G01X5006034Y4928146D01*
G01X4986034Y4928146D01*
G01X4986034Y4994649D01*
G37*
G36*
G01X4686045Y4928146D02*
G01X4666045Y4928146D01*
G01X4666045Y4994649D01*
G01X4686045Y4994649D01*
G01X4686045Y4928146D01*
G37*
G36*
G01X4966029Y4928146D02*
G01X4946029Y4928146D01*
G01X4946029Y4994649D01*
G01X4966029Y4994649D01*
G01X4966029Y4928146D01*
G37*
G36*
G01X4402030Y4890651D02*
G01X4468529Y4890651D01*
G01X4468529Y4870651D01*
G01X4402030Y4870651D01*
G01X4402030Y4890651D01*
G37*
G36*
G01X5150037Y4870651D02*
G01X5083537Y4870651D01*
G01X5083537Y4890651D01*
G01X5150037Y4890651D01*
G01X5150037Y4870651D01*
G37*
G36*
G01X4402030Y4850646D02*
G01X4468529Y4850646D01*
G01X4468529Y4830646D01*
G01X4402030Y4830646D01*
G01X4402030Y4850646D01*
G37*
G36*
G01X5150037Y4830646D02*
G01X5083537Y4830646D01*
G01X5083537Y4850646D01*
G01X5150037Y4850646D01*
G01X5150037Y4830646D01*
G37*
G36*
G01X4402030Y4810641D02*
G01X4468529Y4810641D01*
G01X4468529Y4790641D01*
G01X4402030Y4790641D01*
G01X4402030Y4810641D01*
G37*
G36*
G01X5150037Y4790641D02*
G01X5083537Y4790641D01*
G01X5083537Y4810641D01*
G01X5150037Y4810641D01*
G01X5150037Y4790641D01*
G37*
G36*
G01X5150037Y4750661D02*
G01X5083537Y4750661D01*
G01X5083537Y4770661D01*
G01X5150037Y4770661D01*
G01X5150037Y4750661D01*
G37*
G36*
G01X4468529Y4750661D02*
G01X4402030Y4750661D01*
G01X4402030Y4770661D01*
G01X4468529Y4770661D01*
G01X4468529Y4750661D01*
G37*
G36*
G01X4402030Y4730656D02*
G01X4468529Y4730656D01*
G01X4468529Y4710656D01*
G01X4402030Y4710656D01*
G01X4402030Y4730656D01*
G37*
G36*
G01X5150037Y4710656D02*
G01X5083537Y4710656D01*
G01X5083537Y4730656D01*
G01X5150037Y4730656D01*
G01X5150037Y4710656D01*
G37*
G36*
G01X4402030Y4690651D02*
G01X4468529Y4690651D01*
G01X4468529Y4670651D01*
G01X4402030Y4670651D01*
G01X4402030Y4690651D01*
G37*
G36*
G01X5150037Y4670651D02*
G01X5083537Y4670651D01*
G01X5083537Y4690651D01*
G01X5150037Y4690651D01*
G01X5150037Y4670651D01*
G37*
G36*
G01X4402030Y4650646D02*
G01X4468529Y4650646D01*
G01X4468529Y4630646D01*
G01X4402030Y4630646D01*
G01X4402030Y4650646D01*
G37*
G36*
G01X5150037Y4630646D02*
G01X5083537Y4630646D01*
G01X5083537Y4650646D01*
G01X5150037Y4650646D01*
G01X5150037Y4630646D01*
G37*
G36*
G01X4402030Y4610641D02*
G01X4468529Y4610641D01*
G01X4468529Y4590641D01*
G01X4402030Y4590641D01*
G01X4402030Y4610641D01*
G37*
G36*
G01X5150037Y4590641D02*
G01X5083537Y4590641D01*
G01X5083537Y4610641D01*
G01X5150037Y4610641D01*
G01X5150037Y4590641D01*
G37*
G36*
G01X4402030Y4570662D02*
G01X4468529Y4570662D01*
G01X4468529Y4550662D01*
G01X4402030Y4550662D01*
G01X4402030Y4570662D01*
G37*
G36*
G01X5150037Y4550662D02*
G01X5083537Y4550662D01*
G01X5083537Y4570662D01*
G01X5150037Y4570662D01*
G01X5150037Y4550662D01*
G37*
G36*
G01X4402030Y4530657D02*
G01X4468529Y4530657D01*
G01X4468529Y4510657D01*
G01X4402030Y4510657D01*
G01X4402030Y4530657D01*
G37*
G36*
G01X5150037Y4510657D02*
G01X5083537Y4510657D01*
G01X5083537Y4530657D01*
G01X5150037Y4530657D01*
G01X5150037Y4510657D01*
G37*
G36*
G01X5150037Y4470652D02*
G01X5083537Y4470652D01*
G01X5083537Y4490652D01*
G01X5150037Y4490652D01*
G01X5150037Y4470652D01*
G37*
G36*
G01X4468529Y4470652D02*
G01X4402030Y4470652D01*
G01X4402030Y4490652D01*
G01X4468529Y4490652D01*
G01X4468529Y4470652D01*
G37*
G36*
G01X4402030Y4450647D02*
G01X4468529Y4450647D01*
G01X4468529Y4430647D01*
G01X4402030Y4430647D01*
G01X4402030Y4450647D01*
G37*
G36*
G01X5150037Y4430647D02*
G01X5083537Y4430647D01*
G01X5083537Y4450647D01*
G01X5150037Y4450647D01*
G01X5150037Y4430647D01*
G37*
G36*
G01X4402030Y4410642D02*
G01X4468529Y4410642D01*
G01X4468529Y4390642D01*
G01X4402030Y4390642D01*
G01X4402030Y4410642D01*
G37*
G36*
G01X5150037Y4390642D02*
G01X5083537Y4390642D01*
G01X5083537Y4410642D01*
G01X5150037Y4410642D01*
G01X5150037Y4390642D01*
G37*
G36*
G01X4402030Y4370662D02*
G01X4468529Y4370662D01*
G01X4468529Y4350662D01*
G01X4402030Y4350662D01*
G01X4402030Y4370662D01*
G37*
G36*
G01X5150037Y4350662D02*
G01X5083537Y4350662D01*
G01X5083537Y4370662D01*
G01X5150037Y4370662D01*
G01X5150037Y4350662D01*
G37*
G36*
G01X5046039Y4246639D02*
G01X5026039Y4246639D01*
G01X5026039Y4313139D01*
G01X5046039Y4313139D01*
G01X5046039Y4246639D01*
G37*
G36*
G01X4766029Y4246639D02*
G01X4746029Y4246639D01*
G01X4746029Y4313139D01*
G01X4766029Y4313139D01*
G01X4766029Y4246639D01*
G37*
G36*
G01X4786034Y4313139D02*
G01X4806034Y4313139D01*
G01X4806034Y4246639D01*
G01X4786034Y4246639D01*
G01X4786034Y4313139D01*
G37*
G36*
G01X4506050Y4313139D02*
G01X4526050Y4313139D01*
G01X4526050Y4246639D01*
G01X4506050Y4246639D01*
G01X4506050Y4313139D01*
G37*
G36*
G01X5006034Y4246639D02*
G01X4986034Y4246639D01*
G01X4986034Y4313139D01*
G01X5006034Y4313139D01*
G01X5006034Y4246639D01*
G37*
G36*
G01X4726050Y4246639D02*
G01X4706050Y4246639D01*
G01X4706050Y4313139D01*
G01X4726050Y4313139D01*
G01X4726050Y4246639D01*
G37*
G36*
G01X4966029Y4246639D02*
G01X4946029Y4246639D01*
G01X4946029Y4313139D01*
G01X4966029Y4313139D01*
G01X4966029Y4246639D01*
G37*
G36*
G01X4686045Y4246639D02*
G01X4666045Y4246639D01*
G01X4666045Y4313139D01*
G01X4686045Y4313139D01*
G01X4686045Y4246639D01*
G37*
G36*
G01X4926049Y4246639D02*
G01X4906049Y4246639D01*
G01X4906049Y4313139D01*
G01X4926049Y4313139D01*
G01X4926049Y4246639D01*
G37*
G36*
G01X4646040Y4246639D02*
G01X4626040Y4246639D01*
G01X4626040Y4313139D01*
G01X4646040Y4313139D01*
G01X4646040Y4246639D01*
G37*
G36*
G01X4826039Y4313139D02*
G01X4846039Y4313139D01*
G01X4846039Y4246639D01*
G01X4826039Y4246639D01*
G01X4826039Y4313139D01*
G37*
G36*
G01X4546030Y4313139D02*
G01X4566030Y4313139D01*
G01X4566030Y4246639D01*
G01X4546030Y4246639D01*
G01X4546030Y4313139D01*
G37*
G36*
G01X4886044Y4246639D02*
G01X4866044Y4246639D01*
G01X4866044Y4313139D01*
G01X4886044Y4313139D01*
G01X4886044Y4246639D01*
G37*
G36*
G01X4606035Y4246639D02*
G01X4586035Y4246639D01*
G01X4586035Y4313139D01*
G01X4606035Y4313139D01*
G01X4606035Y4246639D01*
G37*
G36*
G01X4616045Y4780656D02*
G01X4936044Y4780656D01*
G01X4936044Y4460657D01*
G01X4616045Y4460657D01*
G01X4616045Y4780656D01*
G37*
G36*
G01X6979331Y4353229D02*
G01X6912831Y4353229D01*
G01X6912831Y4381227D01*
G01X6979331Y4381227D01*
G01X6979331Y4353229D01*
G37*
G36*
G01X6979331Y4403229D02*
G01X6912831Y4403229D01*
G01X6912831Y4431227D01*
G01X6979331Y4431227D01*
G01X6979331Y4403229D01*
G37*
G36*
G01X6979331Y4453229D02*
G01X6912831Y4453229D01*
G01X6912831Y4481227D01*
G01X6979331Y4481227D01*
G01X6979331Y4453229D01*
G37*
G36*
G01X6979331Y4503228D02*
G01X6912831Y4503228D01*
G01X6912831Y4531227D01*
G01X6979331Y4531227D01*
G01X6979331Y4503228D01*
G37*
G36*
G01X6979331Y4553228D02*
G01X6912831Y4553228D01*
G01X6912831Y4581227D01*
G01X6979331Y4581227D01*
G01X6979331Y4553228D01*
G37*
G36*
G01X6979331Y4603228D02*
G01X6912831Y4603228D01*
G01X6912831Y4631227D01*
G01X6979331Y4631227D01*
G01X6979331Y4603228D01*
G37*
G36*
G01X6997832Y4716228D02*
G01X7025831Y4716228D01*
G01X7025831Y4649728D01*
G01X6997832Y4649728D01*
G01X6997832Y4716228D01*
G37*
G36*
G01X7047832Y4716228D02*
G01X7075830Y4716228D01*
G01X7075830Y4649728D01*
G01X7047832Y4649728D01*
G01X7047832Y4716228D01*
G37*
G36*
G01X7097832Y4716228D02*
G01X7125830Y4716228D01*
G01X7125830Y4649728D01*
G01X7097832Y4649728D01*
G01X7097832Y4716228D01*
G37*
G36*
G01X7147832Y4716228D02*
G01X7175830Y4716228D01*
G01X7175830Y4649728D01*
G01X7147832Y4649728D01*
G01X7147832Y4716228D01*
G37*
G36*
G01X7197832Y4716228D02*
G01X7225830Y4716228D01*
G01X7225830Y4649728D01*
G01X7197832Y4649728D01*
G01X7197832Y4716228D01*
G37*
G36*
G01X7247832Y4716228D02*
G01X7275830Y4716228D01*
G01X7275830Y4649728D01*
G01X7247832Y4649728D01*
G01X7247832Y4716228D01*
G37*
G36*
G01X7360831Y4603228D02*
G01X7294331Y4603228D01*
G01X7294331Y4631227D01*
G01X7360831Y4631227D01*
G01X7360831Y4603228D01*
G37*
G36*
G01X7360831Y4553228D02*
G01X7294331Y4553228D01*
G01X7294331Y4581227D01*
G01X7360831Y4581227D01*
G01X7360831Y4553228D01*
G37*
G36*
G01X7360831Y4503228D02*
G01X7294331Y4503228D01*
G01X7294331Y4531227D01*
G01X7360831Y4531227D01*
G01X7360831Y4503228D01*
G37*
G36*
G01X7360831Y4453229D02*
G01X7294331Y4453229D01*
G01X7294331Y4481227D01*
G01X7360831Y4481227D01*
G01X7360831Y4453229D01*
G37*
G36*
G01X7360831Y4403229D02*
G01X7294331Y4403229D01*
G01X7294331Y4431227D01*
G01X7360831Y4431227D01*
G01X7360831Y4403229D01*
G37*
G36*
G01X7360831Y4353229D02*
G01X7294331Y4353229D01*
G01X7294331Y4381227D01*
G01X7360831Y4381227D01*
G01X7360831Y4353229D01*
G37*
G36*
G01X7247832Y4268228D02*
G01X7247832Y4334727D01*
G01X7275830Y4334727D01*
G01X7275830Y4268228D01*
G01X7247832Y4268228D01*
G37*
G36*
G01X7197832Y4268228D02*
G01X7197832Y4334727D01*
G01X7225830Y4334727D01*
G01X7225830Y4268228D01*
G01X7197832Y4268228D01*
G37*
G36*
G01X7147832Y4268228D02*
G01X7147832Y4334727D01*
G01X7175830Y4334727D01*
G01X7175830Y4268228D01*
G01X7147832Y4268228D01*
G37*
G36*
G01X7097832Y4268228D02*
G01X7097832Y4334727D01*
G01X7125830Y4334727D01*
G01X7125830Y4268228D01*
G01X7097832Y4268228D01*
G37*
G36*
G01X7047832Y4268228D02*
G01X7047832Y4334727D01*
G01X7075830Y4334727D01*
G01X7075830Y4268228D01*
G01X7047832Y4268228D01*
G37*
G36*
G01X6997832Y4268228D02*
G01X6997832Y4334727D01*
G01X7025831Y4334727D01*
G01X7025831Y4268228D01*
G01X6997832Y4268228D01*
G37*
G36*
G01X7034830Y4594229D02*
G01X7238832Y4594229D01*
G01X7238832Y4390226D01*
G01X7034830Y4390226D01*
G01X7034830Y4594229D01*
G37*

G04 Pad Start*
G54D10*
G01X7638494Y4507475D03*
G01X7498489Y4507475D03*
G01X6787594Y3593458D03*
G01X6647589Y3593458D03*
G01X7661686Y4284837D03*
G01X7521682Y4284837D03*
G01X5289702Y1752600D03*
G01X5149698Y1752600D03*
G54D11*
G01X5257800Y2216302D03*
G01X5257800Y2076298D03*
G54D10*
G01X5708802Y1663700D03*
G01X5568798Y1663700D03*
G01X5696828Y2289304D03*
G01X5556823Y2289304D03*
G01X7695913Y3807844D03*
G01X7555908Y3807844D03*
G01X6825694Y3376044D03*
G01X6685689Y3376044D03*
G01X4299102Y2832100D03*
G01X4159098Y2832100D03*
G01X3892702Y4406900D03*
G01X3752698Y4406900D03*
G01X5307072Y2918462D03*
G01X5167067Y2918462D03*
G01X5683152Y3721589D03*
G01X5543147Y3721589D03*
G01X5329759Y3721589D03*
G01X5189755Y3721589D03*
G01X3868134Y5283689D03*
G01X3728129Y5283689D03*
G01X4221527Y5283689D03*
G01X4081522Y5283689D03*
G01X4574920Y5283689D03*
G01X4434915Y5283689D03*
G01X4928312Y5283689D03*
G01X4788308Y5283689D03*
G01X5281705Y5283689D03*
G01X5141700Y5283689D03*
G01X5635098Y5283689D03*
G01X5495093Y5283689D03*
G01X6109918Y5283689D03*
G01X5969913Y5283689D03*
G01X6841565Y3046975D03*
G01X6701560Y3046975D03*
G01X4692802Y1409700D03*
G01X4552798Y1409700D03*
G01X4286402Y1447800D03*
G01X4146398Y1447800D03*
G01X5315102Y3200400D03*
G01X5175098Y3200400D03*
G54D12*
G01X6549606Y3962400D03*
G54D13*
G01X6567094Y4024909D03*
G01X6617106Y4024909D03*
G01X6667094Y4024909D03*
G01X6717106Y4024909D03*
G54D12*
G01X6734602Y3962400D03*
G54D13*
G01X6717106Y3899891D03*
G01X6667094Y3899891D03*
G01X6617106Y3899891D03*
G01X6567094Y3899891D03*
G54D14*
G01X2924899Y4140200D03*
G01X2840901Y4140200D03*
G54D16*
G01X6272301Y4221302D03*
G01X6337300Y4221302D03*
G01X6402299Y4221302D03*
G01X6402299Y4389298D03*
G01X6337300Y4389298D03*
G01X6272301Y4389298D03*
G54D17*
G01X4244810Y1936991D03*
G01X4244810Y2031987D03*
G01X4244810Y2127009D03*
G01X3984790Y2127009D03*
G01X3984790Y1936991D03*
G54D18*
G01X4533900Y2707691D03*
G01X4660900Y2707691D03*
G01X4787900Y2707691D03*
G01X4914900Y2707691D03*
G01X4533900Y3413709D03*
G01X4660900Y3413709D03*
G01X4787900Y3413709D03*
G01X4914900Y3413709D03*
G54D19*
G01X4576293Y2099399D03*
G01X4796307Y2099399D03*
G01X4796307Y2269401D03*
G01X4576293Y2269401D03*
G04 Pad End*

M02*

