G04 Layer: TopSilkscreenLayer*
G04 EasyEDA Pro v3.2.149, 2026-09-20 15:54:07*
G04 Gerber Generator version 0.3*
G04 Scale: 100 percent, Rotated: No, Reflected: No*
G04 Dimensions in millimeters*
G04 Leading zeros omitted, absolute positions, 4 integers and 5 decimals*
G04 Generated by one-click*
G04 Object Configs: Pad,Via,Track,Text,Image,Dimension,BoardOutline,BoardCutout,CopperFilled,SolidRegion,FPCStiffener,Line,PlaneZone,ComponentProperty,ComponentSilkscreen,TearDrop*
G04 Layer Configs: 1,2,3,4,5,6,7,8,9,10,11,13,14,56*
G04 Copper Areas: 0*
%FSLAX45Y45*%
%MOMM*%
%ADD10C,0.1524*%
%ADD11C,0.254*%
%ADD12C,0.15199*%
%ADD13C,0.15001*%
%ADD14C,0.3*%
%ADD15C,0.5502*%
G75*


G04 Text Start*
G54D10*
G01X7470902Y4682626D02*
G01X7467854Y4688976D01*
G01X7461504Y4695072D01*
G01X7455408Y4698120D01*
G01X7442962Y4698120D01*
G01X7436866Y4695072D01*
G01X7430516Y4688976D01*
G01X7427468Y4682626D01*
G01X7424420Y4673482D01*
G01X7424420Y4657988D01*
G01X7427468Y4648590D01*
G01X7430516Y4642494D01*
G01X7436866Y4636144D01*
G01X7442962Y4633096D01*
G01X7455408Y4633096D01*
G01X7461504Y4636144D01*
G01X7467854Y4642494D01*
G01X7470902Y4648590D01*
G01X7501128Y4685674D02*
G01X7507224Y4688976D01*
G01X7516368Y4698120D01*
G01X7516368Y4633096D01*
G01X6620002Y3768608D02*
G01X6616954Y3774958D01*
G01X6610604Y3781054D01*
G01X6604508Y3784102D01*
G01X6592062Y3784102D01*
G01X6585966Y3781054D01*
G01X6579616Y3774958D01*
G01X6576568Y3768608D01*
G01X6573520Y3759464D01*
G01X6573520Y3743970D01*
G01X6576568Y3734572D01*
G01X6579616Y3728476D01*
G01X6585966Y3722126D01*
G01X6592062Y3719078D01*
G01X6604508Y3719078D01*
G01X6610604Y3722126D01*
G01X6616954Y3728476D01*
G01X6620002Y3734572D01*
G01X6653276Y3768608D02*
G01X6653276Y3771656D01*
G01X6656324Y3778006D01*
G01X6659372Y3781054D01*
G01X6665468Y3784102D01*
G01X6677914Y3784102D01*
G01X6684264Y3781054D01*
G01X6687312Y3778006D01*
G01X6690360Y3771656D01*
G01X6690360Y3765560D01*
G01X6687312Y3759464D01*
G01X6680962Y3750066D01*
G01X6650228Y3719078D01*
G01X6693408Y3719078D01*
G01X7494095Y4459988D02*
G01X7491047Y4466338D01*
G01X7484697Y4472434D01*
G01X7478601Y4475482D01*
G01X7466155Y4475482D01*
G01X7460059Y4472434D01*
G01X7453709Y4466338D01*
G01X7450661Y4459988D01*
G01X7447613Y4450844D01*
G01X7447613Y4435350D01*
G01X7450661Y4425952D01*
G01X7453709Y4419856D01*
G01X7460059Y4413506D01*
G01X7466155Y4410458D01*
G01X7478601Y4410458D01*
G01X7484697Y4413506D01*
G01X7491047Y4419856D01*
G01X7494095Y4425952D01*
G01X7530417Y4475482D02*
G01X7564453Y4475482D01*
G01X7545911Y4450844D01*
G01X7555055Y4450844D01*
G01X7561405Y4447796D01*
G01X7564453Y4444494D01*
G01X7567501Y4435350D01*
G01X7567501Y4429000D01*
G01X7564453Y4419856D01*
G01X7558357Y4413506D01*
G01X7548959Y4410458D01*
G01X7539561Y4410458D01*
G01X7530417Y4413506D01*
G01X7527369Y4416808D01*
G01X7524321Y4422904D01*
G01X5122111Y1927751D02*
G01X5119063Y1934101D01*
G01X5112713Y1940197D01*
G01X5106617Y1943245D01*
G01X5094171Y1943245D01*
G01X5088075Y1940197D01*
G01X5081725Y1934101D01*
G01X5078677Y1927751D01*
G01X5075629Y1918607D01*
G01X5075629Y1903113D01*
G01X5078677Y1893715D01*
G01X5081725Y1887619D01*
G01X5088075Y1881269D01*
G01X5094171Y1878221D01*
G01X5106617Y1878221D01*
G01X5112713Y1881269D01*
G01X5119063Y1887619D01*
G01X5122111Y1893715D01*
G01X5183071Y1943245D02*
G01X5152337Y1900065D01*
G01X5198565Y1900065D01*
G01X5183071Y1943245D02*
G01X5183071Y1878221D01*
G01X5082649Y2048711D02*
G01X5076299Y2045663D01*
G01X5070203Y2039313D01*
G01X5067155Y2033217D01*
G01X5067155Y2020771D01*
G01X5070203Y2014675D01*
G01X5076299Y2008325D01*
G01X5082649Y2005277D01*
G01X5091793Y2002229D01*
G01X5107287Y2002229D01*
G01X5116685Y2005277D01*
G01X5122781Y2008325D01*
G01X5129131Y2014675D01*
G01X5132179Y2020771D01*
G01X5132179Y2033217D01*
G01X5129131Y2039313D01*
G01X5122781Y2045663D01*
G01X5116685Y2048711D01*
G01X5067155Y2116021D02*
G01X5067155Y2085033D01*
G01X5094841Y2081985D01*
G01X5091793Y2085033D01*
G01X5088745Y2094177D01*
G01X5088745Y2103575D01*
G01X5091793Y2112973D01*
G01X5098143Y2119069D01*
G01X5107287Y2122117D01*
G01X5113637Y2122117D01*
G01X5122781Y2119069D01*
G01X5129131Y2112973D01*
G01X5132179Y2103575D01*
G01X5132179Y2094177D01*
G01X5129131Y2085033D01*
G01X5125829Y2081985D01*
G01X5119733Y2078937D01*
G01X5541211Y1838851D02*
G01X5538163Y1845201D01*
G01X5531813Y1851297D01*
G01X5525717Y1854345D01*
G01X5513271Y1854345D01*
G01X5507175Y1851297D01*
G01X5500825Y1845201D01*
G01X5497777Y1838851D01*
G01X5494729Y1829707D01*
G01X5494729Y1814213D01*
G01X5497777Y1804815D01*
G01X5500825Y1798719D01*
G01X5507175Y1792369D01*
G01X5513271Y1789321D01*
G01X5525717Y1789321D01*
G01X5531813Y1792369D01*
G01X5538163Y1798719D01*
G01X5541211Y1804815D01*
G01X5608521Y1845201D02*
G01X5605473Y1851297D01*
G01X5596075Y1854345D01*
G01X5589979Y1854345D01*
G01X5580581Y1851297D01*
G01X5574485Y1841899D01*
G01X5571437Y1826659D01*
G01X5571437Y1811165D01*
G01X5574485Y1798719D01*
G01X5580581Y1792369D01*
G01X5589979Y1789321D01*
G01X5593027Y1789321D01*
G01X5602171Y1792369D01*
G01X5608521Y1798719D01*
G01X5611569Y1807863D01*
G01X5611569Y1811165D01*
G01X5608521Y1820309D01*
G01X5602171Y1826659D01*
G01X5593027Y1829707D01*
G01X5589979Y1829707D01*
G01X5580581Y1826659D01*
G01X5574485Y1820309D01*
G01X5571437Y1811165D01*
G01X5529236Y2464454D02*
G01X5526188Y2470804D01*
G01X5519838Y2476900D01*
G01X5513742Y2479948D01*
G01X5501296Y2479948D01*
G01X5495200Y2476900D01*
G01X5488850Y2470804D01*
G01X5485802Y2464454D01*
G01X5482754Y2455310D01*
G01X5482754Y2439816D01*
G01X5485802Y2430418D01*
G01X5488850Y2424322D01*
G01X5495200Y2417972D01*
G01X5501296Y2414924D01*
G01X5513742Y2414924D01*
G01X5519838Y2417972D01*
G01X5526188Y2424322D01*
G01X5529236Y2430418D01*
G01X5602642Y2479948D02*
G01X5571654Y2414924D01*
G01X5559462Y2479948D02*
G01X5602642Y2479948D01*
G01X7528321Y3982995D02*
G01X7525273Y3989345D01*
G01X7518923Y3995441D01*
G01X7512827Y3998489D01*
G01X7500381Y3998489D01*
G01X7494285Y3995441D01*
G01X7487935Y3989345D01*
G01X7484887Y3982995D01*
G01X7481839Y3973851D01*
G01X7481839Y3958357D01*
G01X7484887Y3948959D01*
G01X7487935Y3942863D01*
G01X7494285Y3936513D01*
G01X7500381Y3933465D01*
G01X7512827Y3933465D01*
G01X7518923Y3936513D01*
G01X7525273Y3942863D01*
G01X7528321Y3948959D01*
G01X7573787Y3998489D02*
G01X7564643Y3995441D01*
G01X7561595Y3989345D01*
G01X7561595Y3982995D01*
G01X7564643Y3976899D01*
G01X7570739Y3973851D01*
G01X7583185Y3970803D01*
G01X7592583Y3967501D01*
G01X7598679Y3961405D01*
G01X7601727Y3955309D01*
G01X7601727Y3945911D01*
G01X7598679Y3939815D01*
G01X7595631Y3936513D01*
G01X7586233Y3933465D01*
G01X7573787Y3933465D01*
G01X7564643Y3936513D01*
G01X7561595Y3939815D01*
G01X7558547Y3945911D01*
G01X7558547Y3955309D01*
G01X7561595Y3961405D01*
G01X7567691Y3967501D01*
G01X7577089Y3970803D01*
G01X7589281Y3973851D01*
G01X7595631Y3976899D01*
G01X7598679Y3982995D01*
G01X7598679Y3989345D01*
G01X7595631Y3995441D01*
G01X7586233Y3998489D01*
G01X7573787Y3998489D01*
G01X6658102Y3551195D02*
G01X6655054Y3557545D01*
G01X6648704Y3563641D01*
G01X6642608Y3566689D01*
G01X6630162Y3566689D01*
G01X6624066Y3563641D01*
G01X6617716Y3557545D01*
G01X6614668Y3551195D01*
G01X6611620Y3542051D01*
G01X6611620Y3526557D01*
G01X6614668Y3517159D01*
G01X6617716Y3511063D01*
G01X6624066Y3504713D01*
G01X6630162Y3501665D01*
G01X6642608Y3501665D01*
G01X6648704Y3504713D01*
G01X6655054Y3511063D01*
G01X6658102Y3517159D01*
G01X6728460Y3545099D02*
G01X6725412Y3535701D01*
G01X6719062Y3529605D01*
G01X6709918Y3526557D01*
G01X6706870Y3526557D01*
G01X6697472Y3529605D01*
G01X6691376Y3535701D01*
G01X6688328Y3545099D01*
G01X6688328Y3548147D01*
G01X6691376Y3557545D01*
G01X6697472Y3563641D01*
G01X6706870Y3566689D01*
G01X6709918Y3566689D01*
G01X6719062Y3563641D01*
G01X6725412Y3557545D01*
G01X6728460Y3545099D01*
G01X6728460Y3529605D01*
G01X6725412Y3514111D01*
G01X6719062Y3504713D01*
G01X6709918Y3501665D01*
G01X6703568Y3501665D01*
G01X6694424Y3504713D01*
G01X6691376Y3511063D01*
G01X4131511Y3007251D02*
G01X4128463Y3013601D01*
G01X4122113Y3019697D01*
G01X4116017Y3022745D01*
G01X4103571Y3022745D01*
G01X4097475Y3019697D01*
G01X4091125Y3013601D01*
G01X4088077Y3007251D01*
G01X4085029Y2998107D01*
G01X4085029Y2982613D01*
G01X4088077Y2973215D01*
G01X4091125Y2967119D01*
G01X4097475Y2960769D01*
G01X4103571Y2957721D01*
G01X4116017Y2957721D01*
G01X4122113Y2960769D01*
G01X4128463Y2967119D01*
G01X4131511Y2973215D01*
G01X4161737Y3010299D02*
G01X4167833Y3013601D01*
G01X4176977Y3022745D01*
G01X4176977Y2957721D01*
G01X4225745Y3022745D02*
G01X4216347Y3019697D01*
G01X4210251Y3010299D01*
G01X4207203Y2995059D01*
G01X4207203Y2985661D01*
G01X4210251Y2970167D01*
G01X4216347Y2960769D01*
G01X4225745Y2957721D01*
G01X4231841Y2957721D01*
G01X4241239Y2960769D01*
G01X4247335Y2970167D01*
G01X4250383Y2985661D01*
G01X4250383Y2995059D01*
G01X4247335Y3010299D01*
G01X4241239Y3019697D01*
G01X4231841Y3022745D01*
G01X4225745Y3022745D01*
G01X3683370Y4586751D02*
G01X3680322Y4593101D01*
G01X3673972Y4599197D01*
G01X3667876Y4602245D01*
G01X3655430Y4602245D01*
G01X3649334Y4599197D01*
G01X3642984Y4593101D01*
G01X3639936Y4586751D01*
G01X3636888Y4577607D01*
G01X3636888Y4562113D01*
G01X3639936Y4552715D01*
G01X3642984Y4546619D01*
G01X3649334Y4540269D01*
G01X3655430Y4537221D01*
G01X3667876Y4537221D01*
G01X3673972Y4540269D01*
G01X3680322Y4546619D01*
G01X3683370Y4552715D01*
G01X3713596Y4589799D02*
G01X3719692Y4593101D01*
G01X3728836Y4602245D01*
G01X3728836Y4537221D01*
G01X3759062Y4589799D02*
G01X3765158Y4593101D01*
G01X3774302Y4602245D01*
G01X3774302Y4537221D01*
G01X5139480Y3093612D02*
G01X5136432Y3099962D01*
G01X5130082Y3106058D01*
G01X5123986Y3109106D01*
G01X5111540Y3109106D01*
G01X5105444Y3106058D01*
G01X5099094Y3099962D01*
G01X5096046Y3093612D01*
G01X5092998Y3084468D01*
G01X5092998Y3068974D01*
G01X5096046Y3059576D01*
G01X5099094Y3053480D01*
G01X5105444Y3047130D01*
G01X5111540Y3044082D01*
G01X5123986Y3044082D01*
G01X5130082Y3047130D01*
G01X5136432Y3053480D01*
G01X5139480Y3059576D01*
G01X5169706Y3096660D02*
G01X5175802Y3099962D01*
G01X5184946Y3109106D01*
G01X5184946Y3044082D01*
G01X5218220Y3093612D02*
G01X5218220Y3096660D01*
G01X5221268Y3103010D01*
G01X5224316Y3106058D01*
G01X5230412Y3109106D01*
G01X5242858Y3109106D01*
G01X5249208Y3106058D01*
G01X5252256Y3103010D01*
G01X5255304Y3096660D01*
G01X5255304Y3090564D01*
G01X5252256Y3084468D01*
G01X5245906Y3075070D01*
G01X5215172Y3044082D01*
G01X5258352Y3044082D01*
G01X5515560Y3896740D02*
G01X5512512Y3903090D01*
G01X5506162Y3909186D01*
G01X5500066Y3912234D01*
G01X5487620Y3912234D01*
G01X5481524Y3909186D01*
G01X5475174Y3903090D01*
G01X5472126Y3896740D01*
G01X5469078Y3887596D01*
G01X5469078Y3872102D01*
G01X5472126Y3862704D01*
G01X5475174Y3856608D01*
G01X5481524Y3850258D01*
G01X5487620Y3847210D01*
G01X5500066Y3847210D01*
G01X5506162Y3850258D01*
G01X5512512Y3856608D01*
G01X5515560Y3862704D01*
G01X5545786Y3899788D02*
G01X5551882Y3903090D01*
G01X5561026Y3912234D01*
G01X5561026Y3847210D01*
G01X5597348Y3912234D02*
G01X5631384Y3912234D01*
G01X5612842Y3887596D01*
G01X5621986Y3887596D01*
G01X5628336Y3884548D01*
G01X5631384Y3881246D01*
G01X5634432Y3872102D01*
G01X5634432Y3865752D01*
G01X5631384Y3856608D01*
G01X5625288Y3850258D01*
G01X5615890Y3847210D01*
G01X5606492Y3847210D01*
G01X5597348Y3850258D01*
G01X5594300Y3853560D01*
G01X5591252Y3859656D01*
G01X5162168Y3896740D02*
G01X5159120Y3903090D01*
G01X5152770Y3909186D01*
G01X5146674Y3912234D01*
G01X5134228Y3912234D01*
G01X5128132Y3909186D01*
G01X5121782Y3903090D01*
G01X5118734Y3896740D01*
G01X5115686Y3887596D01*
G01X5115686Y3872102D01*
G01X5118734Y3862704D01*
G01X5121782Y3856608D01*
G01X5128132Y3850258D01*
G01X5134228Y3847210D01*
G01X5146674Y3847210D01*
G01X5152770Y3850258D01*
G01X5159120Y3856608D01*
G01X5162168Y3862704D01*
G01X5192394Y3899788D02*
G01X5198490Y3903090D01*
G01X5207634Y3912234D01*
G01X5207634Y3847210D01*
G01X5268594Y3912234D02*
G01X5237860Y3869054D01*
G01X5284088Y3869054D01*
G01X5268594Y3912234D02*
G01X5268594Y3847210D01*
G01X3700543Y5458840D02*
G01X3697495Y5465190D01*
G01X3691145Y5471286D01*
G01X3685049Y5474334D01*
G01X3672603Y5474334D01*
G01X3666507Y5471286D01*
G01X3660157Y5465190D01*
G01X3657109Y5458840D01*
G01X3654061Y5449696D01*
G01X3654061Y5434202D01*
G01X3657109Y5424804D01*
G01X3660157Y5418708D01*
G01X3666507Y5412358D01*
G01X3672603Y5409310D01*
G01X3685049Y5409310D01*
G01X3691145Y5412358D01*
G01X3697495Y5418708D01*
G01X3700543Y5424804D01*
G01X3730769Y5461888D02*
G01X3736865Y5465190D01*
G01X3746009Y5474334D01*
G01X3746009Y5409310D01*
G01X3813319Y5474334D02*
G01X3782331Y5474334D01*
G01X3779283Y5446648D01*
G01X3782331Y5449696D01*
G01X3791475Y5452744D01*
G01X3800873Y5452744D01*
G01X3810271Y5449696D01*
G01X3816367Y5443346D01*
G01X3819415Y5434202D01*
G01X3819415Y5427852D01*
G01X3816367Y5418708D01*
G01X3810271Y5412358D01*
G01X3800873Y5409310D01*
G01X3791475Y5409310D01*
G01X3782331Y5412358D01*
G01X3779283Y5415660D01*
G01X3776235Y5421756D01*
G01X4053935Y5458840D02*
G01X4050887Y5465190D01*
G01X4044537Y5471286D01*
G01X4038441Y5474334D01*
G01X4025995Y5474334D01*
G01X4019899Y5471286D01*
G01X4013549Y5465190D01*
G01X4010501Y5458840D01*
G01X4007453Y5449696D01*
G01X4007453Y5434202D01*
G01X4010501Y5424804D01*
G01X4013549Y5418708D01*
G01X4019899Y5412358D01*
G01X4025995Y5409310D01*
G01X4038441Y5409310D01*
G01X4044537Y5412358D01*
G01X4050887Y5418708D01*
G01X4053935Y5424804D01*
G01X4084161Y5461888D02*
G01X4090257Y5465190D01*
G01X4099401Y5474334D01*
G01X4099401Y5409310D01*
G01X4166711Y5465190D02*
G01X4163663Y5471286D01*
G01X4154265Y5474334D01*
G01X4148169Y5474334D01*
G01X4138771Y5471286D01*
G01X4132675Y5461888D01*
G01X4129627Y5446648D01*
G01X4129627Y5431154D01*
G01X4132675Y5418708D01*
G01X4138771Y5412358D01*
G01X4148169Y5409310D01*
G01X4151217Y5409310D01*
G01X4160361Y5412358D01*
G01X4166711Y5418708D01*
G01X4169759Y5427852D01*
G01X4169759Y5431154D01*
G01X4166711Y5440298D01*
G01X4160361Y5446648D01*
G01X4151217Y5449696D01*
G01X4148169Y5449696D01*
G01X4138771Y5446648D01*
G01X4132675Y5440298D01*
G01X4129627Y5431154D01*
G01X4407328Y5458840D02*
G01X4404280Y5465190D01*
G01X4397930Y5471286D01*
G01X4391834Y5474334D01*
G01X4379388Y5474334D01*
G01X4373292Y5471286D01*
G01X4366942Y5465190D01*
G01X4363894Y5458840D01*
G01X4360846Y5449696D01*
G01X4360846Y5434202D01*
G01X4363894Y5424804D01*
G01X4366942Y5418708D01*
G01X4373292Y5412358D01*
G01X4379388Y5409310D01*
G01X4391834Y5409310D01*
G01X4397930Y5412358D01*
G01X4404280Y5418708D01*
G01X4407328Y5424804D01*
G01X4437554Y5461888D02*
G01X4443650Y5465190D01*
G01X4452794Y5474334D01*
G01X4452794Y5409310D01*
G01X4526200Y5474334D02*
G01X4495212Y5409310D01*
G01X4483020Y5474334D02*
G01X4526200Y5474334D01*
G01X4760721Y5458840D02*
G01X4757673Y5465190D01*
G01X4751323Y5471286D01*
G01X4745227Y5474334D01*
G01X4732781Y5474334D01*
G01X4726685Y5471286D01*
G01X4720335Y5465190D01*
G01X4717287Y5458840D01*
G01X4714239Y5449696D01*
G01X4714239Y5434202D01*
G01X4717287Y5424804D01*
G01X4720335Y5418708D01*
G01X4726685Y5412358D01*
G01X4732781Y5409310D01*
G01X4745227Y5409310D01*
G01X4751323Y5412358D01*
G01X4757673Y5418708D01*
G01X4760721Y5424804D01*
G01X4790947Y5461888D02*
G01X4797043Y5465190D01*
G01X4806187Y5474334D01*
G01X4806187Y5409310D01*
G01X4851653Y5474334D02*
G01X4842509Y5471286D01*
G01X4839461Y5465190D01*
G01X4839461Y5458840D01*
G01X4842509Y5452744D01*
G01X4848605Y5449696D01*
G01X4861051Y5446648D01*
G01X4870449Y5443346D01*
G01X4876545Y5437250D01*
G01X4879593Y5431154D01*
G01X4879593Y5421756D01*
G01X4876545Y5415660D01*
G01X4873497Y5412358D01*
G01X4864099Y5409310D01*
G01X4851653Y5409310D01*
G01X4842509Y5412358D01*
G01X4839461Y5415660D01*
G01X4836413Y5421756D01*
G01X4836413Y5431154D01*
G01X4839461Y5437250D01*
G01X4845557Y5443346D01*
G01X4854955Y5446648D01*
G01X4867147Y5449696D01*
G01X4873497Y5452744D01*
G01X4876545Y5458840D01*
G01X4876545Y5465190D01*
G01X4873497Y5471286D01*
G01X4864099Y5474334D01*
G01X4851653Y5474334D01*
G01X5114113Y5458840D02*
G01X5111065Y5465190D01*
G01X5104715Y5471286D01*
G01X5098619Y5474334D01*
G01X5086173Y5474334D01*
G01X5080077Y5471286D01*
G01X5073727Y5465190D01*
G01X5070679Y5458840D01*
G01X5067631Y5449696D01*
G01X5067631Y5434202D01*
G01X5070679Y5424804D01*
G01X5073727Y5418708D01*
G01X5080077Y5412358D01*
G01X5086173Y5409310D01*
G01X5098619Y5409310D01*
G01X5104715Y5412358D01*
G01X5111065Y5418708D01*
G01X5114113Y5424804D01*
G01X5144339Y5461888D02*
G01X5150435Y5465190D01*
G01X5159579Y5474334D01*
G01X5159579Y5409310D01*
G01X5229937Y5452744D02*
G01X5226889Y5443346D01*
G01X5220539Y5437250D01*
G01X5211395Y5434202D01*
G01X5208347Y5434202D01*
G01X5198949Y5437250D01*
G01X5192853Y5443346D01*
G01X5189805Y5452744D01*
G01X5189805Y5455792D01*
G01X5192853Y5465190D01*
G01X5198949Y5471286D01*
G01X5208347Y5474334D01*
G01X5211395Y5474334D01*
G01X5220539Y5471286D01*
G01X5226889Y5465190D01*
G01X5229937Y5452744D01*
G01X5229937Y5437250D01*
G01X5226889Y5421756D01*
G01X5220539Y5412358D01*
G01X5211395Y5409310D01*
G01X5205045Y5409310D01*
G01X5195901Y5412358D01*
G01X5192853Y5418708D01*
G01X5467506Y5458840D02*
G01X5464458Y5465190D01*
G01X5458108Y5471286D01*
G01X5452012Y5474334D01*
G01X5439566Y5474334D01*
G01X5433470Y5471286D01*
G01X5427120Y5465190D01*
G01X5424072Y5458840D01*
G01X5421024Y5449696D01*
G01X5421024Y5434202D01*
G01X5424072Y5424804D01*
G01X5427120Y5418708D01*
G01X5433470Y5412358D01*
G01X5439566Y5409310D01*
G01X5452012Y5409310D01*
G01X5458108Y5412358D01*
G01X5464458Y5418708D01*
G01X5467506Y5424804D01*
G01X5500780Y5458840D02*
G01X5500780Y5461888D01*
G01X5503828Y5468238D01*
G01X5506876Y5471286D01*
G01X5512972Y5474334D01*
G01X5525418Y5474334D01*
G01X5531768Y5471286D01*
G01X5534816Y5468238D01*
G01X5537864Y5461888D01*
G01X5537864Y5455792D01*
G01X5534816Y5449696D01*
G01X5528466Y5440298D01*
G01X5497732Y5409310D01*
G01X5540912Y5409310D01*
G01X5589680Y5474334D02*
G01X5580282Y5471286D01*
G01X5574186Y5461888D01*
G01X5571138Y5446648D01*
G01X5571138Y5437250D01*
G01X5574186Y5421756D01*
G01X5580282Y5412358D01*
G01X5589680Y5409310D01*
G01X5595776Y5409310D01*
G01X5605174Y5412358D01*
G01X5611270Y5421756D01*
G01X5614318Y5437250D01*
G01X5614318Y5446648D01*
G01X5611270Y5461888D01*
G01X5605174Y5471286D01*
G01X5595776Y5474334D01*
G01X5589680Y5474334D01*
G01X5942326Y5458840D02*
G01X5939278Y5465190D01*
G01X5932928Y5471286D01*
G01X5926832Y5474334D01*
G01X5914386Y5474334D01*
G01X5908290Y5471286D01*
G01X5901940Y5465190D01*
G01X5898892Y5458840D01*
G01X5895844Y5449696D01*
G01X5895844Y5434202D01*
G01X5898892Y5424804D01*
G01X5901940Y5418708D01*
G01X5908290Y5412358D01*
G01X5914386Y5409310D01*
G01X5926832Y5409310D01*
G01X5932928Y5412358D01*
G01X5939278Y5418708D01*
G01X5942326Y5424804D01*
G01X5975600Y5458840D02*
G01X5975600Y5461888D01*
G01X5978648Y5468238D01*
G01X5981696Y5471286D01*
G01X5987792Y5474334D01*
G01X6000238Y5474334D01*
G01X6006588Y5471286D01*
G01X6009636Y5468238D01*
G01X6012684Y5461888D01*
G01X6012684Y5455792D01*
G01X6009636Y5449696D01*
G01X6003286Y5440298D01*
G01X5972552Y5409310D01*
G01X6015732Y5409310D01*
G01X6045958Y5461888D02*
G01X6052054Y5465190D01*
G01X6061198Y5474334D01*
G01X6061198Y5409310D01*
G01X6673973Y3222126D02*
G01X6670925Y3228476D01*
G01X6664575Y3234572D01*
G01X6658479Y3237620D01*
G01X6646033Y3237620D01*
G01X6639937Y3234572D01*
G01X6633587Y3228476D01*
G01X6630539Y3222126D01*
G01X6627491Y3212982D01*
G01X6627491Y3197488D01*
G01X6630539Y3188090D01*
G01X6633587Y3181994D01*
G01X6639937Y3175644D01*
G01X6646033Y3172596D01*
G01X6658479Y3172596D01*
G01X6664575Y3175644D01*
G01X6670925Y3181994D01*
G01X6673973Y3188090D01*
G01X6707247Y3222126D02*
G01X6707247Y3225174D01*
G01X6710295Y3231524D01*
G01X6713343Y3234572D01*
G01X6719439Y3237620D01*
G01X6731885Y3237620D01*
G01X6738235Y3234572D01*
G01X6741283Y3231524D01*
G01X6744331Y3225174D01*
G01X6744331Y3219078D01*
G01X6741283Y3212982D01*
G01X6734933Y3203584D01*
G01X6704199Y3172596D01*
G01X6747379Y3172596D01*
G01X6780653Y3222126D02*
G01X6780653Y3225174D01*
G01X6783701Y3231524D01*
G01X6786749Y3234572D01*
G01X6792845Y3237620D01*
G01X6805291Y3237620D01*
G01X6811641Y3234572D01*
G01X6814689Y3231524D01*
G01X6817737Y3225174D01*
G01X6817737Y3219078D01*
G01X6814689Y3212982D01*
G01X6808339Y3203584D01*
G01X6777605Y3172596D01*
G01X6820785Y3172596D01*
G01X4442668Y1718672D02*
G01X4439620Y1725022D01*
G01X4433270Y1731118D01*
G01X4427174Y1734166D01*
G01X4414728Y1734166D01*
G01X4408632Y1731118D01*
G01X4402282Y1725022D01*
G01X4399234Y1718672D01*
G01X4396186Y1709528D01*
G01X4396186Y1694034D01*
G01X4399234Y1684636D01*
G01X4402282Y1678540D01*
G01X4408632Y1672190D01*
G01X4414728Y1669142D01*
G01X4427174Y1669142D01*
G01X4433270Y1672190D01*
G01X4439620Y1678540D01*
G01X4442668Y1684636D01*
G01X4475942Y1718672D02*
G01X4475942Y1721720D01*
G01X4478990Y1728070D01*
G01X4482038Y1731118D01*
G01X4488134Y1734166D01*
G01X4500580Y1734166D01*
G01X4506930Y1731118D01*
G01X4509978Y1728070D01*
G01X4513026Y1721720D01*
G01X4513026Y1715624D01*
G01X4509978Y1709528D01*
G01X4503628Y1700130D01*
G01X4472894Y1669142D01*
G01X4516074Y1669142D01*
G01X4552396Y1734166D02*
G01X4586432Y1734166D01*
G01X4567890Y1709528D01*
G01X4577034Y1709528D01*
G01X4583384Y1706480D01*
G01X4586432Y1703178D01*
G01X4589480Y1694034D01*
G01X4589480Y1687684D01*
G01X4586432Y1678540D01*
G01X4580336Y1672190D01*
G01X4570938Y1669142D01*
G01X4561540Y1669142D01*
G01X4552396Y1672190D01*
G01X4549348Y1675492D01*
G01X4546300Y1681588D01*
G01X4118811Y1622951D02*
G01X4115763Y1629301D01*
G01X4109413Y1635397D01*
G01X4103317Y1638445D01*
G01X4090871Y1638445D01*
G01X4084775Y1635397D01*
G01X4078425Y1629301D01*
G01X4075377Y1622951D01*
G01X4072329Y1613807D01*
G01X4072329Y1598313D01*
G01X4075377Y1588915D01*
G01X4078425Y1582819D01*
G01X4084775Y1576469D01*
G01X4090871Y1573421D01*
G01X4103317Y1573421D01*
G01X4109413Y1576469D01*
G01X4115763Y1582819D01*
G01X4118811Y1588915D01*
G01X4152085Y1622951D02*
G01X4152085Y1625999D01*
G01X4155133Y1632349D01*
G01X4158181Y1635397D01*
G01X4164277Y1638445D01*
G01X4176723Y1638445D01*
G01X4183073Y1635397D01*
G01X4186121Y1632349D01*
G01X4189169Y1625999D01*
G01X4189169Y1619903D01*
G01X4186121Y1613807D01*
G01X4179771Y1604409D01*
G01X4149037Y1573421D01*
G01X4192217Y1573421D01*
G01X4253177Y1638445D02*
G01X4222443Y1595265D01*
G01X4268671Y1595265D01*
G01X4253177Y1638445D02*
G01X4253177Y1573421D01*
G01X5147511Y3375551D02*
G01X5144463Y3381901D01*
G01X5138113Y3387997D01*
G01X5132017Y3391045D01*
G01X5119571Y3391045D01*
G01X5113475Y3387997D01*
G01X5107125Y3381901D01*
G01X5104077Y3375551D01*
G01X5101029Y3366407D01*
G01X5101029Y3350913D01*
G01X5104077Y3341515D01*
G01X5107125Y3335419D01*
G01X5113475Y3329069D01*
G01X5119571Y3326021D01*
G01X5132017Y3326021D01*
G01X5138113Y3329069D01*
G01X5144463Y3335419D01*
G01X5147511Y3341515D01*
G01X5180785Y3375551D02*
G01X5180785Y3378599D01*
G01X5183833Y3384949D01*
G01X5186881Y3387997D01*
G01X5192977Y3391045D01*
G01X5205423Y3391045D01*
G01X5211773Y3387997D01*
G01X5214821Y3384949D01*
G01X5217869Y3378599D01*
G01X5217869Y3372503D01*
G01X5214821Y3366407D01*
G01X5208471Y3357009D01*
G01X5177737Y3326021D01*
G01X5220917Y3326021D01*
G01X5288227Y3391045D02*
G01X5257239Y3391045D01*
G01X5254191Y3363359D01*
G01X5257239Y3366407D01*
G01X5266383Y3369455D01*
G01X5275781Y3369455D01*
G01X5285179Y3366407D01*
G01X5291275Y3360057D01*
G01X5294323Y3350913D01*
G01X5294323Y3344563D01*
G01X5291275Y3335419D01*
G01X5285179Y3329069D01*
G01X5275781Y3326021D01*
G01X5266383Y3326021D01*
G01X5257239Y3329069D01*
G01X5254191Y3332371D01*
G01X5251143Y3338467D01*
G01X7452190Y4230853D02*
G01X7452190Y4165829D01*
G01X7452190Y4165829D02*
G01X7489274Y4165829D01*
G01X7519500Y4218407D02*
G01X7525596Y4221709D01*
G01X7534740Y4230853D01*
G01X7534740Y4165829D01*
G01X6517221Y4151843D02*
G01X6517221Y4086819D01*
G01X6517221Y4086819D02*
G01X6554305Y4086819D01*
G01X6587579Y4136349D02*
G01X6587579Y4139397D01*
G01X6590627Y4145747D01*
G01X6593675Y4148795D01*
G01X6599771Y4151843D01*
G01X6612217Y4151843D01*
G01X6618567Y4148795D01*
G01X6621615Y4145747D01*
G01X6624663Y4139397D01*
G01X6624663Y4133301D01*
G01X6621615Y4127205D01*
G01X6615265Y4117807D01*
G01X6584531Y4086819D01*
G01X6627711Y4086819D01*
G01X5458290Y2135353D02*
G01X5458290Y2070329D01*
G01X5458290Y2070329D02*
G01X5495374Y2070329D01*
G01X5531696Y2135353D02*
G01X5565732Y2135353D01*
G01X5547190Y2110715D01*
G01X5556334Y2110715D01*
G01X5562684Y2107667D01*
G01X5565732Y2104365D01*
G01X5568780Y2095221D01*
G01X5568780Y2088871D01*
G01X5565732Y2079727D01*
G01X5559636Y2073377D01*
G01X5550238Y2070329D01*
G01X5540840Y2070329D01*
G01X5531696Y2073377D01*
G01X5528648Y2076679D01*
G01X5525600Y2082775D01*
G01X6554800Y4635096D02*
G01X6554800Y4570072D01*
G01X6554800Y4570072D02*
G01X6591884Y4570072D01*
G01X6652844Y4635096D02*
G01X6622110Y4591916D01*
G01X6668338Y4591916D01*
G01X6652844Y4635096D02*
G01X6652844Y4570072D01*
G01X2775961Y4303776D02*
G01X2775961Y4238752D01*
G01X2775961Y4238752D02*
G01X2813045Y4238752D01*
G01X2880355Y4303776D02*
G01X2849367Y4303776D01*
G01X2846319Y4276090D01*
G01X2849367Y4279138D01*
G01X2858511Y4282186D01*
G01X2867909Y4282186D01*
G01X2877307Y4279138D01*
G01X2883403Y4272788D01*
G01X2886451Y4263644D01*
G01X2886451Y4257294D01*
G01X2883403Y4248150D01*
G01X2877307Y4241800D01*
G01X2867909Y4238752D01*
G01X2858511Y4238752D01*
G01X2849367Y4241800D01*
G01X2846319Y4245102D01*
G01X2843271Y4251198D01*
G01X6474186Y4662091D02*
G01X6539210Y4662091D01*
G01X6474186Y4662091D02*
G01X6474186Y4690031D01*
G01X6477234Y4699175D01*
G01X6480282Y4702223D01*
G01X6486632Y4705525D01*
G01X6492728Y4705525D01*
G01X6498824Y4702223D01*
G01X6501872Y4699175D01*
G01X6505174Y4690031D01*
G01X6505174Y4662091D01*
G01X6505174Y4683681D02*
G01X6539210Y4705525D01*
G01X6486632Y4735751D02*
G01X6483330Y4741847D01*
G01X6474186Y4750991D01*
G01X6539210Y4750991D01*
G01X4115991Y2657114D02*
G01X4115991Y2592090D01*
G01X4115991Y2657114D02*
G01X4143931Y2657114D01*
G01X4153075Y2654066D01*
G01X4156123Y2651018D01*
G01X4159425Y2644668D01*
G01X4159425Y2638572D01*
G01X4156123Y2632476D01*
G01X4153075Y2629428D01*
G01X4143931Y2626126D01*
G01X4115991Y2626126D01*
G01X4137581Y2626126D02*
G01X4159425Y2592090D01*
G01X4192699Y2641620D02*
G01X4192699Y2644668D01*
G01X4195747Y2651018D01*
G01X4198795Y2654066D01*
G01X4204891Y2657114D01*
G01X4217337Y2657114D01*
G01X4223687Y2654066D01*
G01X4226735Y2651018D01*
G01X4229783Y2644668D01*
G01X4229783Y2638572D01*
G01X4226735Y2632476D01*
G01X4220385Y2623078D01*
G01X4189651Y2592090D01*
G01X4232831Y2592090D01*
G01X5170091Y4219214D02*
G01X5170091Y4154190D01*
G01X5170091Y4219214D02*
G01X5198031Y4219214D01*
G01X5207175Y4216166D01*
G01X5210223Y4213118D01*
G01X5213525Y4206768D01*
G01X5213525Y4200672D01*
G01X5210223Y4194576D01*
G01X5207175Y4191528D01*
G01X5198031Y4188226D01*
G01X5170091Y4188226D01*
G01X5191681Y4188226D02*
G01X5213525Y4154190D01*
G01X5249847Y4219214D02*
G01X5283883Y4219214D01*
G01X5265341Y4194576D01*
G01X5274485Y4194576D01*
G01X5280835Y4191528D01*
G01X5283883Y4188226D01*
G01X5286931Y4179082D01*
G01X5286931Y4172732D01*
G01X5283883Y4163588D01*
G01X5277787Y4157238D01*
G01X5268389Y4154190D01*
G01X5258991Y4154190D01*
G01X5249847Y4157238D01*
G01X5246799Y4160540D01*
G01X5243751Y4166636D01*
G01X3686687Y5122376D02*
G01X3686687Y5057352D01*
G01X3686687Y5122376D02*
G01X3714627Y5122376D01*
G01X3723771Y5119328D01*
G01X3726819Y5116280D01*
G01X3730121Y5109930D01*
G01X3730121Y5103834D01*
G01X3726819Y5097738D01*
G01X3723771Y5094690D01*
G01X3714627Y5091388D01*
G01X3686687Y5091388D01*
G01X3708277Y5091388D02*
G01X3730121Y5057352D01*
G01X3791081Y5122376D02*
G01X3760347Y5079196D01*
G01X3806575Y5079196D01*
G01X3791081Y5122376D02*
G01X3791081Y5057352D01*
G01X3686687Y4901442D02*
G01X3686687Y4836418D01*
G01X3686687Y4901442D02*
G01X3714627Y4901442D01*
G01X3723771Y4898394D01*
G01X3726819Y4895346D01*
G01X3730121Y4888996D01*
G01X3730121Y4882900D01*
G01X3726819Y4876804D01*
G01X3723771Y4873756D01*
G01X3714627Y4870454D01*
G01X3686687Y4870454D01*
G01X3708277Y4870454D02*
G01X3730121Y4836418D01*
G01X3797431Y4901442D02*
G01X3766443Y4901442D01*
G01X3763395Y4873756D01*
G01X3766443Y4876804D01*
G01X3775587Y4879852D01*
G01X3784985Y4879852D01*
G01X3794383Y4876804D01*
G01X3800479Y4870454D01*
G01X3803527Y4861310D01*
G01X3803527Y4854960D01*
G01X3800479Y4845816D01*
G01X3794383Y4839466D01*
G01X3784985Y4836418D01*
G01X3775587Y4836418D01*
G01X3766443Y4839466D01*
G01X3763395Y4842768D01*
G01X3760347Y4848864D01*
G01X2388791Y4346214D02*
G01X2388791Y4281190D01*
G01X2388791Y4346214D02*
G01X2416731Y4346214D01*
G01X2425875Y4343166D01*
G01X2428923Y4340118D01*
G01X2432225Y4333768D01*
G01X2432225Y4327672D01*
G01X2428923Y4321576D01*
G01X2425875Y4318528D01*
G01X2416731Y4315226D01*
G01X2388791Y4315226D01*
G01X2410381Y4315226D02*
G01X2432225Y4281190D01*
G01X2499535Y4337070D02*
G01X2496487Y4343166D01*
G01X2487089Y4346214D01*
G01X2480993Y4346214D01*
G01X2471595Y4343166D01*
G01X2465499Y4333768D01*
G01X2462451Y4318528D01*
G01X2462451Y4303034D01*
G01X2465499Y4290588D01*
G01X2471595Y4284238D01*
G01X2480993Y4281190D01*
G01X2484041Y4281190D01*
G01X2493185Y4284238D01*
G01X2499535Y4290588D01*
G01X2502583Y4299732D01*
G01X2502583Y4303034D01*
G01X2499535Y4312178D01*
G01X2493185Y4318528D01*
G01X2484041Y4321576D01*
G01X2480993Y4321576D01*
G01X2471595Y4318528D01*
G01X2465499Y4312178D01*
G01X2462451Y4303034D01*
G01X2350691Y4117614D02*
G01X2350691Y4052590D01*
G01X2350691Y4117614D02*
G01X2378631Y4117614D01*
G01X2387775Y4114566D01*
G01X2390823Y4111518D01*
G01X2394125Y4105168D01*
G01X2394125Y4099072D01*
G01X2390823Y4092976D01*
G01X2387775Y4089928D01*
G01X2378631Y4086626D01*
G01X2350691Y4086626D01*
G01X2372281Y4086626D02*
G01X2394125Y4052590D01*
G01X2467531Y4117614D02*
G01X2436543Y4052590D01*
G01X2424351Y4117614D02*
G01X2467531Y4117614D01*
G01X6187172Y4535232D02*
G01X6187172Y4488750D01*
G01X6190220Y4479606D01*
G01X6196570Y4473256D01*
G01X6205714Y4470208D01*
G01X6212064Y4470208D01*
G01X6221208Y4473256D01*
G01X6227304Y4479606D01*
G01X6230606Y4488750D01*
G01X6230606Y4535232D01*
G01X6260832Y4522786D02*
G01X6266928Y4526088D01*
G01X6276072Y4535232D01*
G01X6276072Y4470208D01*
G01X4364684Y5101837D02*
G01X4364684Y5055355D01*
G01X4367732Y5046211D01*
G01X4374082Y5039861D01*
G01X4383226Y5036813D01*
G01X4389576Y5036813D01*
G01X4398720Y5039861D01*
G01X4404816Y5046211D01*
G01X4408118Y5055355D01*
G01X4408118Y5101837D01*
G01X4441392Y5086343D02*
G01X4441392Y5089391D01*
G01X4444440Y5095741D01*
G01X4447488Y5098789D01*
G01X4453584Y5101837D01*
G01X4466030Y5101837D01*
G01X4472380Y5098789D01*
G01X4475428Y5095741D01*
G01X4478476Y5089391D01*
G01X4478476Y5083295D01*
G01X4475428Y5077199D01*
G01X4469078Y5067801D01*
G01X4438344Y5036813D01*
G01X4481524Y5036813D01*
G01X6920197Y4823416D02*
G01X6920197Y4776934D01*
G01X6923245Y4767790D01*
G01X6929595Y4761440D01*
G01X6938739Y4758392D01*
G01X6945089Y4758392D01*
G01X6954233Y4761440D01*
G01X6960329Y4767790D01*
G01X6963631Y4776934D01*
G01X6963631Y4823416D01*
G01X6999953Y4823416D02*
G01X7033989Y4823416D01*
G01X7015447Y4798778D01*
G01X7024591Y4798778D01*
G01X7030941Y4795730D01*
G01X7033989Y4792428D01*
G01X7037037Y4783284D01*
G01X7037037Y4776934D01*
G01X7033989Y4767790D01*
G01X7027893Y4761440D01*
G01X7018495Y4758392D01*
G01X7009097Y4758392D01*
G01X6999953Y4761440D01*
G01X6996905Y4764742D01*
G01X6993857Y4770838D01*
G01X3942410Y2306630D02*
G01X3942410Y2260148D01*
G01X3945458Y2251004D01*
G01X3951808Y2244654D01*
G01X3960952Y2241606D01*
G01X3967302Y2241606D01*
G01X3976446Y2244654D01*
G01X3982542Y2251004D01*
G01X3985844Y2260148D01*
G01X3985844Y2306630D01*
G01X4046804Y2306630D02*
G01X4016070Y2263450D01*
G01X4062298Y2263450D01*
G01X4046804Y2306630D02*
G01X4046804Y2241606D01*
G01X4434775Y3633144D02*
G01X4434775Y3586662D01*
G01X4437823Y3577518D01*
G01X4444173Y3571168D01*
G01X4453317Y3568120D01*
G01X4459667Y3568120D01*
G01X4468811Y3571168D01*
G01X4474907Y3577518D01*
G01X4478209Y3586662D01*
G01X4478209Y3633144D01*
G01X4545519Y3633144D02*
G01X4514531Y3633144D01*
G01X4511483Y3605458D01*
G01X4514531Y3608506D01*
G01X4523675Y3611554D01*
G01X4533073Y3611554D01*
G01X4542471Y3608506D01*
G01X4548567Y3602156D01*
G01X4551615Y3593012D01*
G01X4551615Y3586662D01*
G01X4548567Y3577518D01*
G01X4542471Y3571168D01*
G01X4533073Y3568120D01*
G01X4523675Y3568120D01*
G01X4514531Y3571168D01*
G01X4511483Y3574470D01*
G01X4508435Y3580566D01*
G01X2242922Y5446333D02*
G01X2242922Y5399851D01*
G01X2245970Y5390707D01*
G01X2252320Y5384357D01*
G01X2261464Y5381309D01*
G01X2267814Y5381309D01*
G01X2276958Y5384357D01*
G01X2283054Y5390707D01*
G01X2286356Y5399851D01*
G01X2286356Y5446333D01*
G01X2359762Y5437189D02*
G01X2353666Y5443285D01*
G01X2344268Y5446333D01*
G01X2331822Y5446333D01*
G01X2322678Y5443285D01*
G01X2316582Y5437189D01*
G01X2316582Y5430839D01*
G01X2319630Y5424743D01*
G01X2322678Y5421695D01*
G01X2328774Y5418647D01*
G01X2347316Y5412297D01*
G01X2353666Y5409249D01*
G01X2356714Y5406201D01*
G01X2359762Y5399851D01*
G01X2359762Y5390707D01*
G01X2353666Y5384357D01*
G01X2344268Y5381309D01*
G01X2331822Y5381309D01*
G01X2322678Y5384357D01*
G01X2316582Y5390707D01*
G01X2389988Y5446333D02*
G01X2389988Y5381309D01*
G01X2389988Y5446333D02*
G01X2417674Y5446333D01*
G01X2427072Y5443285D01*
G01X2430120Y5440237D01*
G01X2433168Y5433887D01*
G01X2433168Y5427791D01*
G01X2430120Y5421695D01*
G01X2427072Y5418647D01*
G01X2417674Y5415345D01*
G01X2389988Y5415345D02*
G01X2417674Y5415345D01*
G01X2427072Y5412297D01*
G01X2430120Y5409249D01*
G01X2433168Y5403153D01*
G01X2433168Y5393755D01*
G01X2430120Y5387659D01*
G01X2427072Y5384357D01*
G01X2417674Y5381309D01*
G01X2389988Y5381309D01*
G01X2463394Y5433887D02*
G01X2469490Y5437189D01*
G01X2478634Y5446333D01*
G01X2478634Y5381309D01*
G01X4460580Y2466828D02*
G01X4504014Y2401804D01*
G01X4504014Y2466828D02*
G01X4460580Y2401804D01*
G01X4534240Y2454382D02*
G01X4540336Y2457684D01*
G01X4549480Y2466828D01*
G01X4549480Y2401804D01*
G04 Text End*

G04 PolygonModel Start*
G54D11*
G01X7540473Y4436518D02*
G01X7460475Y4436518D01*
G01X7596518Y4436472D02*
G01X7676515Y4436472D01*
G01X7540473Y4578486D02*
G01X7460475Y4578486D01*
G01X7596518Y4578438D02*
G01X7676515Y4578438D01*
G01X7429500Y4467501D02*
G01X7429500Y4547506D01*
G01X7707493Y4547452D02*
G01X7707493Y4467450D01*
G01X7676510Y4578438D02*
G02X7707493Y4547452I0J-30983D01*
G01X7707493Y4467455D02*
G02X7676510Y4436472I-30983J0D01*
G01X7460480Y4436518D02*
G02X7429500Y4467501I3J30983D01*
G01X7429500Y4547498D02*
G02X7460480Y4578486I30983J5D01*
G01X6689573Y3522500D02*
G01X6609575Y3522500D01*
G01X6745618Y3522454D02*
G01X6825615Y3522454D01*
G01X6689573Y3664468D02*
G01X6609575Y3664468D01*
G01X6745618Y3664420D02*
G01X6825615Y3664420D01*
G01X6578600Y3553483D02*
G01X6578600Y3633488D01*
G01X6856593Y3633435D02*
G01X6856593Y3553432D01*
G01X6825610Y3664420D02*
G02X6856593Y3633435I0J-30983D01*
G01X6856593Y3553437D02*
G02X6825610Y3522454I-30983J0D01*
G01X6609580Y3522500D02*
G02X6578600Y3553483I3J30983D01*
G01X6578600Y3633480D02*
G02X6609580Y3664468I30983J5D01*
G01X7563665Y4213879D02*
G01X7483668Y4213879D01*
G01X7619710Y4213834D02*
G01X7699708Y4213834D01*
G01X7563665Y4355848D02*
G01X7483668Y4355848D01*
G01X7619710Y4355799D02*
G01X7699708Y4355799D01*
G01X7452693Y4244862D02*
G01X7452693Y4324867D01*
G01X7730686Y4324814D02*
G01X7730686Y4244811D01*
G01X7699703Y4355799D02*
G02X7730686Y4324814I0J-30983D01*
G01X7730686Y4244817D02*
G02X7699703Y4213834I-30983J0D01*
G01X7483673Y4213879D02*
G02X7452693Y4244862I3J30983D01*
G01X7452693Y4324860D02*
G02X7483673Y4355848I30983J5D01*
G01X5191681Y1681643D02*
G01X5111684Y1681643D01*
G01X5247726Y1681597D02*
G01X5327724Y1681597D01*
G01X5191681Y1823611D02*
G01X5111684Y1823611D01*
G01X5247726Y1823563D02*
G01X5327724Y1823563D01*
G01X5080709Y1712625D02*
G01X5080709Y1792630D01*
G01X5358702Y1792577D02*
G01X5358702Y1712575D01*
G01X5327719Y1823563D02*
G02X5358702Y1792577I0J-30983D01*
G01X5358702Y1712580D02*
G02X5327719Y1681597I-30983J0D01*
G01X5111689Y1681643D02*
G02X5080709Y1712625I3J30983D01*
G01X5080709Y1792623D02*
G02X5111689Y1823611I30983J5D01*
G01X5328757Y2118281D02*
G01X5328757Y2038284D01*
G01X5328803Y2174326D02*
G01X5328803Y2254324D01*
G01X5186789Y2118281D02*
G01X5186789Y2038284D01*
G01X5186837Y2174326D02*
G01X5186837Y2254324D01*
G01X5297775Y2007309D02*
G01X5217770Y2007309D01*
G01X5217823Y2285302D02*
G01X5297825Y2285302D01*
G01X5186837Y2254319D02*
G02X5217823Y2285302I30983J0D01*
G01X5297820Y2285302D02*
G02X5328803Y2254319I0J-30983D01*
G01X5328757Y2038289D02*
G02X5297775Y2007309I-30983J3D01*
G01X5217777Y2007309D02*
G02X5186789Y2038289I-5J30983D01*
G01X5610781Y1592743D02*
G01X5530784Y1592743D01*
G01X5666826Y1592697D02*
G01X5746824Y1592697D01*
G01X5610781Y1734711D02*
G01X5530784Y1734711D01*
G01X5666826Y1734663D02*
G01X5746824Y1734663D01*
G01X5499809Y1623725D02*
G01X5499809Y1703730D01*
G01X5777802Y1703677D02*
G01X5777802Y1623675D01*
G01X5746819Y1734663D02*
G02X5777802Y1703677I0J-30983D01*
G01X5777802Y1623680D02*
G02X5746819Y1592697I-30983J0D01*
G01X5530789Y1592743D02*
G02X5499809Y1623725I3J30983D01*
G01X5499809Y1703723D02*
G02X5530789Y1734711I30983J5D01*
G01X5598806Y2218346D02*
G01X5518809Y2218346D01*
G01X5654852Y2218300D02*
G01X5734849Y2218300D01*
G01X5598806Y2360314D02*
G01X5518809Y2360314D01*
G01X5654852Y2360266D02*
G01X5734849Y2360266D01*
G01X5487834Y2249329D02*
G01X5487834Y2329334D01*
G01X5765827Y2329281D02*
G01X5765827Y2249278D01*
G01X5734844Y2360266D02*
G02X5765827Y2329281I0J-30983D01*
G01X5765827Y2249283D02*
G02X5734844Y2218300I-30983J0D01*
G01X5518814Y2218346D02*
G02X5487834Y2249329I3J30983D01*
G01X5487834Y2329326D02*
G02X5518814Y2360314I30983J5D01*
G01X7597892Y3736886D02*
G01X7517895Y3736886D01*
G01X7653937Y3736841D02*
G01X7733934Y3736841D01*
G01X7597892Y3878855D02*
G01X7517895Y3878855D01*
G01X7653937Y3878806D02*
G01X7733934Y3878806D01*
G01X7486919Y3767869D02*
G01X7486919Y3847874D01*
G01X7764912Y3847821D02*
G01X7764912Y3767818D01*
G01X7733929Y3878806D02*
G02X7764912Y3847821I0J-30983D01*
G01X7764912Y3767824D02*
G02X7733929Y3736841I-30983J0D01*
G01X7517900Y3736886D02*
G02X7486919Y3767869I3J30983D01*
G01X7486919Y3847867D02*
G02X7517900Y3878855I30983J5D01*
G01X6727673Y3305086D02*
G01X6647675Y3305086D01*
G01X6783718Y3305041D02*
G01X6863715Y3305041D01*
G01X6727673Y3447055D02*
G01X6647675Y3447055D01*
G01X6783718Y3447006D02*
G01X6863715Y3447006D01*
G01X6616700Y3336069D02*
G01X6616700Y3416074D01*
G01X6894693Y3416021D02*
G01X6894693Y3336018D01*
G01X6863710Y3447006D02*
G02X6894693Y3416021I0J-30983D01*
G01X6894693Y3336024D02*
G02X6863710Y3305041I-30983J0D01*
G01X6647680Y3305086D02*
G02X6616700Y3336069I3J30983D01*
G01X6616700Y3416067D02*
G02X6647680Y3447055I30983J5D01*
G01X4201081Y2761143D02*
G01X4121084Y2761143D01*
G01X4257126Y2761097D02*
G01X4337124Y2761097D01*
G01X4201081Y2903111D02*
G01X4121084Y2903111D01*
G01X4257126Y2903063D02*
G01X4337124Y2903063D01*
G01X4090109Y2792125D02*
G01X4090109Y2872130D01*
G01X4368102Y2872077D02*
G01X4368102Y2792075D01*
G01X4337119Y2903063D02*
G02X4368102Y2872077I0J-30983D01*
G01X4368102Y2792080D02*
G02X4337119Y2761097I-30983J0D01*
G01X4121089Y2761143D02*
G02X4090109Y2792125I3J30983D01*
G01X4090109Y2872123D02*
G02X4121089Y2903111I30983J5D01*
G01X3794681Y4335943D02*
G01X3714684Y4335943D01*
G01X3850726Y4335897D02*
G01X3930724Y4335897D01*
G01X3794681Y4477911D02*
G01X3714684Y4477911D01*
G01X3850726Y4477863D02*
G01X3930724Y4477863D01*
G01X3683709Y4366925D02*
G01X3683709Y4446930D01*
G01X3961702Y4446877D02*
G01X3961702Y4366875D01*
G01X3930719Y4477863D02*
G02X3961702Y4446877I0J-30983D01*
G01X3961702Y4366880D02*
G02X3930719Y4335897I-30983J0D01*
G01X3714689Y4335943D02*
G02X3683709Y4366925I3J30983D01*
G01X3683709Y4446923D02*
G02X3714689Y4477911I30983J5D01*
G01X5209051Y2847504D02*
G01X5129054Y2847504D01*
G01X5265096Y2847458D02*
G01X5345093Y2847458D01*
G01X5209051Y2989472D02*
G01X5129054Y2989472D01*
G01X5265096Y2989424D02*
G01X5345093Y2989424D01*
G01X5098078Y2878487D02*
G01X5098078Y2958492D01*
G01X5376071Y2958439D02*
G01X5376071Y2878436D01*
G01X5345088Y2989424D02*
G02X5376071Y2958439I0J-30983D01*
G01X5376071Y2878441D02*
G02X5345088Y2847458I-30983J0D01*
G01X5129059Y2847504D02*
G02X5098078Y2878487I3J30983D01*
G01X5098078Y2958484D02*
G02X5129059Y2989472I30983J5D01*
G01X5585131Y3650632D02*
G01X5505134Y3650632D01*
G01X5641176Y3650586D02*
G01X5721173Y3650586D01*
G01X5585131Y3792600D02*
G01X5505134Y3792600D01*
G01X5641176Y3792552D02*
G01X5721173Y3792552D01*
G01X5474158Y3681615D02*
G01X5474158Y3761620D01*
G01X5752151Y3761566D02*
G01X5752151Y3681564D01*
G01X5721168Y3792552D02*
G02X5752151Y3761566I0J-30983D01*
G01X5752151Y3681569D02*
G02X5721168Y3650586I-30983J0D01*
G01X5505139Y3650632D02*
G02X5474158Y3681615I3J30983D01*
G01X5474158Y3761612D02*
G02X5505139Y3792600I30983J5D01*
G01X5231738Y3650632D02*
G01X5151741Y3650632D01*
G01X5287783Y3650586D02*
G01X5367781Y3650586D01*
G01X5231738Y3792600D02*
G01X5151741Y3792600D01*
G01X5287783Y3792552D02*
G01X5367781Y3792552D01*
G01X5120766Y3681615D02*
G01X5120766Y3761620D01*
G01X5398759Y3761566D02*
G01X5398759Y3681564D01*
G01X5367776Y3792552D02*
G02X5398759Y3761566I0J-30983D01*
G01X5398759Y3681569D02*
G02X5367776Y3650586I-30983J0D01*
G01X5151746Y3650632D02*
G02X5120766Y3681615I3J30983D01*
G01X5120766Y3761612D02*
G02X5151746Y3792600I30983J5D01*
G01X3770113Y5212732D02*
G01X3690116Y5212732D01*
G01X3826158Y5212686D02*
G01X3906156Y5212686D01*
G01X3770113Y5354700D02*
G01X3690116Y5354700D01*
G01X3826158Y5354652D02*
G01X3906156Y5354652D01*
G01X3659141Y5243715D02*
G01X3659141Y5323720D01*
G01X3937133Y5323666D02*
G01X3937133Y5243664D01*
G01X3906150Y5354652D02*
G02X3937133Y5323666I0J-30983D01*
G01X3937133Y5243669D02*
G02X3906150Y5212686I-30983J0D01*
G01X3690121Y5212732D02*
G02X3659141Y5243715I3J30983D01*
G01X3659141Y5323712D02*
G02X3690121Y5354700I30983J5D01*
G01X4123506Y5212732D02*
G01X4043509Y5212732D01*
G01X4179551Y5212686D02*
G01X4259548Y5212686D01*
G01X4123506Y5354700D02*
G01X4043509Y5354700D01*
G01X4179551Y5354652D02*
G01X4259548Y5354652D01*
G01X4012533Y5243715D02*
G01X4012533Y5323720D01*
G01X4290526Y5323666D02*
G01X4290526Y5243664D01*
G01X4259543Y5354652D02*
G02X4290526Y5323666I0J-30983D01*
G01X4290526Y5243669D02*
G02X4259543Y5212686I-30983J0D01*
G01X4043514Y5212732D02*
G02X4012533Y5243715I3J30983D01*
G01X4012533Y5323712D02*
G02X4043514Y5354700I30983J5D01*
G01X4476899Y5212732D02*
G01X4396901Y5212732D01*
G01X4532944Y5212686D02*
G01X4612941Y5212686D01*
G01X4476899Y5354700D02*
G01X4396901Y5354700D01*
G01X4532944Y5354652D02*
G01X4612941Y5354652D01*
G01X4365926Y5243715D02*
G01X4365926Y5323720D01*
G01X4643919Y5323666D02*
G01X4643919Y5243664D01*
G01X4612936Y5354652D02*
G02X4643919Y5323666I0J-30983D01*
G01X4643919Y5243669D02*
G02X4612936Y5212686I-30983J0D01*
G01X4396906Y5212732D02*
G02X4365926Y5243715I3J30983D01*
G01X4365926Y5323712D02*
G02X4396906Y5354700I30983J5D01*
G01X4830291Y5212732D02*
G01X4750294Y5212732D01*
G01X4886336Y5212686D02*
G01X4966334Y5212686D01*
G01X4830291Y5354700D02*
G01X4750294Y5354700D01*
G01X4886336Y5354652D02*
G01X4966334Y5354652D01*
G01X4719319Y5243715D02*
G01X4719319Y5323720D01*
G01X4997312Y5323666D02*
G01X4997312Y5243664D01*
G01X4966329Y5354652D02*
G02X4997312Y5323666I0J-30983D01*
G01X4997312Y5243669D02*
G02X4966329Y5212686I-30983J0D01*
G01X4750299Y5212732D02*
G02X4719319Y5243715I3J30983D01*
G01X4719319Y5323712D02*
G02X4750299Y5354700I30983J5D01*
G01X5183684Y5212732D02*
G01X5103687Y5212732D01*
G01X5239729Y5212686D02*
G01X5319726Y5212686D01*
G01X5183684Y5354700D02*
G01X5103687Y5354700D01*
G01X5239729Y5354652D02*
G01X5319726Y5354652D01*
G01X5072711Y5243715D02*
G01X5072711Y5323720D01*
G01X5350704Y5323666D02*
G01X5350704Y5243664D01*
G01X5319721Y5354652D02*
G02X5350704Y5323666I0J-30983D01*
G01X5350704Y5243669D02*
G02X5319721Y5212686I-30983J0D01*
G01X5103692Y5212732D02*
G02X5072711Y5243715I3J30983D01*
G01X5072711Y5323712D02*
G02X5103692Y5354700I30983J5D01*
G01X5537077Y5212732D02*
G01X5457080Y5212732D01*
G01X5593122Y5212686D02*
G01X5673119Y5212686D01*
G01X5537077Y5354700D02*
G01X5457080Y5354700D01*
G01X5593122Y5354652D02*
G01X5673119Y5354652D01*
G01X5426104Y5243715D02*
G01X5426104Y5323720D01*
G01X5704097Y5323666D02*
G01X5704097Y5243664D01*
G01X5673114Y5354652D02*
G02X5704097Y5323666I0J-30983D01*
G01X5704097Y5243669D02*
G02X5673114Y5212686I-30983J0D01*
G01X5457085Y5212732D02*
G02X5426104Y5243715I3J30983D01*
G01X5426104Y5323712D02*
G02X5457085Y5354700I30983J5D01*
G01X6011897Y5212732D02*
G01X5931899Y5212732D01*
G01X6067942Y5212686D02*
G01X6147939Y5212686D01*
G01X6011897Y5354700D02*
G01X5931899Y5354700D01*
G01X6067942Y5354652D02*
G01X6147939Y5354652D01*
G01X5900924Y5243715D02*
G01X5900924Y5323720D01*
G01X6178917Y5323666D02*
G01X6178917Y5243664D01*
G01X6147934Y5354652D02*
G02X6178917Y5323666I0J-30983D01*
G01X6178917Y5243669D02*
G02X6147934Y5212686I-30983J0D01*
G01X5931905Y5212732D02*
G02X5900924Y5243715I3J30983D01*
G01X5900924Y5323712D02*
G02X5931905Y5354700I30983J5D01*
G01X6743544Y2976018D02*
G01X6663546Y2976018D01*
G01X6799589Y2975972D02*
G01X6879586Y2975972D01*
G01X6743544Y3117986D02*
G01X6663546Y3117986D01*
G01X6799589Y3117938D02*
G01X6879586Y3117938D01*
G01X6632571Y3007001D02*
G01X6632571Y3087006D01*
G01X6910564Y3086952D02*
G01X6910564Y3006950D01*
G01X6879581Y3117938D02*
G02X6910564Y3086952I0J-30983D01*
G01X6910564Y3006955D02*
G02X6879581Y2975972I-30983J0D01*
G01X6663552Y2976018D02*
G02X6632571Y3007001I3J30983D01*
G01X6632571Y3086998D02*
G02X6663552Y3117986I30983J5D01*
G01X4594781Y1338743D02*
G01X4514784Y1338743D01*
G01X4650826Y1338697D02*
G01X4730824Y1338697D01*
G01X4594781Y1480711D02*
G01X4514784Y1480711D01*
G01X4650826Y1480663D02*
G01X4730824Y1480663D01*
G01X4483809Y1369725D02*
G01X4483809Y1449730D01*
G01X4761802Y1449677D02*
G01X4761802Y1369675D01*
G01X4730819Y1480663D02*
G02X4761802Y1449677I0J-30983D01*
G01X4761802Y1369680D02*
G02X4730819Y1338697I-30983J0D01*
G01X4514789Y1338743D02*
G02X4483809Y1369725I3J30983D01*
G01X4483809Y1449723D02*
G02X4514789Y1480711I30983J5D01*
G01X4188381Y1376843D02*
G01X4108384Y1376843D01*
G01X4244426Y1376797D02*
G01X4324424Y1376797D01*
G01X4188381Y1518811D02*
G01X4108384Y1518811D01*
G01X4244426Y1518763D02*
G01X4324424Y1518763D01*
G01X4077409Y1407825D02*
G01X4077409Y1487830D01*
G01X4355402Y1487777D02*
G01X4355402Y1407775D01*
G01X4324419Y1518763D02*
G02X4355402Y1487777I0J-30983D01*
G01X4355402Y1407780D02*
G02X4324419Y1376797I-30983J0D01*
G01X4108389Y1376843D02*
G02X4077409Y1407825I3J30983D01*
G01X4077409Y1487823D02*
G02X4108389Y1518811I30983J5D01*
G01X5217081Y3129443D02*
G01X5137084Y3129443D01*
G01X5273126Y3129397D02*
G01X5353124Y3129397D01*
G01X5217081Y3271411D02*
G01X5137084Y3271411D01*
G01X5273126Y3271363D02*
G01X5353124Y3271363D01*
G01X5106109Y3160425D02*
G01X5106109Y3240430D01*
G01X5384102Y3240377D02*
G01X5384102Y3160375D01*
G01X5353119Y3271363D02*
G02X5384102Y3240377I0J-30983D01*
G01X5384102Y3160380D02*
G02X5353119Y3129397I-30983J0D01*
G01X5137089Y3129443D02*
G02X5106109Y3160425I3J30983D01*
G01X5106109Y3240423D02*
G02X5137089Y3271411I30983J5D01*
G54D10*
G01X7467600Y3986164D02*
G01X7452190Y4001399D01*
G01X7452190Y4001399D02*
G01X7452190Y4103042D01*
G01X7452190Y4103042D02*
G01X7467600Y4116299D01*
G01X7721600Y4116299D02*
G01X7737015Y4101198D01*
G01X7737015Y4101198D02*
G01X7737015Y3999555D01*
G01X7737015Y3999555D02*
G01X7721600Y3986299D01*
G54D12*
G01X7467399Y4116299D02*
G01X7543599Y4116299D01*
G01X7721806Y3986299D02*
G01X7645606Y3986299D01*
G01X7467399Y3986299D02*
G01X7543599Y3986299D01*
G01X7721806Y4116299D02*
G01X7645606Y4116299D01*
G54D13*
G01X6746601Y3898900D02*
G01X6766992Y3898859D01*
G01X6766992Y3898859D02*
G01X6766992Y4024843D01*
G01X6766992Y4024843D02*
G01X6744099Y4024899D01*
G01X6539601Y4023881D02*
G01X6517102Y4024379D01*
G01X6517102Y4024379D02*
G01X6517102Y3899380D01*
G01X6517102Y3899380D02*
G01X6539100Y3899380D01*
G36*
G01X6582100Y3982400D02*
G01X6632100Y3982400D01*
G01X6632100Y3942400D01*
G01X6582100Y3942400D01*
G01X6582100Y3982400D01*
G37*
G54D10*
G01X5473700Y1890664D02*
G01X5458290Y1905899D01*
G01X5458290Y1905899D02*
G01X5458290Y2007542D01*
G01X5458290Y2007542D02*
G01X5473700Y2020799D01*
G01X5727700Y2020799D02*
G01X5743115Y2005698D01*
G01X5743115Y2005698D02*
G01X5743115Y1904055D01*
G01X5743115Y1904055D02*
G01X5727700Y1890799D01*
G54D12*
G01X5473499Y2020799D02*
G01X5549699Y2020799D01*
G01X5727906Y1890799D02*
G01X5651706Y1890799D01*
G01X5473499Y1890799D02*
G01X5549699Y1890799D01*
G01X5727906Y2020799D02*
G01X5651706Y2020799D01*
G54D10*
G01X6570210Y4390408D02*
G01X6554800Y4405643D01*
G01X6554800Y4405643D02*
G01X6554800Y4507286D01*
G01X6554800Y4507286D02*
G01X6570210Y4520542D01*
G01X6824210Y4520542D02*
G01X6839626Y4505442D01*
G01X6839626Y4505442D02*
G01X6839626Y4403799D01*
G01X6839626Y4403799D02*
G01X6824210Y4390543D01*
G54D12*
G01X6570010Y4520542D02*
G01X6646210Y4520542D01*
G01X6824416Y4390543D02*
G01X6748216Y4390543D01*
G01X6570010Y4390543D02*
G01X6646210Y4390543D01*
G01X6824416Y4520542D02*
G01X6748216Y4520542D01*
G54D10*
G01X2870213Y4089400D02*
G01X2791203Y4089400D01*
G01X2791203Y4089400D02*
G01X2775961Y4104637D01*
G01X2775961Y4104637D02*
G01X2775961Y4173878D01*
G01X2775961Y4173878D02*
G01X2791203Y4189115D01*
G01X2791203Y4189115D02*
G01X2870213Y4189115D01*
G01X2895613Y4089400D02*
G01X2974607Y4089400D01*
G01X2974607Y4089400D02*
G01X2989847Y4104640D01*
G01X2989847Y4104640D02*
G01X2989847Y4172966D01*
G01X2989847Y4172966D02*
G01X2973591Y4189222D01*
G01X2973591Y4189222D02*
G01X2895613Y4189222D01*
G01X6720860Y4843221D02*
G01X6720860Y4939109D01*
G01X6720860Y4939109D02*
G01X6588740Y4939109D01*
G01X6588740Y4939109D02*
G01X6588740Y4843221D01*
G01X6720860Y4757979D02*
G01X6720860Y4662091D01*
G01X6720860Y4662091D02*
G01X6588740Y4662091D01*
G01X6588740Y4662091D02*
G01X6588740Y4757979D01*
G01X4297121Y2410440D02*
G01X4393009Y2410440D01*
G01X4393009Y2410440D02*
G01X4393009Y2542560D01*
G01X4393009Y2542560D02*
G01X4297121Y2542560D01*
G01X4211879Y2410440D02*
G01X4115991Y2410440D01*
G01X4115991Y2410440D02*
G01X4115991Y2542560D01*
G01X4115991Y2542560D02*
G01X4211879Y2542560D01*
G01X5351221Y3972540D02*
G01X5447109Y3972540D01*
G01X5447109Y3972540D02*
G01X5447109Y4104660D01*
G01X5447109Y4104660D02*
G01X5351221Y4104660D01*
G01X5265979Y3972540D02*
G01X5170091Y3972540D01*
G01X5170091Y3972540D02*
G01X5170091Y4104660D01*
G01X5170091Y4104660D02*
G01X5265979Y4104660D01*
G01X3867817Y4875702D02*
G01X3963704Y4875702D01*
G01X3963704Y4875702D02*
G01X3963704Y5007822D01*
G01X3963704Y5007822D02*
G01X3867817Y5007822D01*
G01X3782574Y4875702D02*
G01X3686687Y4875702D01*
G01X3686687Y4875702D02*
G01X3686687Y5007822D01*
G01X3686687Y5007822D02*
G01X3782574Y5007822D01*
G01X3867817Y4654767D02*
G01X3963704Y4654767D01*
G01X3963704Y4654767D02*
G01X3963704Y4786888D01*
G01X3963704Y4786888D02*
G01X3867817Y4786888D01*
G01X3782574Y4654767D02*
G01X3686687Y4654767D01*
G01X3686687Y4654767D02*
G01X3686687Y4786888D01*
G01X3686687Y4786888D02*
G01X3782574Y4786888D01*
G01X2569921Y4099540D02*
G01X2665809Y4099540D01*
G01X2665809Y4099540D02*
G01X2665809Y4231660D01*
G01X2665809Y4231660D02*
G01X2569921Y4231660D01*
G01X2484679Y4099540D02*
G01X2388791Y4099540D01*
G01X2388791Y4099540D02*
G01X2388791Y4231660D01*
G01X2388791Y4231660D02*
G01X2484679Y4231660D01*
G01X2531821Y3870940D02*
G01X2627709Y3870940D01*
G01X2627709Y3870940D02*
G01X2627709Y4003060D01*
G01X2627709Y4003060D02*
G01X2531821Y4003060D01*
G01X2446579Y3870940D02*
G01X2350691Y3870940D01*
G01X2350691Y3870940D02*
G01X2350691Y4003060D01*
G01X2350691Y4003060D02*
G01X2446579Y4003060D01*
G01X6444920Y4235181D02*
G01X6444920Y4375419D01*
G01X6229680Y4235181D02*
G01X6229680Y4375419D01*
G01X5066290Y4978273D02*
G01X5133661Y4978273D01*
G01X5133661Y4978273D02*
G01X5133661Y4910902D01*
G01X5066290Y4263030D02*
G01X5133661Y4263030D01*
G01X5133661Y4263030D02*
G01X5133661Y4330398D01*
G01X4485786Y4978273D02*
G01X4418418Y4978273D01*
G01X4418418Y4978273D02*
G01X4418418Y4910902D01*
G01X4485786Y4263030D02*
G01X4418418Y4263030D01*
G01X4418418Y4263030D02*
G01X4418418Y4330398D01*
G01X6929211Y4650277D02*
G01X6929211Y4699847D01*
G01X6929211Y4699847D02*
G01X6978782Y4699847D01*
G01X7344451Y4650277D02*
G01X7344451Y4699847D01*
G01X7344451Y4699847D02*
G01X7294880Y4699847D01*
G01X6929211Y4334179D02*
G01X6929211Y4284608D01*
G01X6929211Y4284608D02*
G01X6978782Y4284608D01*
G01X7344451Y4334179D02*
G01X7344451Y4284608D01*
G01X7344451Y4284608D02*
G01X7294880Y4284608D01*
G54D11*
G01X4024795Y1876994D02*
G01X4204797Y1876994D01*
G01X4024795Y1991992D02*
G01X4024795Y2071995D01*
G01X4024795Y2186996D02*
G01X4204797Y2186996D01*
G54D10*
G01X4460530Y2843060D02*
G01X4460530Y3278340D01*
G01X4460530Y3278340D02*
G01X4988270Y3278340D01*
G01X4988270Y3278340D02*
G01X4988270Y2843060D01*
G01X4988270Y2843060D02*
G01X4460530Y2843060D01*
G54D11*
G01X2270801Y4911057D02*
G01X2270801Y5102746D01*
G01X2270801Y4550402D02*
G01X2270801Y4707750D01*
G01X3164799Y4911057D02*
G01X3164799Y5102746D01*
G01X3164799Y4550402D02*
G01X3164799Y4707745D01*
G01X2270801Y4550402D02*
G01X3164799Y4550402D01*
G54D10*
G01X4483440Y2016552D02*
G01X4483440Y2352274D01*
G01X4483440Y2352274D02*
G01X4889160Y2352274D01*
G01X4889160Y2352274D02*
G01X4889160Y2016552D01*
G01X4889160Y2016552D02*
G01X4483440Y2016552D01*
G01X4460580Y2159411D02*
G01X4460580Y1993692D01*
G01X4460580Y1993692D02*
G01X4646300Y1993692D01*

G04 Circle Start*
G54D14*
G01X6194552Y4206062D02*
G03X6224575Y4206062I15011J0D01*
G03X6194552Y4206062I-15011J0D01*
G54D13*
G01X4364565Y4880651D02*
G03X4379551Y4880651I7493J0D01*
G03X4364565Y4880651I-7493J0D01*
G01X7004345Y4246473D02*
G03X7019331Y4246473I7493J0D01*
G03X7004345Y4246473I-7493J0D01*
G54D11*
G01X4254487Y1866887D02*
G03X4279887Y1866887I12700J0D01*
G03X4254487Y1866887I-12700J0D01*
G54D14*
G01X4518889Y2918308D02*
G03X4548911Y2918308I15011J0D01*
G03X4518889Y2918308I-15011J0D01*
G01X4442155Y2707691D02*
G03X4472178Y2707691I15011J0D01*
G03X4442155Y2707691I-15011J0D01*
G04 Circle End*

M02*

