G04 Layer: BottomLayer*
G04 EasyEDA Pro v3.2.149, 2026-09-20 15:54:07*
G04 Gerber Generator version 0.3*
G04 Scale: 100 percent, Rotated: No, Reflected: No*
G04 Dimensions in millimeters*
G04 Leading zeros omitted, absolute positions, 4 integers and 5 decimals*
G04 Generated by one-click*
G04 Object Configs: Pad,Via,Track,Text,Image,Dimension,BoardOutline,BoardCutout,CopperFilled,SolidRegion,FPCStiffener,Line,PlaneZone,ComponentProperty,ComponentSilkscreen,TearDrop*
G04 Layer Configs: 1,2,3,4,5,6,7,8,9,10,11,13,14,56*
G04 Copper Areas: 0*
%FSLAX45Y45*%
%MOMM*%
%ADD10O,1.0X2.1*%
%ADD11O,1.0X1.6*%
%ADD12C,0.61*%
%ADD13C,0.6096*%
%ADD14C,0.25201*%
%ADD15C,0.254*%
%ADD16C,0.18*%
%ADD17C,0.2342*%
%ADD18C,0.22501*%
G75*


G04 Pad Start*
G54D10*
G01X2285302Y5229403D03*
G01X3150299Y5229403D03*
G54D11*
G01X2285314Y4809404D03*
G01X3150299Y4809401D03*
G04 Pad End*

G04 Via Start*
G54D12*
G01X7429185Y4416441D03*
G01X7378385Y4187842D03*
G01X5880098Y4110802D03*
G01X5270499Y2358206D03*
G01X4956030Y5079840D03*
G01X5032230Y4063842D03*
G01X5083030Y3124044D03*
G01X4636041Y5062990D03*
G01X4915440Y4123192D03*
G01X4752240Y5054440D03*
G01X4853840Y3962242D03*
G01X4825240Y5079840D03*
G01X4012442Y4952840D03*
G01X4179452Y4825840D03*
G01X4052452Y4724240D03*
G01X4490651Y4114642D03*
G01X4559301Y3918992D03*
G01X4589051Y4360341D03*
G01X4660901Y4034492D03*
G01X4519831Y4876640D03*
G01X4773830Y3200244D03*
G01X4378231Y4089242D03*
G01X4657631Y3200244D03*
G01X4533901Y3665913D03*
G01X3365503Y5266110D03*
G01X6667087Y3950692D03*
G01X6861336Y4458691D03*
G01X6516287Y4077692D03*
G01X6795686Y4357091D03*
G01X6844486Y3681443D03*
G01X6844486Y3503643D03*
G01X6327427Y4760050D03*
G01X6860826Y4591821D03*
G01X7327585Y4668021D03*
G01X6768787Y4718821D03*
G01X6225828Y4829240D03*
G01X7114826Y4803840D03*
G01X7389645Y4275021D03*
G01X6503897Y4542602D03*
G01X6554697Y4745801D03*
G01X5538699Y3577403D03*
G01X6221498Y4149082D03*
G01X6961046Y4298531D03*
G01X7402435Y4568021D03*
G01X6221498Y4363901D03*
G01X5893718Y5275879D03*
G01X5080920Y5021880D03*
G01X6754196Y4095202D03*
G01X6647587Y3683794D03*
G01X5175150Y3340593D03*
G01X5175150Y3124254D03*
G54D13*
G01X4876044Y4620631D03*
G01X4876044Y4720631D03*
G01X4676070Y4620656D03*
G01X4676070Y4720631D03*
G01X4876044Y4520631D03*
G01X4676045Y4520631D03*
G01X4776045Y4620631D03*
G01X4776095Y4520682D03*
G01X4776045Y4720631D03*
G04 Via End*

G04 Track Start*
G54D14*
G01X7429185Y4416441D02*
G01X7327585Y4314841D01*
G01X7327585Y4238642D01*
G01X7378385Y4187842D01*
G54D15*
G01X5880098Y4110802D02*
G01X5270499Y3501204D01*
G01X5270499Y2358206D01*
G54D16*
G01X4956030Y5079840D02*
G01X4956030Y4902040D01*
G01X5032230Y4825840D01*
G01X5032230Y4063842D01*
G54D15*
G01X5032230Y4063842D02*
G01X5032230Y3174844D01*
G01X5083030Y3124044D01*
G54D16*
G01X4636041Y5062990D02*
G01X4940840Y4758190D01*
G01X4940840Y4148592D01*
G01X4915440Y4123192D01*
G01X4752240Y5054440D02*
G01X4980840Y4825840D01*
G01X4980840Y4089242D01*
G01X4853840Y3962242D01*
G01X4825240Y5079840D02*
G01X4774441Y5130640D01*
G01X4190242Y5130640D01*
G01X4012442Y4952840D01*
G01X4179452Y4825840D02*
G01X4154052Y4825840D01*
G01X4052452Y4724240D01*
G01X4490651Y4114642D02*
G01X4490651Y3987642D01*
G01X4559301Y3918992D01*
G01X4589051Y4360341D02*
G01X4589051Y4106342D01*
G01X4660901Y4034492D01*
G01X4519831Y4876640D02*
G01X4519831Y4597241D01*
G01X4773830Y4343241D01*
G01X4773830Y3200244D01*
G01X4378231Y4089242D02*
G01X4378231Y4013042D01*
G01X4657631Y3733643D01*
G01X4657631Y3200244D01*
G54D15*
G01X4533901Y3665913D02*
G01X3365503Y4834311D01*
G01X3365503Y5266110D01*
G54D18*
G01X6667087Y3950692D02*
G01X6667087Y4103092D01*
G01X6886736Y4322741D01*
G01X6886736Y4433291D01*
G01X6861336Y4458691D01*
G01X6516287Y4077692D02*
G01X6795686Y4357091D01*
G54D14*
G01X6844486Y3681443D02*
G01X6844486Y3503643D01*
G54D16*
G01X6327427Y4760050D02*
G01X6378227Y4810850D01*
G01X6581427Y4810850D01*
G01X6800456Y4591821D01*
G01X6860826Y4591821D01*
G54D14*
G01X7327585Y4668021D02*
G01X6819586Y4668021D01*
G01X6768787Y4718821D01*
G54D16*
G01X6225828Y4829240D02*
G01X6251228Y4854640D01*
G01X6911626Y4854640D01*
G01X6962426Y4803840D01*
G01X7114826Y4803840D01*
G54D14*
G01X7114826Y4803840D02*
G01X7292625Y4803840D01*
G01X7567445Y4529021D01*
G01X7567445Y4452821D01*
G01X7389645Y4275021D01*
G54D15*
G01X6503897Y4542602D02*
G01X6503897Y4695001D01*
G01X6554697Y4745801D01*
G01X6503897Y4542602D02*
G01X5538699Y3577403D01*
G54D14*
G01X6221498Y4149082D02*
G01X6602497Y4530081D01*
G01X6881896Y4530081D01*
G01X7008896Y4403081D01*
G01X7008896Y4346381D01*
G01X6961046Y4298531D01*
G01X7008896Y4403081D02*
G01X7161296Y4403081D01*
G01X7326235Y4568021D01*
G01X7402435Y4568021D01*
G54D15*
G01X6221498Y4363901D02*
G01X6221498Y4563901D01*
G01X5969918Y4815480D01*
G01X5969918Y5199680D01*
G01X5893718Y5275879D01*
G54D16*
G01X5969918Y4971080D02*
G01X5131720Y4971080D01*
G01X5080920Y5021880D01*
G54D15*
G01X6754196Y4095202D02*
G01X6754196Y3790403D01*
G01X6647587Y3683794D01*
G01X5175150Y3340593D02*
G01X5175150Y3124254D01*
G04 Track End*

M02*

