G04 Layer: DrillDrawingLayer*
G04 EasyEDA Pro v3.2.149, 2026-09-20 15:54:07*
G04 Gerber Generator version 0.3*
G04 Scale: 100 percent, Rotated: No, Reflected: No*
G04 Dimensions in millimeters*
G04 Leading zeros omitted, absolute positions, 4 integers and 5 decimals*
G04 Generated by one-click*
G04 Object Configs: Pad,Via,Track,Text,Image,Dimension,BoardOutline,BoardCutout,CopperFilled,SolidRegion,FPCStiffener,Line,PlaneZone,ComponentProperty,ComponentSilkscreen,TearDrop*
G04 Layer Configs: 1,2,3,4,5,6,7,8,9,10,11,13,14,56*
G04 Copper Areas: 0*
%FSLAX45Y45*%
%MOMM*%
%AMIconRect*4,1,4,0.28,-0.28,-0.28,-0.28,-0.28,0.28,0.28,0.28,0.28,-0.28,0*4,0,4,0.233333,-0.233333,0.233333,0.233333,-0.233333,0.233333,-0.233333,-0.233333,0.233333,-0.233333,0*%
%AMIconTriangle*4,1,3,-0.339593,0.240473,0.339593,0.240473,0,-0.37884,-0.339593,0.240473,0*4,0,3,-0.265673,0.19404,0,-0.27342,0.266233,0.19404,-0.265673,0.19404,0*%
%AMIconStar6*4,1,12,0.12068,0.20888,0.298527,0.172713,0.241313,0,0.298527,-0.17206,0.12068,-0.208227,0,-0.344073,-0.120073,-0.208227,-0.298573,-0.17206,-0.240707,0,-0.298573,0.17206,-0.120073,0.20888,0,0.344073,0.12068,0.20888,0*4,0,12,-0.000467,0.273467,-0.090067,0.171733,-0.237533,0.136733,-0.193667,-0.007467,-0.237533,-0.1372,-0.090067,-0.171733,-0.000467,-0.273933,0.090067,-0.171733,0.237533,-0.1372,0.194133,0.007,0.237533,0.1372,0.090067,0.171267,-0.000467,0.273467,0*%
%ADD10IconRect*%
%ADD11C,0.616X0.522667*%
%ADD12IconTriangle*%
%ADD13IconStar6*%
%ADD14C,0.2032*%
%ADD15C,0.254*%
G75*


G04 Drill Drawing Start*
G54D10*
G01X2285307Y5229398D03*
G01X3150304Y5229403D03*
G54D11*
G01X2285304Y4809411D03*
G01X3150288Y4809414D03*
G54D12*
G01X2428799Y5178389D03*
G01X3006801Y5178389D03*
G54D13*
G01X3365503Y5266110D03*
G01X4012442Y4952840D03*
G01X4052452Y4724240D03*
G01X4179452Y4825840D03*
G01X4378231Y4089242D03*
G01X4490651Y4114642D03*
G01X4519831Y4876640D03*
G01X4533901Y3665913D03*
G01X4559301Y3918992D03*
G01X4589051Y4360341D03*
G01X4636041Y5062990D03*
G01X4657631Y3200244D03*
G01X4660901Y4034492D03*
G01X4676045Y4520631D03*
G01X4676070Y4620656D03*
G01X4676070Y4720631D03*
G01X4752240Y5054440D03*
G01X4773830Y3200244D03*
G01X4776045Y4620631D03*
G01X4776045Y4720631D03*
G01X4776095Y4520682D03*
G01X4825240Y5079840D03*
G01X4853840Y3962242D03*
G01X4876044Y4520631D03*
G01X4876044Y4620631D03*
G01X4876044Y4720631D03*
G01X4915440Y4123192D03*
G01X4956030Y5079840D03*
G01X5032230Y4063842D03*
G01X5080920Y5021880D03*
G01X5083030Y3124044D03*
G01X5175150Y3124254D03*
G01X5175150Y3340593D03*
G01X5270499Y2358206D03*
G01X5538699Y3577403D03*
G01X5880098Y4110802D03*
G01X5893718Y5275879D03*
G01X6221498Y4149082D03*
G01X6221498Y4363901D03*
G01X6225828Y4829240D03*
G01X6327427Y4760050D03*
G01X6503897Y4542602D03*
G01X6516287Y4077692D03*
G01X6554697Y4745801D03*
G01X6647587Y3683794D03*
G01X6667087Y3950692D03*
G01X6754196Y4095202D03*
G01X6768787Y4718821D03*
G01X6795686Y4357091D03*
G01X6844486Y3503643D03*
G01X6844486Y3681443D03*
G01X6860826Y4591821D03*
G01X6861336Y4458691D03*
G01X6961046Y4298531D03*
G01X7114826Y4803840D03*
G01X7327585Y4668021D03*
G01X7378385Y4187842D03*
G01X7389645Y4275021D03*
G01X7402435Y4568021D03*
G01X7429185Y4416441D03*
G04 Drill Drawing End*

G04 Text Start*
G54D14*
G01X10999946Y5963194D02*
G01X10999946Y5843052D01*
G01X10999946Y5963194D02*
G01X11045666Y5843052D01*
G01X11091386Y5963194D02*
G01X11045666Y5843052D01*
G01X11091386Y5963194D02*
G01X11091386Y5843052D01*
G01X11207718Y5923062D02*
G01X11207718Y5843052D01*
G01X11207718Y5906044D02*
G01X11196288Y5917474D01*
G01X11184858Y5923062D01*
G01X11167840Y5923062D01*
G01X11156410Y5917474D01*
G01X11144980Y5906044D01*
G01X11139138Y5888772D01*
G01X11139138Y5877342D01*
G01X11144980Y5860324D01*
G01X11156410Y5848894D01*
G01X11167840Y5843052D01*
G01X11184858Y5843052D01*
G01X11196288Y5848894D01*
G01X11207718Y5860324D01*
G01X11255470Y5923062D02*
G01X11255470Y5843052D01*
G01X11255470Y5888772D02*
G01X11261312Y5906044D01*
G01X11272742Y5917474D01*
G01X11284172Y5923062D01*
G01X11301190Y5923062D01*
G01X11348942Y5963194D02*
G01X11348942Y5843052D01*
G01X11406092Y5923062D02*
G01X11348942Y5865912D01*
G01X11371802Y5888772D02*
G01X11411934Y5843052D01*
G01X12537226Y5934492D02*
G01X12531384Y5945922D01*
G01X12519954Y5957352D01*
G01X12508524Y5963194D01*
G01X12485664Y5963194D01*
G01X12474234Y5957352D01*
G01X12462804Y5945922D01*
G01X12457216Y5934492D01*
G01X12451374Y5917474D01*
G01X12451374Y5888772D01*
G01X12457216Y5871754D01*
G01X12462804Y5860324D01*
G01X12474234Y5848894D01*
G01X12485664Y5843052D01*
G01X12508524Y5843052D01*
G01X12519954Y5848894D01*
G01X12531384Y5860324D01*
G01X12537226Y5871754D01*
G01X12613680Y5923062D02*
G01X12602250Y5917474D01*
G01X12590820Y5906044D01*
G01X12584978Y5888772D01*
G01X12584978Y5877342D01*
G01X12590820Y5860324D01*
G01X12602250Y5848894D01*
G01X12613680Y5843052D01*
G01X12630698Y5843052D01*
G01X12642128Y5848894D01*
G01X12653558Y5860324D01*
G01X12659400Y5877342D01*
G01X12659400Y5888772D01*
G01X12653558Y5906044D01*
G01X12642128Y5917474D01*
G01X12630698Y5923062D01*
G01X12613680Y5923062D01*
G01X12707152Y5923062D02*
G01X12707152Y5865912D01*
G01X12712994Y5848894D01*
G01X12724424Y5843052D01*
G01X12741442Y5843052D01*
G01X12752872Y5848894D01*
G01X12770144Y5865912D01*
G01X12770144Y5923062D02*
G01X12770144Y5843052D01*
G01X12817896Y5923062D02*
G01X12817896Y5843052D01*
G01X12817896Y5900202D02*
G01X12835168Y5917474D01*
G01X12846598Y5923062D01*
G01X12863616Y5923062D01*
G01X12875046Y5917474D01*
G01X12880888Y5900202D01*
G01X12880888Y5843052D01*
G01X12945912Y5963194D02*
G01X12945912Y5865912D01*
G01X12951500Y5848894D01*
G01X12962930Y5843052D01*
G01X12974360Y5843052D01*
G01X12928640Y5923062D02*
G01X12968772Y5923062D01*
G01X13945547Y5945922D02*
G01X13934117Y5957352D01*
G01X13917099Y5963194D01*
G01X13894239Y5963194D01*
G01X13876967Y5957352D01*
G01X13865537Y5945922D01*
G01X13865537Y5934492D01*
G01X13871379Y5923062D01*
G01X13876967Y5917474D01*
G01X13888397Y5911632D01*
G01X13922687Y5900202D01*
G01X13934117Y5894614D01*
G01X13939959Y5888772D01*
G01X13945547Y5877342D01*
G01X13945547Y5860324D01*
G01X13934117Y5848894D01*
G01X13917099Y5843052D01*
G01X13894239Y5843052D01*
G01X13876967Y5848894D01*
G01X13865537Y5860324D01*
G01X13993299Y5963194D02*
G01X13999141Y5957352D01*
G01X14004729Y5963194D01*
G01X13999141Y5968782D01*
G01X13993299Y5963194D01*
G01X13999141Y5923062D02*
G01X13999141Y5843052D01*
G01X14115473Y5923062D02*
G01X14052481Y5843052D01*
G01X14052481Y5923062D02*
G01X14115473Y5923062D01*
G01X14052481Y5843052D02*
G01X14115473Y5843052D01*
G01X14163225Y5888772D02*
G01X14231805Y5888772D01*
G01X14231805Y5900202D01*
G01X14226217Y5911632D01*
G01X14220375Y5917474D01*
G01X14208945Y5923062D01*
G01X14191927Y5923062D01*
G01X14180497Y5917474D01*
G01X14169067Y5906044D01*
G01X14163225Y5888772D01*
G01X14163225Y5877342D01*
G01X14169067Y5860324D01*
G01X14180497Y5848894D01*
G01X14191927Y5843052D01*
G01X14208945Y5843052D01*
G01X14220375Y5848894D01*
G01X14231805Y5860324D01*
G01X17651045Y5963194D02*
G01X17651045Y5843052D01*
G01X17651045Y5963194D02*
G01X17702607Y5963194D01*
G01X17719625Y5957352D01*
G01X17725467Y5951764D01*
G01X17731055Y5940334D01*
G01X17731055Y5923062D01*
G01X17725467Y5911632D01*
G01X17719625Y5906044D01*
G01X17702607Y5900202D01*
G01X17651045Y5900202D01*
G01X17778807Y5963194D02*
G01X17778807Y5843052D01*
G01X17895139Y5923062D02*
G01X17895139Y5843052D01*
G01X17895139Y5906044D02*
G01X17883709Y5917474D01*
G01X17872279Y5923062D01*
G01X17855261Y5923062D01*
G01X17843831Y5917474D01*
G01X17832401Y5906044D01*
G01X17826559Y5888772D01*
G01X17826559Y5877342D01*
G01X17832401Y5860324D01*
G01X17843831Y5848894D01*
G01X17855261Y5843052D01*
G01X17872279Y5843052D01*
G01X17883709Y5848894D01*
G01X17895139Y5860324D01*
G01X17960163Y5963194D02*
G01X17960163Y5865912D01*
G01X17965751Y5848894D01*
G01X17977181Y5843052D01*
G01X17988611Y5843052D01*
G01X17942891Y5923062D02*
G01X17983023Y5923062D01*
G01X18036363Y5888772D02*
G01X18104943Y5888772D01*
G01X18104943Y5900202D01*
G01X18099355Y5911632D01*
G01X18093513Y5917474D01*
G01X18082083Y5923062D01*
G01X18065065Y5923062D01*
G01X18053635Y5917474D01*
G01X18042205Y5906044D01*
G01X18036363Y5888772D01*
G01X18036363Y5877342D01*
G01X18042205Y5860324D01*
G01X18053635Y5848894D01*
G01X18065065Y5843052D01*
G01X18082083Y5843052D01*
G01X18093513Y5848894D01*
G01X18104943Y5860324D01*
G01X18221275Y5963194D02*
G01X18221275Y5843052D01*
G01X18221275Y5906044D02*
G01X18209845Y5917474D01*
G01X18198415Y5923062D01*
G01X18181397Y5923062D01*
G01X18169967Y5917474D01*
G01X18158537Y5906044D01*
G01X18152695Y5888772D01*
G01X18152695Y5877342D01*
G01X18158537Y5860324D01*
G01X18169967Y5848894D01*
G01X18181397Y5843052D01*
G01X18198415Y5843052D01*
G01X18209845Y5848894D01*
G01X18221275Y5860324D01*
G01X19192462Y5945922D02*
G01X19181032Y5957352D01*
G01X19164014Y5963194D01*
G01X19141154Y5963194D01*
G01X19123882Y5957352D01*
G01X19112452Y5945922D01*
G01X19112452Y5934492D01*
G01X19118294Y5923062D01*
G01X19123882Y5917474D01*
G01X19135312Y5911632D01*
G01X19169602Y5900202D01*
G01X19181032Y5894614D01*
G01X19186874Y5888772D01*
G01X19192462Y5877342D01*
G01X19192462Y5860324D01*
G01X19181032Y5848894D01*
G01X19164014Y5843052D01*
G01X19141154Y5843052D01*
G01X19123882Y5848894D01*
G01X19112452Y5860324D01*
G01X19240214Y5963194D02*
G01X19240214Y5843052D01*
G01X19240214Y5900202D02*
G01X19257486Y5917474D01*
G01X19268916Y5923062D01*
G01X19285934Y5923062D01*
G01X19297364Y5917474D01*
G01X19303206Y5900202D01*
G01X19303206Y5843052D01*
G01X19419538Y5923062D02*
G01X19419538Y5843052D01*
G01X19419538Y5906044D02*
G01X19408108Y5917474D01*
G01X19396678Y5923062D01*
G01X19379660Y5923062D01*
G01X19368230Y5917474D01*
G01X19356800Y5906044D01*
G01X19350958Y5888772D01*
G01X19350958Y5877342D01*
G01X19356800Y5860324D01*
G01X19368230Y5848894D01*
G01X19379660Y5843052D01*
G01X19396678Y5843052D01*
G01X19408108Y5848894D01*
G01X19419538Y5860324D01*
G01X19467290Y5923062D02*
G01X19467290Y5803174D01*
G01X19467290Y5906044D02*
G01X19478720Y5917474D01*
G01X19490150Y5923062D01*
G01X19507422Y5923062D01*
G01X19518852Y5917474D01*
G01X19530282Y5906044D01*
G01X19535870Y5888772D01*
G01X19535870Y5877342D01*
G01X19530282Y5860324D01*
G01X19518852Y5848894D01*
G01X19507422Y5843052D01*
G01X19490150Y5843052D01*
G01X19478720Y5848894D01*
G01X19467290Y5860324D01*
G01X19583622Y5888772D02*
G01X19652202Y5888772D01*
G01X19652202Y5900202D01*
G01X19646614Y5911632D01*
G01X19640772Y5917474D01*
G01X19629342Y5923062D01*
G01X19612324Y5923062D01*
G01X19600894Y5917474D01*
G01X19589464Y5906044D01*
G01X19583622Y5888772D01*
G01X19583622Y5877342D01*
G01X19589464Y5860324D01*
G01X19600894Y5848894D01*
G01X19612324Y5843052D01*
G01X19629342Y5843052D01*
G01X19640772Y5848894D01*
G01X19652202Y5860324D01*
G01X20543633Y5963194D02*
G01X20589353Y5843052D01*
G01X20635073Y5963194D02*
G01X20589353Y5843052D01*
G01X20682825Y5963194D02*
G01X20688667Y5957352D01*
G01X20694255Y5963194D01*
G01X20688667Y5968782D01*
G01X20682825Y5963194D01*
G01X20688667Y5923062D02*
G01X20688667Y5843052D01*
G01X20810587Y5923062D02*
G01X20810587Y5843052D01*
G01X20810587Y5906044D02*
G01X20799157Y5917474D01*
G01X20787727Y5923062D01*
G01X20770709Y5923062D01*
G01X20759279Y5917474D01*
G01X20747849Y5906044D01*
G01X20742007Y5888772D01*
G01X20742007Y5877342D01*
G01X20747849Y5860324D01*
G01X20759279Y5848894D01*
G01X20770709Y5843052D01*
G01X20787727Y5843052D01*
G01X20799157Y5848894D01*
G01X20810587Y5860324D01*
G01X20961209Y5986054D02*
G01X20858339Y5803174D01*
G01X21008961Y5963194D02*
G01X21008961Y5843052D01*
G01X21008961Y5963194D02*
G01X21060523Y5963194D01*
G01X21077541Y5957352D01*
G01X21083383Y5951764D01*
G01X21088971Y5940334D01*
G01X21088971Y5923062D01*
G01X21083383Y5911632D01*
G01X21077541Y5906044D01*
G01X21060523Y5900202D01*
G01X21008961Y5900202D01*
G01X21205303Y5923062D02*
G01X21205303Y5843052D01*
G01X21205303Y5906044D02*
G01X21193873Y5917474D01*
G01X21182443Y5923062D01*
G01X21165425Y5923062D01*
G01X21153995Y5917474D01*
G01X21142565Y5906044D01*
G01X21136723Y5888772D01*
G01X21136723Y5877342D01*
G01X21142565Y5860324D01*
G01X21153995Y5848894D01*
G01X21165425Y5843052D01*
G01X21182443Y5843052D01*
G01X21193873Y5848894D01*
G01X21205303Y5860324D01*
G01X21321635Y5963194D02*
G01X21321635Y5843052D01*
G01X21321635Y5906044D02*
G01X21310205Y5917474D01*
G01X21298775Y5923062D01*
G01X21281757Y5923062D01*
G01X21270327Y5917474D01*
G01X21258897Y5906044D01*
G01X21253055Y5888772D01*
G01X21253055Y5877342D01*
G01X21258897Y5860324D01*
G01X21270327Y5848894D01*
G01X21281757Y5843052D01*
G01X21298775Y5843052D01*
G01X21310205Y5848894D01*
G01X21321635Y5860324D01*
G01X22212812Y5963194D02*
G01X22212812Y5843052D01*
G01X22212812Y5963194D02*
G01X22264374Y5963194D01*
G01X22281392Y5957352D01*
G01X22287234Y5951764D01*
G01X22292822Y5940334D01*
G01X22292822Y5923062D01*
G01X22287234Y5911632D01*
G01X22281392Y5906044D01*
G01X22264374Y5900202D01*
G01X22212812Y5900202D01*
G01X22409154Y5923062D02*
G01X22409154Y5843052D01*
G01X22409154Y5906044D02*
G01X22397724Y5917474D01*
G01X22386294Y5923062D01*
G01X22369276Y5923062D01*
G01X22357846Y5917474D01*
G01X22346416Y5906044D01*
G01X22340574Y5888772D01*
G01X22340574Y5877342D01*
G01X22346416Y5860324D01*
G01X22357846Y5848894D01*
G01X22369276Y5843052D01*
G01X22386294Y5843052D01*
G01X22397724Y5848894D01*
G01X22409154Y5860324D01*
G01X22525486Y5963194D02*
G01X22525486Y5843052D01*
G01X22525486Y5906044D02*
G01X22514056Y5917474D01*
G01X22502626Y5923062D01*
G01X22485608Y5923062D01*
G01X22474178Y5917474D01*
G01X22462748Y5906044D01*
G01X22456906Y5888772D01*
G01X22456906Y5877342D01*
G01X22462748Y5860324D01*
G01X22474178Y5848894D01*
G01X22485608Y5843052D01*
G01X22502626Y5843052D01*
G01X22514056Y5848894D01*
G01X22525486Y5860324D01*
G01X22781264Y5945922D02*
G01X22769834Y5957352D01*
G01X22752816Y5963194D01*
G01X22729956Y5963194D01*
G01X22712684Y5957352D01*
G01X22701254Y5945922D01*
G01X22701254Y5934492D01*
G01X22707096Y5923062D01*
G01X22712684Y5917474D01*
G01X22724114Y5911632D01*
G01X22758404Y5900202D01*
G01X22769834Y5894614D01*
G01X22775676Y5888772D01*
G01X22781264Y5877342D01*
G01X22781264Y5860324D01*
G01X22769834Y5848894D01*
G01X22752816Y5843052D01*
G01X22729956Y5843052D01*
G01X22712684Y5848894D01*
G01X22701254Y5860324D01*
G01X22829016Y5963194D02*
G01X22829016Y5843052D01*
G01X22829016Y5900202D02*
G01X22846288Y5917474D01*
G01X22857718Y5923062D01*
G01X22874736Y5923062D01*
G01X22886166Y5917474D01*
G01X22892008Y5900202D01*
G01X22892008Y5843052D01*
G01X23008340Y5923062D02*
G01X23008340Y5843052D01*
G01X23008340Y5906044D02*
G01X22996910Y5917474D01*
G01X22985480Y5923062D01*
G01X22968462Y5923062D01*
G01X22957032Y5917474D01*
G01X22945602Y5906044D01*
G01X22939760Y5888772D01*
G01X22939760Y5877342D01*
G01X22945602Y5860324D01*
G01X22957032Y5848894D01*
G01X22968462Y5843052D01*
G01X22985480Y5843052D01*
G01X22996910Y5848894D01*
G01X23008340Y5860324D01*
G01X23056092Y5923062D02*
G01X23056092Y5803174D01*
G01X23056092Y5906044D02*
G01X23067522Y5917474D01*
G01X23078952Y5923062D01*
G01X23096224Y5923062D01*
G01X23107654Y5917474D01*
G01X23119084Y5906044D01*
G01X23124672Y5888772D01*
G01X23124672Y5877342D01*
G01X23119084Y5860324D01*
G01X23107654Y5848894D01*
G01X23096224Y5843052D01*
G01X23078952Y5843052D01*
G01X23067522Y5848894D01*
G01X23056092Y5860324D01*
G01X23172424Y5888772D02*
G01X23241004Y5888772D01*
G01X23241004Y5900202D01*
G01X23235416Y5911632D01*
G01X23229574Y5917474D01*
G01X23218144Y5923062D01*
G01X23201126Y5923062D01*
G01X23189696Y5917474D01*
G01X23178266Y5906044D01*
G01X23172424Y5888772D01*
G01X23172424Y5877342D01*
G01X23178266Y5860324D01*
G01X23189696Y5848894D01*
G01X23201126Y5843052D01*
G01X23218144Y5843052D01*
G01X23229574Y5848894D01*
G01X23241004Y5860324D01*
G01X24132181Y5963194D02*
G01X24132181Y5843052D01*
G01X24132181Y5843052D02*
G01X24200761Y5843052D01*
G01X24317093Y5923062D02*
G01X24317093Y5843052D01*
G01X24317093Y5906044D02*
G01X24305663Y5917474D01*
G01X24294233Y5923062D01*
G01X24277215Y5923062D01*
G01X24265785Y5917474D01*
G01X24254355Y5906044D01*
G01X24248513Y5888772D01*
G01X24248513Y5877342D01*
G01X24254355Y5860324D01*
G01X24265785Y5848894D01*
G01X24277215Y5843052D01*
G01X24294233Y5843052D01*
G01X24305663Y5848894D01*
G01X24317093Y5860324D01*
G01X24370687Y5923062D02*
G01X24404977Y5843052D01*
G01X24439267Y5923062D02*
G01X24404977Y5843052D01*
G01X24393547Y5820192D01*
G01X24382117Y5808762D01*
G01X24370687Y5803174D01*
G01X24364845Y5803174D01*
G01X24487019Y5888772D02*
G01X24555599Y5888772D01*
G01X24555599Y5900202D01*
G01X24550011Y5911632D01*
G01X24544169Y5917474D01*
G01X24532739Y5923062D01*
G01X24515721Y5923062D01*
G01X24504291Y5917474D01*
G01X24492861Y5906044D01*
G01X24487019Y5888772D01*
G01X24487019Y5877342D01*
G01X24492861Y5860324D01*
G01X24504291Y5848894D01*
G01X24515721Y5843052D01*
G01X24532739Y5843052D01*
G01X24544169Y5848894D01*
G01X24555599Y5860324D01*
G01X24603351Y5923062D02*
G01X24603351Y5843052D01*
G01X24603351Y5888772D02*
G01X24609193Y5906044D01*
G01X24620623Y5917474D01*
G01X24632053Y5923062D01*
G01X24649071Y5923062D01*
G01X24824839Y5963194D02*
G01X24824839Y5843052D01*
G01X24824839Y5963194D02*
G01X24876401Y5963194D01*
G01X24893419Y5957352D01*
G01X24899261Y5951764D01*
G01X24904849Y5940334D01*
G01X24904849Y5923062D01*
G01X24899261Y5911632D01*
G01X24893419Y5906044D01*
G01X24876401Y5900202D01*
G01X24824839Y5900202D01*
G01X25021181Y5923062D02*
G01X25021181Y5843052D01*
G01X25021181Y5906044D02*
G01X25009751Y5917474D01*
G01X24998321Y5923062D01*
G01X24981303Y5923062D01*
G01X24969873Y5917474D01*
G01X24958443Y5906044D01*
G01X24952601Y5888772D01*
G01X24952601Y5877342D01*
G01X24958443Y5860324D01*
G01X24969873Y5848894D01*
G01X24981303Y5843052D01*
G01X24998321Y5843052D01*
G01X25009751Y5848894D01*
G01X25021181Y5860324D01*
G01X25068933Y5963194D02*
G01X25074775Y5957352D01*
G01X25080363Y5963194D01*
G01X25074775Y5968782D01*
G01X25068933Y5963194D01*
G01X25074775Y5923062D02*
G01X25074775Y5843052D01*
G01X25128115Y5923062D02*
G01X25128115Y5843052D01*
G01X25128115Y5888772D02*
G01X25133957Y5906044D01*
G01X25145387Y5917474D01*
G01X25156817Y5923062D01*
G01X25173835Y5923062D01*
G01X12457216Y5353921D02*
G01X12457216Y5359763D01*
G01X12462804Y5371193D01*
G01X12468646Y5376781D01*
G01X12480076Y5382623D01*
G01X12502936Y5382623D01*
G01X12514366Y5376781D01*
G01X12519954Y5371193D01*
G01X12525796Y5359763D01*
G01X12525796Y5348333D01*
G01X12519954Y5336903D01*
G01X12508524Y5319631D01*
G01X12451374Y5262481D01*
G01X12531384Y5262481D01*
G01X13871379Y5353921D02*
G01X13871379Y5359763D01*
G01X13876967Y5371193D01*
G01X13882809Y5376781D01*
G01X13894239Y5382623D01*
G01X13917099Y5382623D01*
G01X13928529Y5376781D01*
G01X13934117Y5371193D01*
G01X13939959Y5359763D01*
G01X13939959Y5348333D01*
G01X13934117Y5336903D01*
G01X13922687Y5319631D01*
G01X13865537Y5262481D01*
G01X13945547Y5262481D01*
G01X14004729Y5382623D02*
G01X14067721Y5382623D01*
G01X14033431Y5336903D01*
G01X14050449Y5336903D01*
G01X14061879Y5331061D01*
G01X14067721Y5325473D01*
G01X14073309Y5308201D01*
G01X14073309Y5296771D01*
G01X14067721Y5279753D01*
G01X14056291Y5268323D01*
G01X14039019Y5262481D01*
G01X14022001Y5262481D01*
G01X14004729Y5268323D01*
G01X13999141Y5273911D01*
G01X13993299Y5285341D01*
G01X14126903Y5291183D02*
G01X14121061Y5285341D01*
G01X14126903Y5279753D01*
G01X14132491Y5285341D01*
G01X14126903Y5291183D01*
G01X14248823Y5365351D02*
G01X14243235Y5376781D01*
G01X14225963Y5382623D01*
G01X14214533Y5382623D01*
G01X14197515Y5376781D01*
G01X14186085Y5359763D01*
G01X14180243Y5331061D01*
G01X14180243Y5302613D01*
G01X14186085Y5279753D01*
G01X14197515Y5268323D01*
G01X14214533Y5262481D01*
G01X14220375Y5262481D01*
G01X14237393Y5268323D01*
G01X14248823Y5279753D01*
G01X14254665Y5296771D01*
G01X14254665Y5302613D01*
G01X14248823Y5319631D01*
G01X14237393Y5331061D01*
G01X14220375Y5336903D01*
G01X14214533Y5336903D01*
G01X14197515Y5331061D01*
G01X14186085Y5319631D01*
G01X14180243Y5302613D01*
G01X14302417Y5342491D02*
G01X14365409Y5262481D01*
G01X14365409Y5342491D02*
G01X14302417Y5262481D01*
G01X14481741Y5382623D02*
G01X14424591Y5382623D01*
G01X14419003Y5331061D01*
G01X14424591Y5336903D01*
G01X14441863Y5342491D01*
G01X14458881Y5342491D01*
G01X14476153Y5336903D01*
G01X14487583Y5325473D01*
G01X14493171Y5308201D01*
G01X14493171Y5296771D01*
G01X14487583Y5279753D01*
G01X14476153Y5268323D01*
G01X14458881Y5262481D01*
G01X14441863Y5262481D01*
G01X14424591Y5268323D01*
G01X14419003Y5273911D01*
G01X14413161Y5285341D01*
G01X14615345Y5342491D02*
G01X14609503Y5325473D01*
G01X14598073Y5314043D01*
G01X14581055Y5308201D01*
G01X14575213Y5308201D01*
G01X14558195Y5314043D01*
G01X14546765Y5325473D01*
G01X14540923Y5342491D01*
G01X14540923Y5348333D01*
G01X14546765Y5365351D01*
G01X14558195Y5376781D01*
G01X14575213Y5382623D01*
G01X14581055Y5382623D01*
G01X14598073Y5376781D01*
G01X14609503Y5365351D01*
G01X14615345Y5342491D01*
G01X14615345Y5314043D01*
G01X14609503Y5285341D01*
G01X14598073Y5268323D01*
G01X14581055Y5262481D01*
G01X14569625Y5262481D01*
G01X14552353Y5268323D01*
G01X14546765Y5279753D01*
G01X14668939Y5291183D02*
G01X14663097Y5285341D01*
G01X14668939Y5279753D01*
G01X14674527Y5285341D01*
G01X14668939Y5291183D01*
G01X14722279Y5359763D02*
G01X14733709Y5365351D01*
G01X14750981Y5382623D01*
G01X14750981Y5262481D01*
G01X14798733Y5342491D02*
G01X14798733Y5262481D01*
G01X14798733Y5319631D02*
G01X14816005Y5336903D01*
G01X14827435Y5342491D01*
G01X14844453Y5342491D01*
G01X14855883Y5336903D01*
G01X14861725Y5319631D01*
G01X14861725Y5262481D01*
G01X14861725Y5319631D02*
G01X14878743Y5336903D01*
G01X14890173Y5342491D01*
G01X14907445Y5342491D01*
G01X14918875Y5336903D01*
G01X14924463Y5319631D01*
G01X14924463Y5262481D01*
G01X14972215Y5382623D02*
G01X14978057Y5376781D01*
G01X14983645Y5382623D01*
G01X14978057Y5388211D01*
G01X14972215Y5382623D01*
G01X14978057Y5342491D02*
G01X14978057Y5262481D01*
G01X15031397Y5382623D02*
G01X15031397Y5262481D01*
G01X15119281Y5405483D02*
G01X15107851Y5394053D01*
G01X15096421Y5376781D01*
G01X15084991Y5353921D01*
G01X15079149Y5325473D01*
G01X15079149Y5302613D01*
G01X15084991Y5273911D01*
G01X15096421Y5251051D01*
G01X15107851Y5234033D01*
G01X15119281Y5222603D01*
G01X15201323Y5382623D02*
G01X15184305Y5376781D01*
G01X15172875Y5359763D01*
G01X15167033Y5331061D01*
G01X15167033Y5314043D01*
G01X15172875Y5285341D01*
G01X15184305Y5268323D01*
G01X15201323Y5262481D01*
G01X15212753Y5262481D01*
G01X15230025Y5268323D01*
G01X15241455Y5285341D01*
G01X15247043Y5314043D01*
G01X15247043Y5331061D01*
G01X15241455Y5359763D01*
G01X15230025Y5376781D01*
G01X15212753Y5382623D01*
G01X15201323Y5382623D01*
G01X15300637Y5291183D02*
G01X15294795Y5285341D01*
G01X15300637Y5279753D01*
G01X15306225Y5285341D01*
G01X15300637Y5291183D01*
G01X15422557Y5365351D02*
G01X15416969Y5376781D01*
G01X15399697Y5382623D01*
G01X15388267Y5382623D01*
G01X15371249Y5376781D01*
G01X15359819Y5359763D01*
G01X15353977Y5331061D01*
G01X15353977Y5302613D01*
G01X15359819Y5279753D01*
G01X15371249Y5268323D01*
G01X15388267Y5262481D01*
G01X15394109Y5262481D01*
G01X15411127Y5268323D01*
G01X15422557Y5279753D01*
G01X15428399Y5296771D01*
G01X15428399Y5302613D01*
G01X15422557Y5319631D01*
G01X15411127Y5331061D01*
G01X15394109Y5336903D01*
G01X15388267Y5336903D01*
G01X15371249Y5331061D01*
G01X15359819Y5319631D01*
G01X15353977Y5302613D01*
G01X15510441Y5382623D02*
G01X15493423Y5376781D01*
G01X15481993Y5359763D01*
G01X15476151Y5331061D01*
G01X15476151Y5314043D01*
G01X15481993Y5285341D01*
G01X15493423Y5268323D01*
G01X15510441Y5262481D01*
G01X15521871Y5262481D01*
G01X15539143Y5268323D01*
G01X15550573Y5285341D01*
G01X15556161Y5314043D01*
G01X15556161Y5331061D01*
G01X15550573Y5359763D01*
G01X15539143Y5376781D01*
G01X15521871Y5382623D01*
G01X15510441Y5382623D01*
G01X15638203Y5382623D02*
G01X15621185Y5376781D01*
G01X15609755Y5359763D01*
G01X15603913Y5331061D01*
G01X15603913Y5314043D01*
G01X15609755Y5285341D01*
G01X15621185Y5268323D01*
G01X15638203Y5262481D01*
G01X15649633Y5262481D01*
G01X15666905Y5268323D01*
G01X15678335Y5285341D01*
G01X15683923Y5314043D01*
G01X15683923Y5331061D01*
G01X15678335Y5359763D01*
G01X15666905Y5376781D01*
G01X15649633Y5382623D01*
G01X15638203Y5382623D01*
G01X15731675Y5342491D02*
G01X15794667Y5262481D01*
G01X15794667Y5342491D02*
G01X15731675Y5262481D01*
G01X15842419Y5359763D02*
G01X15853849Y5365351D01*
G01X15871121Y5382623D01*
G01X15871121Y5262481D01*
G01X15924715Y5291183D02*
G01X15918873Y5285341D01*
G01X15924715Y5279753D01*
G01X15930303Y5285341D01*
G01X15924715Y5291183D01*
G01X16046635Y5382623D02*
G01X15989485Y5382623D01*
G01X15983897Y5331061D01*
G01X15989485Y5336903D01*
G01X16006757Y5342491D01*
G01X16023775Y5342491D01*
G01X16041047Y5336903D01*
G01X16052477Y5325473D01*
G01X16058065Y5308201D01*
G01X16058065Y5296771D01*
G01X16052477Y5279753D01*
G01X16041047Y5268323D01*
G01X16023775Y5262481D01*
G01X16006757Y5262481D01*
G01X15989485Y5268323D01*
G01X15983897Y5273911D01*
G01X15978055Y5285341D01*
G01X16140107Y5382623D02*
G01X16123089Y5376781D01*
G01X16111659Y5359763D01*
G01X16105817Y5331061D01*
G01X16105817Y5314043D01*
G01X16111659Y5285341D01*
G01X16123089Y5268323D01*
G01X16140107Y5262481D01*
G01X16151537Y5262481D01*
G01X16168809Y5268323D01*
G01X16180239Y5285341D01*
G01X16185827Y5314043D01*
G01X16185827Y5331061D01*
G01X16180239Y5359763D01*
G01X16168809Y5376781D01*
G01X16151537Y5382623D01*
G01X16140107Y5382623D01*
G01X16267869Y5382623D02*
G01X16250851Y5376781D01*
G01X16239421Y5359763D01*
G01X16233579Y5331061D01*
G01X16233579Y5314043D01*
G01X16239421Y5285341D01*
G01X16250851Y5268323D01*
G01X16267869Y5262481D01*
G01X16279299Y5262481D01*
G01X16296571Y5268323D01*
G01X16308001Y5285341D01*
G01X16313589Y5314043D01*
G01X16313589Y5331061D01*
G01X16308001Y5359763D01*
G01X16296571Y5376781D01*
G01X16279299Y5382623D01*
G01X16267869Y5382623D01*
G01X16361341Y5342491D02*
G01X16361341Y5262481D01*
G01X16361341Y5319631D02*
G01X16378613Y5336903D01*
G01X16390043Y5342491D01*
G01X16407061Y5342491D01*
G01X16418491Y5336903D01*
G01X16424333Y5319631D01*
G01X16424333Y5262481D01*
G01X16424333Y5319631D02*
G01X16441351Y5336903D01*
G01X16452781Y5342491D01*
G01X16470053Y5342491D01*
G01X16481483Y5336903D01*
G01X16487071Y5319631D01*
G01X16487071Y5262481D01*
G01X16534823Y5342491D02*
G01X16534823Y5262481D01*
G01X16534823Y5319631D02*
G01X16552095Y5336903D01*
G01X16563525Y5342491D01*
G01X16580543Y5342491D01*
G01X16591973Y5336903D01*
G01X16597815Y5319631D01*
G01X16597815Y5262481D01*
G01X16597815Y5319631D02*
G01X16614833Y5336903D01*
G01X16626263Y5342491D01*
G01X16643535Y5342491D01*
G01X16654965Y5336903D01*
G01X16660553Y5319631D01*
G01X16660553Y5262481D01*
G01X16708305Y5405483D02*
G01X16719735Y5394053D01*
G01X16731165Y5376781D01*
G01X16742595Y5353921D01*
G01X16748437Y5325473D01*
G01X16748437Y5302613D01*
G01X16742595Y5273911D01*
G01X16731165Y5251051D01*
G01X16719735Y5234033D01*
G01X16708305Y5222603D01*
G01X17651045Y5382623D02*
G01X17651045Y5262481D01*
G01X17651045Y5382623D02*
G01X17702607Y5382623D01*
G01X17719625Y5376781D01*
G01X17725467Y5371193D01*
G01X17731055Y5359763D01*
G01X17731055Y5342491D01*
G01X17725467Y5331061D01*
G01X17719625Y5325473D01*
G01X17702607Y5319631D01*
G01X17651045Y5319631D01*
G01X17818939Y5382623D02*
G01X17818939Y5262481D01*
G01X17778807Y5382623D02*
G01X17858817Y5382623D01*
G01X17906569Y5382623D02*
G01X17906569Y5262481D01*
G01X17986579Y5382623D02*
G01X17986579Y5262481D01*
G01X17906569Y5325473D02*
G01X17986579Y5325473D01*
G01X19192462Y5365351D02*
G01X19181032Y5376781D01*
G01X19164014Y5382623D01*
G01X19141154Y5382623D01*
G01X19123882Y5376781D01*
G01X19112452Y5365351D01*
G01X19112452Y5353921D01*
G01X19118294Y5342491D01*
G01X19123882Y5336903D01*
G01X19135312Y5331061D01*
G01X19169602Y5319631D01*
G01X19181032Y5314043D01*
G01X19186874Y5308201D01*
G01X19192462Y5296771D01*
G01X19192462Y5279753D01*
G01X19181032Y5268323D01*
G01X19164014Y5262481D01*
G01X19141154Y5262481D01*
G01X19123882Y5268323D01*
G01X19112452Y5279753D01*
G01X19240214Y5382623D02*
G01X19240214Y5262481D01*
G01X19316668Y5342491D02*
G01X19305238Y5336903D01*
G01X19293808Y5325473D01*
G01X19287966Y5308201D01*
G01X19287966Y5296771D01*
G01X19293808Y5279753D01*
G01X19305238Y5268323D01*
G01X19316668Y5262481D01*
G01X19333686Y5262481D01*
G01X19345116Y5268323D01*
G01X19356546Y5279753D01*
G01X19362388Y5296771D01*
G01X19362388Y5308201D01*
G01X19356546Y5325473D01*
G01X19345116Y5336903D01*
G01X19333686Y5342491D01*
G01X19316668Y5342491D01*
G01X19427412Y5382623D02*
G01X19427412Y5285341D01*
G01X19433000Y5268323D01*
G01X19444430Y5262481D01*
G01X19455860Y5262481D01*
G01X19410140Y5342491D02*
G01X19450272Y5342491D01*
G01X20543633Y5382623D02*
G01X20543633Y5262481D01*
G01X20543633Y5382623D02*
G01X20595195Y5382623D01*
G01X20612213Y5376781D01*
G01X20618055Y5371193D01*
G01X20623643Y5359763D01*
G01X20623643Y5342491D01*
G01X20618055Y5331061D01*
G01X20612213Y5325473D01*
G01X20595195Y5319631D01*
G01X20543633Y5319631D01*
G01X20739975Y5342491D02*
G01X20739975Y5262481D01*
G01X20739975Y5325473D02*
G01X20728545Y5336903D01*
G01X20717115Y5342491D01*
G01X20700097Y5342491D01*
G01X20688667Y5336903D01*
G01X20677237Y5325473D01*
G01X20671395Y5308201D01*
G01X20671395Y5296771D01*
G01X20677237Y5279753D01*
G01X20688667Y5268323D01*
G01X20700097Y5262481D01*
G01X20717115Y5262481D01*
G01X20728545Y5268323D01*
G01X20739975Y5279753D01*
G01X20856307Y5382623D02*
G01X20856307Y5262481D01*
G01X20856307Y5325473D02*
G01X20844877Y5336903D01*
G01X20833447Y5342491D01*
G01X20816429Y5342491D01*
G01X20804999Y5336903D01*
G01X20793569Y5325473D01*
G01X20787727Y5308201D01*
G01X20787727Y5296771D01*
G01X20793569Y5279753D01*
G01X20804999Y5268323D01*
G01X20816429Y5262481D01*
G01X20833447Y5262481D01*
G01X20844877Y5268323D01*
G01X20856307Y5279753D01*
G01X22247102Y5382623D02*
G01X22235672Y5376781D01*
G01X22224242Y5365351D01*
G01X22218654Y5353921D01*
G01X22212812Y5336903D01*
G01X22212812Y5308201D01*
G01X22218654Y5291183D01*
G01X22224242Y5279753D01*
G01X22235672Y5268323D01*
G01X22247102Y5262481D01*
G01X22269962Y5262481D01*
G01X22281392Y5268323D01*
G01X22292822Y5279753D01*
G01X22298664Y5291183D01*
G01X22304252Y5308201D01*
G01X22304252Y5336903D01*
G01X22298664Y5353921D01*
G01X22292822Y5365351D01*
G01X22281392Y5376781D01*
G01X22269962Y5382623D01*
G01X22247102Y5382623D01*
G01X22352004Y5342491D02*
G01X22386294Y5262481D01*
G01X22420584Y5342491D02*
G01X22386294Y5262481D01*
G01X22536916Y5342491D02*
G01X22536916Y5262481D01*
G01X22536916Y5325473D02*
G01X22525486Y5336903D01*
G01X22514056Y5342491D01*
G01X22497038Y5342491D01*
G01X22485608Y5336903D01*
G01X22474178Y5325473D01*
G01X22468336Y5308201D01*
G01X22468336Y5296771D01*
G01X22474178Y5279753D01*
G01X22485608Y5268323D01*
G01X22497038Y5262481D01*
G01X22514056Y5262481D01*
G01X22525486Y5268323D01*
G01X22536916Y5279753D01*
G01X22584668Y5382623D02*
G01X22584668Y5262481D01*
G01X24172313Y5382623D02*
G01X24172313Y5262481D01*
G01X24132181Y5382623D02*
G01X24212191Y5382623D01*
G01X24288645Y5342491D02*
G01X24277215Y5336903D01*
G01X24265785Y5325473D01*
G01X24259943Y5308201D01*
G01X24259943Y5296771D01*
G01X24265785Y5279753D01*
G01X24277215Y5268323D01*
G01X24288645Y5262481D01*
G01X24305663Y5262481D01*
G01X24317093Y5268323D01*
G01X24328523Y5279753D01*
G01X24334365Y5296771D01*
G01X24334365Y5308201D01*
G01X24328523Y5325473D01*
G01X24317093Y5336903D01*
G01X24305663Y5342491D01*
G01X24288645Y5342491D01*
G01X24382117Y5342491D02*
G01X24382117Y5222603D01*
G01X24382117Y5325473D02*
G01X24393547Y5336903D01*
G01X24404977Y5342491D01*
G01X24422249Y5342491D01*
G01X24433679Y5336903D01*
G01X24445109Y5325473D01*
G01X24450697Y5308201D01*
G01X24450697Y5296771D01*
G01X24445109Y5279753D01*
G01X24433679Y5268323D01*
G01X24422249Y5262481D01*
G01X24404977Y5262481D01*
G01X24393547Y5268323D01*
G01X24382117Y5279753D01*
G01X24626465Y5382623D02*
G01X24626465Y5262481D01*
G01X24626465Y5262481D02*
G01X24695045Y5262481D01*
G01X24811377Y5342491D02*
G01X24811377Y5262481D01*
G01X24811377Y5325473D02*
G01X24799947Y5336903D01*
G01X24788517Y5342491D01*
G01X24771499Y5342491D01*
G01X24760069Y5336903D01*
G01X24748639Y5325473D01*
G01X24742797Y5308201D01*
G01X24742797Y5296771D01*
G01X24748639Y5279753D01*
G01X24760069Y5268323D01*
G01X24771499Y5262481D01*
G01X24788517Y5262481D01*
G01X24799947Y5268323D01*
G01X24811377Y5279753D01*
G01X24864971Y5342491D02*
G01X24899261Y5262481D01*
G01X24933551Y5342491D02*
G01X24899261Y5262481D01*
G01X24887831Y5239621D01*
G01X24876401Y5228191D01*
G01X24864971Y5222603D01*
G01X24859129Y5222603D01*
G01X24981303Y5308201D02*
G01X25049883Y5308201D01*
G01X25049883Y5319631D01*
G01X25044295Y5331061D01*
G01X25038453Y5336903D01*
G01X25027023Y5342491D01*
G01X25010005Y5342491D01*
G01X24998575Y5336903D01*
G01X24987145Y5325473D01*
G01X24981303Y5308201D01*
G01X24981303Y5296771D01*
G01X24987145Y5279753D01*
G01X24998575Y5268323D01*
G01X25010005Y5262481D01*
G01X25027023Y5262481D01*
G01X25038453Y5268323D01*
G01X25049883Y5279753D01*
G01X25097635Y5342491D02*
G01X25097635Y5262481D01*
G01X25097635Y5308201D02*
G01X25103477Y5325473D01*
G01X25114907Y5336903D01*
G01X25126337Y5342491D01*
G01X25143355Y5342491D01*
G01X25191107Y5314043D02*
G01X25293977Y5314043D01*
G01X25341729Y5382623D02*
G01X25341729Y5262481D01*
G01X25341729Y5382623D02*
G01X25393291Y5382623D01*
G01X25410309Y5376781D01*
G01X25416151Y5371193D01*
G01X25421739Y5359763D01*
G01X25421739Y5348333D01*
G01X25416151Y5336903D01*
G01X25410309Y5331061D01*
G01X25393291Y5325473D01*
G01X25341729Y5325473D02*
G01X25393291Y5325473D01*
G01X25410309Y5319631D01*
G01X25416151Y5314043D01*
G01X25421739Y5302613D01*
G01X25421739Y5285341D01*
G01X25416151Y5273911D01*
G01X25410309Y5268323D01*
G01X25393291Y5262481D01*
G01X25341729Y5262481D01*
G01X25498193Y5342491D02*
G01X25486763Y5336903D01*
G01X25475333Y5325473D01*
G01X25469491Y5308201D01*
G01X25469491Y5296771D01*
G01X25475333Y5279753D01*
G01X25486763Y5268323D01*
G01X25498193Y5262481D01*
G01X25515211Y5262481D01*
G01X25526641Y5268323D01*
G01X25538071Y5279753D01*
G01X25543913Y5296771D01*
G01X25543913Y5308201D01*
G01X25538071Y5325473D01*
G01X25526641Y5336903D01*
G01X25515211Y5342491D01*
G01X25498193Y5342491D01*
G01X25608937Y5382623D02*
G01X25608937Y5285341D01*
G01X25614525Y5268323D01*
G01X25625955Y5262481D01*
G01X25637385Y5262481D01*
G01X25591665Y5342491D02*
G01X25631797Y5342491D01*
G01X25702409Y5382623D02*
G01X25702409Y5285341D01*
G01X25707997Y5268323D01*
G01X25719427Y5262481D01*
G01X25730857Y5262481D01*
G01X25685137Y5342491D02*
G01X25725269Y5342491D01*
G01X25807311Y5342491D02*
G01X25795881Y5336903D01*
G01X25784451Y5325473D01*
G01X25778609Y5308201D01*
G01X25778609Y5296771D01*
G01X25784451Y5279753D01*
G01X25795881Y5268323D01*
G01X25807311Y5262481D01*
G01X25824329Y5262481D01*
G01X25835759Y5268323D01*
G01X25847189Y5279753D01*
G01X25853031Y5296771D01*
G01X25853031Y5308201D01*
G01X25847189Y5325473D01*
G01X25835759Y5336903D01*
G01X25824329Y5342491D01*
G01X25807311Y5342491D01*
G01X25900783Y5342491D02*
G01X25900783Y5262481D01*
G01X25900783Y5319631D02*
G01X25918055Y5336903D01*
G01X25929485Y5342491D01*
G01X25946503Y5342491D01*
G01X25957933Y5336903D01*
G01X25963775Y5319631D01*
G01X25963775Y5262481D01*
G01X25963775Y5319631D02*
G01X25980793Y5336903D01*
G01X25992223Y5342491D01*
G01X26009495Y5342491D01*
G01X26020925Y5336903D01*
G01X26026513Y5319631D01*
G01X26026513Y5262481D01*
G01X26202281Y5382623D02*
G01X26202281Y5262481D01*
G01X26202281Y5262481D02*
G01X26270861Y5262481D01*
G01X26387193Y5342491D02*
G01X26387193Y5262481D01*
G01X26387193Y5325473D02*
G01X26375763Y5336903D01*
G01X26364333Y5342491D01*
G01X26347315Y5342491D01*
G01X26335885Y5336903D01*
G01X26324455Y5325473D01*
G01X26318613Y5308201D01*
G01X26318613Y5296771D01*
G01X26324455Y5279753D01*
G01X26335885Y5268323D01*
G01X26347315Y5262481D01*
G01X26364333Y5262481D01*
G01X26375763Y5268323D01*
G01X26387193Y5279753D01*
G01X26440787Y5342491D02*
G01X26475077Y5262481D01*
G01X26509367Y5342491D02*
G01X26475077Y5262481D01*
G01X26463647Y5239621D01*
G01X26452217Y5228191D01*
G01X26440787Y5222603D01*
G01X26434945Y5222603D01*
G01X26557119Y5308201D02*
G01X26625699Y5308201D01*
G01X26625699Y5319631D01*
G01X26620111Y5331061D01*
G01X26614269Y5336903D01*
G01X26602839Y5342491D01*
G01X26585821Y5342491D01*
G01X26574391Y5336903D01*
G01X26562961Y5325473D01*
G01X26557119Y5308201D01*
G01X26557119Y5296771D01*
G01X26562961Y5279753D01*
G01X26574391Y5268323D01*
G01X26585821Y5262481D01*
G01X26602839Y5262481D01*
G01X26614269Y5268323D01*
G01X26625699Y5279753D01*
G01X26673451Y5342491D02*
G01X26673451Y5262481D01*
G01X26673451Y5308201D02*
G01X26679293Y5325473D01*
G01X26690723Y5336903D01*
G01X26702153Y5342491D01*
G01X26719171Y5342491D01*
G01X12457216Y4773349D02*
G01X12457216Y4779191D01*
G01X12462804Y4790621D01*
G01X12468646Y4796209D01*
G01X12480076Y4802051D01*
G01X12502936Y4802051D01*
G01X12514366Y4796209D01*
G01X12519954Y4790621D01*
G01X12525796Y4779191D01*
G01X12525796Y4767761D01*
G01X12519954Y4756331D01*
G01X12508524Y4739059D01*
G01X12451374Y4681909D01*
G01X12531384Y4681909D01*
G01X13871379Y4773349D02*
G01X13871379Y4779191D01*
G01X13876967Y4790621D01*
G01X13882809Y4796209D01*
G01X13894239Y4802051D01*
G01X13917099Y4802051D01*
G01X13928529Y4796209D01*
G01X13934117Y4790621D01*
G01X13939959Y4779191D01*
G01X13939959Y4767761D01*
G01X13934117Y4756331D01*
G01X13922687Y4739059D01*
G01X13865537Y4681909D01*
G01X13945547Y4681909D01*
G01X14004729Y4802051D02*
G01X14067721Y4802051D01*
G01X14033431Y4756331D01*
G01X14050449Y4756331D01*
G01X14061879Y4750489D01*
G01X14067721Y4744901D01*
G01X14073309Y4727629D01*
G01X14073309Y4716199D01*
G01X14067721Y4699181D01*
G01X14056291Y4687751D01*
G01X14039019Y4681909D01*
G01X14022001Y4681909D01*
G01X14004729Y4687751D01*
G01X13999141Y4693339D01*
G01X13993299Y4704769D01*
G01X14126903Y4710611D02*
G01X14121061Y4704769D01*
G01X14126903Y4699181D01*
G01X14132491Y4704769D01*
G01X14126903Y4710611D01*
G01X14248823Y4784779D02*
G01X14243235Y4796209D01*
G01X14225963Y4802051D01*
G01X14214533Y4802051D01*
G01X14197515Y4796209D01*
G01X14186085Y4779191D01*
G01X14180243Y4750489D01*
G01X14180243Y4722041D01*
G01X14186085Y4699181D01*
G01X14197515Y4687751D01*
G01X14214533Y4681909D01*
G01X14220375Y4681909D01*
G01X14237393Y4687751D01*
G01X14248823Y4699181D01*
G01X14254665Y4716199D01*
G01X14254665Y4722041D01*
G01X14248823Y4739059D01*
G01X14237393Y4750489D01*
G01X14220375Y4756331D01*
G01X14214533Y4756331D01*
G01X14197515Y4750489D01*
G01X14186085Y4739059D01*
G01X14180243Y4722041D01*
G01X14302417Y4761919D02*
G01X14365409Y4681909D01*
G01X14365409Y4761919D02*
G01X14302417Y4681909D01*
G01X14470311Y4802051D02*
G01X14413161Y4722041D01*
G01X14499013Y4722041D01*
G01X14470311Y4802051D02*
G01X14470311Y4681909D01*
G01X14558195Y4802051D02*
G01X14621187Y4802051D01*
G01X14586897Y4756331D01*
G01X14603915Y4756331D01*
G01X14615345Y4750489D01*
G01X14621187Y4744901D01*
G01X14626775Y4727629D01*
G01X14626775Y4716199D01*
G01X14621187Y4699181D01*
G01X14609757Y4687751D01*
G01X14592485Y4681909D01*
G01X14575467Y4681909D01*
G01X14558195Y4687751D01*
G01X14552607Y4693339D01*
G01X14546765Y4704769D01*
G01X14680369Y4710611D02*
G01X14674527Y4704769D01*
G01X14680369Y4699181D01*
G01X14685957Y4704769D01*
G01X14680369Y4710611D01*
G01X14745139Y4802051D02*
G01X14808131Y4802051D01*
G01X14773841Y4756331D01*
G01X14790859Y4756331D01*
G01X14802289Y4750489D01*
G01X14808131Y4744901D01*
G01X14813719Y4727629D01*
G01X14813719Y4716199D01*
G01X14808131Y4699181D01*
G01X14796701Y4687751D01*
G01X14779429Y4681909D01*
G01X14762411Y4681909D01*
G01X14745139Y4687751D01*
G01X14739551Y4693339D01*
G01X14733709Y4704769D01*
G01X14861471Y4761919D02*
G01X14861471Y4681909D01*
G01X14861471Y4739059D02*
G01X14878743Y4756331D01*
G01X14890173Y4761919D01*
G01X14907191Y4761919D01*
G01X14918621Y4756331D01*
G01X14924463Y4739059D01*
G01X14924463Y4681909D01*
G01X14924463Y4739059D02*
G01X14941481Y4756331D01*
G01X14952911Y4761919D01*
G01X14970183Y4761919D01*
G01X14981613Y4756331D01*
G01X14987201Y4739059D01*
G01X14987201Y4681909D01*
G01X15034953Y4802051D02*
G01X15040795Y4796209D01*
G01X15046383Y4802051D01*
G01X15040795Y4807639D01*
G01X15034953Y4802051D01*
G01X15040795Y4761919D02*
G01X15040795Y4681909D01*
G01X15094135Y4802051D02*
G01X15094135Y4681909D01*
G01X15182019Y4824911D02*
G01X15170589Y4813481D01*
G01X15159159Y4796209D01*
G01X15147729Y4773349D01*
G01X15141887Y4744901D01*
G01X15141887Y4722041D01*
G01X15147729Y4693339D01*
G01X15159159Y4670479D01*
G01X15170589Y4653461D01*
G01X15182019Y4642031D01*
G01X15264061Y4802051D02*
G01X15247043Y4796209D01*
G01X15235613Y4779191D01*
G01X15229771Y4750489D01*
G01X15229771Y4733471D01*
G01X15235613Y4704769D01*
G01X15247043Y4687751D01*
G01X15264061Y4681909D01*
G01X15275491Y4681909D01*
G01X15292763Y4687751D01*
G01X15304193Y4704769D01*
G01X15309781Y4733471D01*
G01X15309781Y4750489D01*
G01X15304193Y4779191D01*
G01X15292763Y4796209D01*
G01X15275491Y4802051D01*
G01X15264061Y4802051D01*
G01X15363375Y4710611D02*
G01X15357533Y4704769D01*
G01X15363375Y4699181D01*
G01X15368963Y4704769D01*
G01X15363375Y4710611D01*
G01X15485295Y4784779D02*
G01X15479707Y4796209D01*
G01X15462435Y4802051D01*
G01X15451005Y4802051D01*
G01X15433987Y4796209D01*
G01X15422557Y4779191D01*
G01X15416715Y4750489D01*
G01X15416715Y4722041D01*
G01X15422557Y4699181D01*
G01X15433987Y4687751D01*
G01X15451005Y4681909D01*
G01X15456847Y4681909D01*
G01X15473865Y4687751D01*
G01X15485295Y4699181D01*
G01X15491137Y4716199D01*
G01X15491137Y4722041D01*
G01X15485295Y4739059D01*
G01X15473865Y4750489D01*
G01X15456847Y4756331D01*
G01X15451005Y4756331D01*
G01X15433987Y4750489D01*
G01X15422557Y4739059D01*
G01X15416715Y4722041D01*
G01X15573179Y4802051D02*
G01X15556161Y4796209D01*
G01X15544731Y4779191D01*
G01X15538889Y4750489D01*
G01X15538889Y4733471D01*
G01X15544731Y4704769D01*
G01X15556161Y4687751D01*
G01X15573179Y4681909D01*
G01X15584609Y4681909D01*
G01X15601881Y4687751D01*
G01X15613311Y4704769D01*
G01X15618899Y4733471D01*
G01X15618899Y4750489D01*
G01X15613311Y4779191D01*
G01X15601881Y4796209D01*
G01X15584609Y4802051D01*
G01X15573179Y4802051D01*
G01X15700941Y4802051D02*
G01X15683923Y4796209D01*
G01X15672493Y4779191D01*
G01X15666651Y4750489D01*
G01X15666651Y4733471D01*
G01X15672493Y4704769D01*
G01X15683923Y4687751D01*
G01X15700941Y4681909D01*
G01X15712371Y4681909D01*
G01X15729643Y4687751D01*
G01X15741073Y4704769D01*
G01X15746661Y4733471D01*
G01X15746661Y4750489D01*
G01X15741073Y4779191D01*
G01X15729643Y4796209D01*
G01X15712371Y4802051D01*
G01X15700941Y4802051D01*
G01X15794413Y4761919D02*
G01X15857405Y4681909D01*
G01X15857405Y4761919D02*
G01X15794413Y4681909D01*
G01X15905157Y4779191D02*
G01X15916587Y4784779D01*
G01X15933859Y4802051D01*
G01X15933859Y4681909D01*
G01X15987453Y4710611D02*
G01X15981611Y4704769D01*
G01X15987453Y4699181D01*
G01X15993041Y4704769D01*
G01X15987453Y4710611D01*
G01X16040793Y4779191D02*
G01X16052223Y4784779D01*
G01X16069495Y4802051D01*
G01X16069495Y4681909D01*
G01X16151537Y4802051D02*
G01X16134519Y4796209D01*
G01X16123089Y4779191D01*
G01X16117247Y4750489D01*
G01X16117247Y4733471D01*
G01X16123089Y4704769D01*
G01X16134519Y4687751D01*
G01X16151537Y4681909D01*
G01X16162967Y4681909D01*
G01X16180239Y4687751D01*
G01X16191669Y4704769D01*
G01X16197257Y4733471D01*
G01X16197257Y4750489D01*
G01X16191669Y4779191D01*
G01X16180239Y4796209D01*
G01X16162967Y4802051D01*
G01X16151537Y4802051D01*
G01X16279299Y4802051D02*
G01X16262281Y4796209D01*
G01X16250851Y4779191D01*
G01X16245009Y4750489D01*
G01X16245009Y4733471D01*
G01X16250851Y4704769D01*
G01X16262281Y4687751D01*
G01X16279299Y4681909D01*
G01X16290729Y4681909D01*
G01X16308001Y4687751D01*
G01X16319431Y4704769D01*
G01X16325019Y4733471D01*
G01X16325019Y4750489D01*
G01X16319431Y4779191D01*
G01X16308001Y4796209D01*
G01X16290729Y4802051D01*
G01X16279299Y4802051D01*
G01X16372771Y4761919D02*
G01X16372771Y4681909D01*
G01X16372771Y4739059D02*
G01X16390043Y4756331D01*
G01X16401473Y4761919D01*
G01X16418491Y4761919D01*
G01X16429921Y4756331D01*
G01X16435763Y4739059D01*
G01X16435763Y4681909D01*
G01X16435763Y4739059D02*
G01X16452781Y4756331D01*
G01X16464211Y4761919D01*
G01X16481483Y4761919D01*
G01X16492913Y4756331D01*
G01X16498501Y4739059D01*
G01X16498501Y4681909D01*
G01X16546253Y4761919D02*
G01X16546253Y4681909D01*
G01X16546253Y4739059D02*
G01X16563525Y4756331D01*
G01X16574955Y4761919D01*
G01X16591973Y4761919D01*
G01X16603403Y4756331D01*
G01X16609245Y4739059D01*
G01X16609245Y4681909D01*
G01X16609245Y4739059D02*
G01X16626263Y4756331D01*
G01X16637693Y4761919D01*
G01X16654965Y4761919D01*
G01X16666395Y4756331D01*
G01X16671983Y4739059D01*
G01X16671983Y4681909D01*
G01X16719735Y4824911D02*
G01X16731165Y4813481D01*
G01X16742595Y4796209D01*
G01X16754025Y4773349D01*
G01X16759867Y4744901D01*
G01X16759867Y4722041D01*
G01X16754025Y4693339D01*
G01X16742595Y4670479D01*
G01X16731165Y4653461D01*
G01X16719735Y4642031D01*
G01X17651045Y4802051D02*
G01X17651045Y4681909D01*
G01X17651045Y4802051D02*
G01X17702607Y4802051D01*
G01X17719625Y4796209D01*
G01X17725467Y4790621D01*
G01X17731055Y4779191D01*
G01X17731055Y4761919D01*
G01X17725467Y4750489D01*
G01X17719625Y4744901D01*
G01X17702607Y4739059D01*
G01X17651045Y4739059D01*
G01X17818939Y4802051D02*
G01X17818939Y4681909D01*
G01X17778807Y4802051D02*
G01X17858817Y4802051D01*
G01X17906569Y4802051D02*
G01X17906569Y4681909D01*
G01X17986579Y4802051D02*
G01X17986579Y4681909D01*
G01X17906569Y4744901D02*
G01X17986579Y4744901D01*
G01X19192462Y4784779D02*
G01X19181032Y4796209D01*
G01X19164014Y4802051D01*
G01X19141154Y4802051D01*
G01X19123882Y4796209D01*
G01X19112452Y4784779D01*
G01X19112452Y4773349D01*
G01X19118294Y4761919D01*
G01X19123882Y4756331D01*
G01X19135312Y4750489D01*
G01X19169602Y4739059D01*
G01X19181032Y4733471D01*
G01X19186874Y4727629D01*
G01X19192462Y4716199D01*
G01X19192462Y4699181D01*
G01X19181032Y4687751D01*
G01X19164014Y4681909D01*
G01X19141154Y4681909D01*
G01X19123882Y4687751D01*
G01X19112452Y4699181D01*
G01X19240214Y4802051D02*
G01X19240214Y4681909D01*
G01X19316668Y4761919D02*
G01X19305238Y4756331D01*
G01X19293808Y4744901D01*
G01X19287966Y4727629D01*
G01X19287966Y4716199D01*
G01X19293808Y4699181D01*
G01X19305238Y4687751D01*
G01X19316668Y4681909D01*
G01X19333686Y4681909D01*
G01X19345116Y4687751D01*
G01X19356546Y4699181D01*
G01X19362388Y4716199D01*
G01X19362388Y4727629D01*
G01X19356546Y4744901D01*
G01X19345116Y4756331D01*
G01X19333686Y4761919D01*
G01X19316668Y4761919D01*
G01X19427412Y4802051D02*
G01X19427412Y4704769D01*
G01X19433000Y4687751D01*
G01X19444430Y4681909D01*
G01X19455860Y4681909D01*
G01X19410140Y4761919D02*
G01X19450272Y4761919D01*
G01X20543633Y4802051D02*
G01X20543633Y4681909D01*
G01X20543633Y4802051D02*
G01X20595195Y4802051D01*
G01X20612213Y4796209D01*
G01X20618055Y4790621D01*
G01X20623643Y4779191D01*
G01X20623643Y4761919D01*
G01X20618055Y4750489D01*
G01X20612213Y4744901D01*
G01X20595195Y4739059D01*
G01X20543633Y4739059D01*
G01X20739975Y4761919D02*
G01X20739975Y4681909D01*
G01X20739975Y4744901D02*
G01X20728545Y4756331D01*
G01X20717115Y4761919D01*
G01X20700097Y4761919D01*
G01X20688667Y4756331D01*
G01X20677237Y4744901D01*
G01X20671395Y4727629D01*
G01X20671395Y4716199D01*
G01X20677237Y4699181D01*
G01X20688667Y4687751D01*
G01X20700097Y4681909D01*
G01X20717115Y4681909D01*
G01X20728545Y4687751D01*
G01X20739975Y4699181D01*
G01X20856307Y4802051D02*
G01X20856307Y4681909D01*
G01X20856307Y4744901D02*
G01X20844877Y4756331D01*
G01X20833447Y4761919D01*
G01X20816429Y4761919D01*
G01X20804999Y4756331D01*
G01X20793569Y4744901D01*
G01X20787727Y4727629D01*
G01X20787727Y4716199D01*
G01X20793569Y4699181D01*
G01X20804999Y4687751D01*
G01X20816429Y4681909D01*
G01X20833447Y4681909D01*
G01X20844877Y4687751D01*
G01X20856307Y4699181D01*
G01X22247102Y4802051D02*
G01X22235672Y4796209D01*
G01X22224242Y4784779D01*
G01X22218654Y4773349D01*
G01X22212812Y4756331D01*
G01X22212812Y4727629D01*
G01X22218654Y4710611D01*
G01X22224242Y4699181D01*
G01X22235672Y4687751D01*
G01X22247102Y4681909D01*
G01X22269962Y4681909D01*
G01X22281392Y4687751D01*
G01X22292822Y4699181D01*
G01X22298664Y4710611D01*
G01X22304252Y4727629D01*
G01X22304252Y4756331D01*
G01X22298664Y4773349D01*
G01X22292822Y4784779D01*
G01X22281392Y4796209D01*
G01X22269962Y4802051D01*
G01X22247102Y4802051D01*
G01X22352004Y4761919D02*
G01X22386294Y4681909D01*
G01X22420584Y4761919D02*
G01X22386294Y4681909D01*
G01X22536916Y4761919D02*
G01X22536916Y4681909D01*
G01X22536916Y4744901D02*
G01X22525486Y4756331D01*
G01X22514056Y4761919D01*
G01X22497038Y4761919D01*
G01X22485608Y4756331D01*
G01X22474178Y4744901D01*
G01X22468336Y4727629D01*
G01X22468336Y4716199D01*
G01X22474178Y4699181D01*
G01X22485608Y4687751D01*
G01X22497038Y4681909D01*
G01X22514056Y4681909D01*
G01X22525486Y4687751D01*
G01X22536916Y4699181D01*
G01X22584668Y4802051D02*
G01X22584668Y4681909D01*
G01X24172313Y4802051D02*
G01X24172313Y4681909D01*
G01X24132181Y4802051D02*
G01X24212191Y4802051D01*
G01X24288645Y4761919D02*
G01X24277215Y4756331D01*
G01X24265785Y4744901D01*
G01X24259943Y4727629D01*
G01X24259943Y4716199D01*
G01X24265785Y4699181D01*
G01X24277215Y4687751D01*
G01X24288645Y4681909D01*
G01X24305663Y4681909D01*
G01X24317093Y4687751D01*
G01X24328523Y4699181D01*
G01X24334365Y4716199D01*
G01X24334365Y4727629D01*
G01X24328523Y4744901D01*
G01X24317093Y4756331D01*
G01X24305663Y4761919D01*
G01X24288645Y4761919D01*
G01X24382117Y4761919D02*
G01X24382117Y4642031D01*
G01X24382117Y4744901D02*
G01X24393547Y4756331D01*
G01X24404977Y4761919D01*
G01X24422249Y4761919D01*
G01X24433679Y4756331D01*
G01X24445109Y4744901D01*
G01X24450697Y4727629D01*
G01X24450697Y4716199D01*
G01X24445109Y4699181D01*
G01X24433679Y4687751D01*
G01X24422249Y4681909D01*
G01X24404977Y4681909D01*
G01X24393547Y4687751D01*
G01X24382117Y4699181D01*
G01X24626465Y4802051D02*
G01X24626465Y4681909D01*
G01X24626465Y4681909D02*
G01X24695045Y4681909D01*
G01X24811377Y4761919D02*
G01X24811377Y4681909D01*
G01X24811377Y4744901D02*
G01X24799947Y4756331D01*
G01X24788517Y4761919D01*
G01X24771499Y4761919D01*
G01X24760069Y4756331D01*
G01X24748639Y4744901D01*
G01X24742797Y4727629D01*
G01X24742797Y4716199D01*
G01X24748639Y4699181D01*
G01X24760069Y4687751D01*
G01X24771499Y4681909D01*
G01X24788517Y4681909D01*
G01X24799947Y4687751D01*
G01X24811377Y4699181D01*
G01X24864971Y4761919D02*
G01X24899261Y4681909D01*
G01X24933551Y4761919D02*
G01X24899261Y4681909D01*
G01X24887831Y4659049D01*
G01X24876401Y4647619D01*
G01X24864971Y4642031D01*
G01X24859129Y4642031D01*
G01X24981303Y4727629D02*
G01X25049883Y4727629D01*
G01X25049883Y4739059D01*
G01X25044295Y4750489D01*
G01X25038453Y4756331D01*
G01X25027023Y4761919D01*
G01X25010005Y4761919D01*
G01X24998575Y4756331D01*
G01X24987145Y4744901D01*
G01X24981303Y4727629D01*
G01X24981303Y4716199D01*
G01X24987145Y4699181D01*
G01X24998575Y4687751D01*
G01X25010005Y4681909D01*
G01X25027023Y4681909D01*
G01X25038453Y4687751D01*
G01X25049883Y4699181D01*
G01X25097635Y4761919D02*
G01X25097635Y4681909D01*
G01X25097635Y4727629D02*
G01X25103477Y4744901D01*
G01X25114907Y4756331D01*
G01X25126337Y4761919D01*
G01X25143355Y4761919D01*
G01X25191107Y4733471D02*
G01X25293977Y4733471D01*
G01X25341729Y4802051D02*
G01X25341729Y4681909D01*
G01X25341729Y4802051D02*
G01X25393291Y4802051D01*
G01X25410309Y4796209D01*
G01X25416151Y4790621D01*
G01X25421739Y4779191D01*
G01X25421739Y4767761D01*
G01X25416151Y4756331D01*
G01X25410309Y4750489D01*
G01X25393291Y4744901D01*
G01X25341729Y4744901D02*
G01X25393291Y4744901D01*
G01X25410309Y4739059D01*
G01X25416151Y4733471D01*
G01X25421739Y4722041D01*
G01X25421739Y4704769D01*
G01X25416151Y4693339D01*
G01X25410309Y4687751D01*
G01X25393291Y4681909D01*
G01X25341729Y4681909D01*
G01X25498193Y4761919D02*
G01X25486763Y4756331D01*
G01X25475333Y4744901D01*
G01X25469491Y4727629D01*
G01X25469491Y4716199D01*
G01X25475333Y4699181D01*
G01X25486763Y4687751D01*
G01X25498193Y4681909D01*
G01X25515211Y4681909D01*
G01X25526641Y4687751D01*
G01X25538071Y4699181D01*
G01X25543913Y4716199D01*
G01X25543913Y4727629D01*
G01X25538071Y4744901D01*
G01X25526641Y4756331D01*
G01X25515211Y4761919D01*
G01X25498193Y4761919D01*
G01X25608937Y4802051D02*
G01X25608937Y4704769D01*
G01X25614525Y4687751D01*
G01X25625955Y4681909D01*
G01X25637385Y4681909D01*
G01X25591665Y4761919D02*
G01X25631797Y4761919D01*
G01X25702409Y4802051D02*
G01X25702409Y4704769D01*
G01X25707997Y4687751D01*
G01X25719427Y4681909D01*
G01X25730857Y4681909D01*
G01X25685137Y4761919D02*
G01X25725269Y4761919D01*
G01X25807311Y4761919D02*
G01X25795881Y4756331D01*
G01X25784451Y4744901D01*
G01X25778609Y4727629D01*
G01X25778609Y4716199D01*
G01X25784451Y4699181D01*
G01X25795881Y4687751D01*
G01X25807311Y4681909D01*
G01X25824329Y4681909D01*
G01X25835759Y4687751D01*
G01X25847189Y4699181D01*
G01X25853031Y4716199D01*
G01X25853031Y4727629D01*
G01X25847189Y4744901D01*
G01X25835759Y4756331D01*
G01X25824329Y4761919D01*
G01X25807311Y4761919D01*
G01X25900783Y4761919D02*
G01X25900783Y4681909D01*
G01X25900783Y4739059D02*
G01X25918055Y4756331D01*
G01X25929485Y4761919D01*
G01X25946503Y4761919D01*
G01X25957933Y4756331D01*
G01X25963775Y4739059D01*
G01X25963775Y4681909D01*
G01X25963775Y4739059D02*
G01X25980793Y4756331D01*
G01X25992223Y4761919D01*
G01X26009495Y4761919D01*
G01X26020925Y4756331D01*
G01X26026513Y4739059D01*
G01X26026513Y4681909D01*
G01X26202281Y4802051D02*
G01X26202281Y4681909D01*
G01X26202281Y4681909D02*
G01X26270861Y4681909D01*
G01X26387193Y4761919D02*
G01X26387193Y4681909D01*
G01X26387193Y4744901D02*
G01X26375763Y4756331D01*
G01X26364333Y4761919D01*
G01X26347315Y4761919D01*
G01X26335885Y4756331D01*
G01X26324455Y4744901D01*
G01X26318613Y4727629D01*
G01X26318613Y4716199D01*
G01X26324455Y4699181D01*
G01X26335885Y4687751D01*
G01X26347315Y4681909D01*
G01X26364333Y4681909D01*
G01X26375763Y4687751D01*
G01X26387193Y4699181D01*
G01X26440787Y4761919D02*
G01X26475077Y4681909D01*
G01X26509367Y4761919D02*
G01X26475077Y4681909D01*
G01X26463647Y4659049D01*
G01X26452217Y4647619D01*
G01X26440787Y4642031D01*
G01X26434945Y4642031D01*
G01X26557119Y4727629D02*
G01X26625699Y4727629D01*
G01X26625699Y4739059D01*
G01X26620111Y4750489D01*
G01X26614269Y4756331D01*
G01X26602839Y4761919D01*
G01X26585821Y4761919D01*
G01X26574391Y4756331D01*
G01X26562961Y4744901D01*
G01X26557119Y4727629D01*
G01X26557119Y4716199D01*
G01X26562961Y4699181D01*
G01X26574391Y4687751D01*
G01X26585821Y4681909D01*
G01X26602839Y4681909D01*
G01X26614269Y4687751D01*
G01X26625699Y4699181D01*
G01X26673451Y4761919D02*
G01X26673451Y4681909D01*
G01X26673451Y4727629D02*
G01X26679293Y4744901D01*
G01X26690723Y4756331D01*
G01X26702153Y4761919D01*
G01X26719171Y4761919D01*
G01X12457216Y4192778D02*
G01X12457216Y4198620D01*
G01X12462804Y4210050D01*
G01X12468646Y4215638D01*
G01X12480076Y4221480D01*
G01X12502936Y4221480D01*
G01X12514366Y4215638D01*
G01X12519954Y4210050D01*
G01X12525796Y4198620D01*
G01X12525796Y4187190D01*
G01X12519954Y4175760D01*
G01X12508524Y4158488D01*
G01X12451374Y4101338D01*
G01X12531384Y4101338D01*
G01X13871379Y4192778D02*
G01X13871379Y4198620D01*
G01X13876967Y4210050D01*
G01X13882809Y4215638D01*
G01X13894239Y4221480D01*
G01X13917099Y4221480D01*
G01X13928529Y4215638D01*
G01X13934117Y4210050D01*
G01X13939959Y4198620D01*
G01X13939959Y4187190D01*
G01X13934117Y4175760D01*
G01X13922687Y4158488D01*
G01X13865537Y4101338D01*
G01X13945547Y4101338D01*
G01X14061879Y4221480D02*
G01X14004729Y4221480D01*
G01X13999141Y4169918D01*
G01X14004729Y4175760D01*
G01X14022001Y4181348D01*
G01X14039019Y4181348D01*
G01X14056291Y4175760D01*
G01X14067721Y4164330D01*
G01X14073309Y4147058D01*
G01X14073309Y4135628D01*
G01X14067721Y4118610D01*
G01X14056291Y4107180D01*
G01X14039019Y4101338D01*
G01X14022001Y4101338D01*
G01X14004729Y4107180D01*
G01X13999141Y4112768D01*
G01X13993299Y4124198D01*
G01X14126903Y4130040D02*
G01X14121061Y4124198D01*
G01X14126903Y4118610D01*
G01X14132491Y4124198D01*
G01X14126903Y4130040D01*
G01X14248823Y4204208D02*
G01X14243235Y4215638D01*
G01X14225963Y4221480D01*
G01X14214533Y4221480D01*
G01X14197515Y4215638D01*
G01X14186085Y4198620D01*
G01X14180243Y4169918D01*
G01X14180243Y4141470D01*
G01X14186085Y4118610D01*
G01X14197515Y4107180D01*
G01X14214533Y4101338D01*
G01X14220375Y4101338D01*
G01X14237393Y4107180D01*
G01X14248823Y4118610D01*
G01X14254665Y4135628D01*
G01X14254665Y4141470D01*
G01X14248823Y4158488D01*
G01X14237393Y4169918D01*
G01X14220375Y4175760D01*
G01X14214533Y4175760D01*
G01X14197515Y4169918D01*
G01X14186085Y4158488D01*
G01X14180243Y4141470D01*
G01X14302417Y4181348D02*
G01X14302417Y4101338D01*
G01X14302417Y4158488D02*
G01X14319689Y4175760D01*
G01X14331119Y4181348D01*
G01X14348137Y4181348D01*
G01X14359567Y4175760D01*
G01X14365409Y4158488D01*
G01X14365409Y4101338D01*
G01X14365409Y4158488D02*
G01X14382427Y4175760D01*
G01X14393857Y4181348D01*
G01X14411129Y4181348D01*
G01X14422559Y4175760D01*
G01X14428147Y4158488D01*
G01X14428147Y4101338D01*
G01X14475899Y4221480D02*
G01X14481741Y4215638D01*
G01X14487329Y4221480D01*
G01X14481741Y4227068D01*
G01X14475899Y4221480D01*
G01X14481741Y4181348D02*
G01X14481741Y4101338D01*
G01X14535081Y4221480D02*
G01X14535081Y4101338D01*
G01X14622965Y4244340D02*
G01X14611535Y4232910D01*
G01X14600105Y4215638D01*
G01X14588675Y4192778D01*
G01X14582833Y4164330D01*
G01X14582833Y4141470D01*
G01X14588675Y4112768D01*
G01X14600105Y4089908D01*
G01X14611535Y4072890D01*
G01X14622965Y4061460D01*
G01X14705007Y4221480D02*
G01X14687989Y4215638D01*
G01X14676559Y4198620D01*
G01X14670717Y4169918D01*
G01X14670717Y4152900D01*
G01X14676559Y4124198D01*
G01X14687989Y4107180D01*
G01X14705007Y4101338D01*
G01X14716437Y4101338D01*
G01X14733709Y4107180D01*
G01X14745139Y4124198D01*
G01X14750727Y4152900D01*
G01X14750727Y4169918D01*
G01X14745139Y4198620D01*
G01X14733709Y4215638D01*
G01X14716437Y4221480D01*
G01X14705007Y4221480D01*
G01X14804321Y4130040D02*
G01X14798479Y4124198D01*
G01X14804321Y4118610D01*
G01X14809909Y4124198D01*
G01X14804321Y4130040D01*
G01X14926241Y4204208D02*
G01X14920653Y4215638D01*
G01X14903381Y4221480D01*
G01X14891951Y4221480D01*
G01X14874933Y4215638D01*
G01X14863503Y4198620D01*
G01X14857661Y4169918D01*
G01X14857661Y4141470D01*
G01X14863503Y4118610D01*
G01X14874933Y4107180D01*
G01X14891951Y4101338D01*
G01X14897793Y4101338D01*
G01X14914811Y4107180D01*
G01X14926241Y4118610D01*
G01X14932083Y4135628D01*
G01X14932083Y4141470D01*
G01X14926241Y4158488D01*
G01X14914811Y4169918D01*
G01X14897793Y4175760D01*
G01X14891951Y4175760D01*
G01X14874933Y4169918D01*
G01X14863503Y4158488D01*
G01X14857661Y4141470D01*
G01X15048415Y4221480D02*
G01X14991265Y4221480D01*
G01X14985677Y4169918D01*
G01X14991265Y4175760D01*
G01X15008537Y4181348D01*
G01X15025555Y4181348D01*
G01X15042827Y4175760D01*
G01X15054257Y4164330D01*
G01X15059845Y4147058D01*
G01X15059845Y4135628D01*
G01X15054257Y4118610D01*
G01X15042827Y4107180D01*
G01X15025555Y4101338D01*
G01X15008537Y4101338D01*
G01X14991265Y4107180D01*
G01X14985677Y4112768D01*
G01X14979835Y4124198D01*
G01X15141887Y4221480D02*
G01X15124869Y4215638D01*
G01X15113439Y4198620D01*
G01X15107597Y4169918D01*
G01X15107597Y4152900D01*
G01X15113439Y4124198D01*
G01X15124869Y4107180D01*
G01X15141887Y4101338D01*
G01X15153317Y4101338D01*
G01X15170589Y4107180D01*
G01X15182019Y4124198D01*
G01X15187607Y4152900D01*
G01X15187607Y4169918D01*
G01X15182019Y4198620D01*
G01X15170589Y4215638D01*
G01X15153317Y4221480D01*
G01X15141887Y4221480D01*
G01X15235359Y4181348D02*
G01X15235359Y4101338D01*
G01X15235359Y4158488D02*
G01X15252631Y4175760D01*
G01X15264061Y4181348D01*
G01X15281079Y4181348D01*
G01X15292509Y4175760D01*
G01X15298351Y4158488D01*
G01X15298351Y4101338D01*
G01X15298351Y4158488D02*
G01X15315369Y4175760D01*
G01X15326799Y4181348D01*
G01X15344071Y4181348D01*
G01X15355501Y4175760D01*
G01X15361089Y4158488D01*
G01X15361089Y4101338D01*
G01X15408841Y4181348D02*
G01X15408841Y4101338D01*
G01X15408841Y4158488D02*
G01X15426113Y4175760D01*
G01X15437543Y4181348D01*
G01X15454561Y4181348D01*
G01X15465991Y4175760D01*
G01X15471833Y4158488D01*
G01X15471833Y4101338D01*
G01X15471833Y4158488D02*
G01X15488851Y4175760D01*
G01X15500281Y4181348D01*
G01X15517553Y4181348D01*
G01X15528983Y4175760D01*
G01X15534571Y4158488D01*
G01X15534571Y4101338D01*
G01X15582323Y4244340D02*
G01X15593753Y4232910D01*
G01X15605183Y4215638D01*
G01X15616613Y4192778D01*
G01X15622455Y4164330D01*
G01X15622455Y4141470D01*
G01X15616613Y4112768D01*
G01X15605183Y4089908D01*
G01X15593753Y4072890D01*
G01X15582323Y4061460D01*
G01X17651045Y4221480D02*
G01X17651045Y4101338D01*
G01X17651045Y4221480D02*
G01X17731055Y4101338D01*
G01X17731055Y4221480D02*
G01X17731055Y4101338D01*
G01X17778807Y4221480D02*
G01X17778807Y4101338D01*
G01X17778807Y4221480D02*
G01X17830369Y4221480D01*
G01X17847387Y4215638D01*
G01X17853229Y4210050D01*
G01X17858817Y4198620D01*
G01X17858817Y4181348D01*
G01X17853229Y4169918D01*
G01X17847387Y4164330D01*
G01X17830369Y4158488D01*
G01X17778807Y4158488D01*
G01X17946701Y4221480D02*
G01X17946701Y4101338D01*
G01X17906569Y4221480D02*
G01X17986579Y4221480D01*
G01X18034331Y4221480D02*
G01X18034331Y4101338D01*
G01X18114341Y4221480D02*
G01X18114341Y4101338D01*
G01X18034331Y4164330D02*
G01X18114341Y4164330D01*
G01X19112452Y4221480D02*
G01X19112452Y4101338D01*
G01X19112452Y4221480D02*
G01X19164014Y4221480D01*
G01X19181032Y4215638D01*
G01X19186874Y4210050D01*
G01X19192462Y4198620D01*
G01X19192462Y4187190D01*
G01X19186874Y4175760D01*
G01X19181032Y4169918D01*
G01X19164014Y4164330D01*
G01X19112452Y4164330D01*
G01X19152584Y4164330D02*
G01X19192462Y4101338D01*
G01X19268916Y4181348D02*
G01X19257486Y4175760D01*
G01X19246056Y4164330D01*
G01X19240214Y4147058D01*
G01X19240214Y4135628D01*
G01X19246056Y4118610D01*
G01X19257486Y4107180D01*
G01X19268916Y4101338D01*
G01X19285934Y4101338D01*
G01X19297364Y4107180D01*
G01X19308794Y4118610D01*
G01X19314636Y4135628D01*
G01X19314636Y4147058D01*
G01X19308794Y4164330D01*
G01X19297364Y4175760D01*
G01X19285934Y4181348D01*
G01X19268916Y4181348D01*
G01X19362388Y4181348D02*
G01X19362388Y4124198D01*
G01X19368230Y4107180D01*
G01X19379660Y4101338D01*
G01X19396678Y4101338D01*
G01X19408108Y4107180D01*
G01X19425380Y4124198D01*
G01X19425380Y4181348D02*
G01X19425380Y4101338D01*
G01X19473132Y4181348D02*
G01X19473132Y4101338D01*
G01X19473132Y4158488D02*
G01X19490404Y4175760D01*
G01X19501834Y4181348D01*
G01X19518852Y4181348D01*
G01X19530282Y4175760D01*
G01X19536124Y4158488D01*
G01X19536124Y4101338D01*
G01X19652456Y4221480D02*
G01X19652456Y4101338D01*
G01X19652456Y4164330D02*
G01X19641026Y4175760D01*
G01X19629596Y4181348D01*
G01X19612578Y4181348D01*
G01X19601148Y4175760D01*
G01X19589718Y4164330D01*
G01X19583876Y4147058D01*
G01X19583876Y4135628D01*
G01X19589718Y4118610D01*
G01X19601148Y4107180D01*
G01X19612578Y4101338D01*
G01X19629596Y4101338D01*
G01X19641026Y4107180D01*
G01X19652456Y4118610D01*
G01X20543633Y4221480D02*
G01X20589353Y4101338D01*
G01X20635073Y4221480D02*
G01X20589353Y4101338D01*
G01X20682825Y4221480D02*
G01X20688667Y4215638D01*
G01X20694255Y4221480D01*
G01X20688667Y4227068D01*
G01X20682825Y4221480D01*
G01X20688667Y4181348D02*
G01X20688667Y4101338D01*
G01X20810587Y4181348D02*
G01X20810587Y4101338D01*
G01X20810587Y4164330D02*
G01X20799157Y4175760D01*
G01X20787727Y4181348D01*
G01X20770709Y4181348D01*
G01X20759279Y4175760D01*
G01X20747849Y4164330D01*
G01X20742007Y4147058D01*
G01X20742007Y4135628D01*
G01X20747849Y4118610D01*
G01X20759279Y4107180D01*
G01X20770709Y4101338D01*
G01X20787727Y4101338D01*
G01X20799157Y4107180D01*
G01X20810587Y4118610D01*
G01X24172313Y4221480D02*
G01X24172313Y4101338D01*
G01X24132181Y4221480D02*
G01X24212191Y4221480D01*
G01X24288645Y4181348D02*
G01X24277215Y4175760D01*
G01X24265785Y4164330D01*
G01X24259943Y4147058D01*
G01X24259943Y4135628D01*
G01X24265785Y4118610D01*
G01X24277215Y4107180D01*
G01X24288645Y4101338D01*
G01X24305663Y4101338D01*
G01X24317093Y4107180D01*
G01X24328523Y4118610D01*
G01X24334365Y4135628D01*
G01X24334365Y4147058D01*
G01X24328523Y4164330D01*
G01X24317093Y4175760D01*
G01X24305663Y4181348D01*
G01X24288645Y4181348D01*
G01X24382117Y4181348D02*
G01X24382117Y4061460D01*
G01X24382117Y4164330D02*
G01X24393547Y4175760D01*
G01X24404977Y4181348D01*
G01X24422249Y4181348D01*
G01X24433679Y4175760D01*
G01X24445109Y4164330D01*
G01X24450697Y4147058D01*
G01X24450697Y4135628D01*
G01X24445109Y4118610D01*
G01X24433679Y4107180D01*
G01X24422249Y4101338D01*
G01X24404977Y4101338D01*
G01X24393547Y4107180D01*
G01X24382117Y4118610D01*
G01X24626465Y4221480D02*
G01X24626465Y4101338D01*
G01X24626465Y4101338D02*
G01X24695045Y4101338D01*
G01X24811377Y4181348D02*
G01X24811377Y4101338D01*
G01X24811377Y4164330D02*
G01X24799947Y4175760D01*
G01X24788517Y4181348D01*
G01X24771499Y4181348D01*
G01X24760069Y4175760D01*
G01X24748639Y4164330D01*
G01X24742797Y4147058D01*
G01X24742797Y4135628D01*
G01X24748639Y4118610D01*
G01X24760069Y4107180D01*
G01X24771499Y4101338D01*
G01X24788517Y4101338D01*
G01X24799947Y4107180D01*
G01X24811377Y4118610D01*
G01X24864971Y4181348D02*
G01X24899261Y4101338D01*
G01X24933551Y4181348D02*
G01X24899261Y4101338D01*
G01X24887831Y4078478D01*
G01X24876401Y4067048D01*
G01X24864971Y4061460D01*
G01X24859129Y4061460D01*
G01X24981303Y4147058D02*
G01X25049883Y4147058D01*
G01X25049883Y4158488D01*
G01X25044295Y4169918D01*
G01X25038453Y4175760D01*
G01X25027023Y4181348D01*
G01X25010005Y4181348D01*
G01X24998575Y4175760D01*
G01X24987145Y4164330D01*
G01X24981303Y4147058D01*
G01X24981303Y4135628D01*
G01X24987145Y4118610D01*
G01X24998575Y4107180D01*
G01X25010005Y4101338D01*
G01X25027023Y4101338D01*
G01X25038453Y4107180D01*
G01X25049883Y4118610D01*
G01X25097635Y4181348D02*
G01X25097635Y4101338D01*
G01X25097635Y4147058D02*
G01X25103477Y4164330D01*
G01X25114907Y4175760D01*
G01X25126337Y4181348D01*
G01X25143355Y4181348D01*
G01X25191107Y4152900D02*
G01X25293977Y4152900D01*
G01X25341729Y4221480D02*
G01X25341729Y4101338D01*
G01X25341729Y4221480D02*
G01X25393291Y4221480D01*
G01X25410309Y4215638D01*
G01X25416151Y4210050D01*
G01X25421739Y4198620D01*
G01X25421739Y4187190D01*
G01X25416151Y4175760D01*
G01X25410309Y4169918D01*
G01X25393291Y4164330D01*
G01X25341729Y4164330D02*
G01X25393291Y4164330D01*
G01X25410309Y4158488D01*
G01X25416151Y4152900D01*
G01X25421739Y4141470D01*
G01X25421739Y4124198D01*
G01X25416151Y4112768D01*
G01X25410309Y4107180D01*
G01X25393291Y4101338D01*
G01X25341729Y4101338D01*
G01X25498193Y4181348D02*
G01X25486763Y4175760D01*
G01X25475333Y4164330D01*
G01X25469491Y4147058D01*
G01X25469491Y4135628D01*
G01X25475333Y4118610D01*
G01X25486763Y4107180D01*
G01X25498193Y4101338D01*
G01X25515211Y4101338D01*
G01X25526641Y4107180D01*
G01X25538071Y4118610D01*
G01X25543913Y4135628D01*
G01X25543913Y4147058D01*
G01X25538071Y4164330D01*
G01X25526641Y4175760D01*
G01X25515211Y4181348D01*
G01X25498193Y4181348D01*
G01X25608937Y4221480D02*
G01X25608937Y4124198D01*
G01X25614525Y4107180D01*
G01X25625955Y4101338D01*
G01X25637385Y4101338D01*
G01X25591665Y4181348D02*
G01X25631797Y4181348D01*
G01X25702409Y4221480D02*
G01X25702409Y4124198D01*
G01X25707997Y4107180D01*
G01X25719427Y4101338D01*
G01X25730857Y4101338D01*
G01X25685137Y4181348D02*
G01X25725269Y4181348D01*
G01X25807311Y4181348D02*
G01X25795881Y4175760D01*
G01X25784451Y4164330D01*
G01X25778609Y4147058D01*
G01X25778609Y4135628D01*
G01X25784451Y4118610D01*
G01X25795881Y4107180D01*
G01X25807311Y4101338D01*
G01X25824329Y4101338D01*
G01X25835759Y4107180D01*
G01X25847189Y4118610D01*
G01X25853031Y4135628D01*
G01X25853031Y4147058D01*
G01X25847189Y4164330D01*
G01X25835759Y4175760D01*
G01X25824329Y4181348D01*
G01X25807311Y4181348D01*
G01X25900783Y4181348D02*
G01X25900783Y4101338D01*
G01X25900783Y4158488D02*
G01X25918055Y4175760D01*
G01X25929485Y4181348D01*
G01X25946503Y4181348D01*
G01X25957933Y4175760D01*
G01X25963775Y4158488D01*
G01X25963775Y4101338D01*
G01X25963775Y4158488D02*
G01X25980793Y4175760D01*
G01X25992223Y4181348D01*
G01X26009495Y4181348D01*
G01X26020925Y4175760D01*
G01X26026513Y4158488D01*
G01X26026513Y4101338D01*
G01X26202281Y4221480D02*
G01X26202281Y4101338D01*
G01X26202281Y4101338D02*
G01X26270861Y4101338D01*
G01X26387193Y4181348D02*
G01X26387193Y4101338D01*
G01X26387193Y4164330D02*
G01X26375763Y4175760D01*
G01X26364333Y4181348D01*
G01X26347315Y4181348D01*
G01X26335885Y4175760D01*
G01X26324455Y4164330D01*
G01X26318613Y4147058D01*
G01X26318613Y4135628D01*
G01X26324455Y4118610D01*
G01X26335885Y4107180D01*
G01X26347315Y4101338D01*
G01X26364333Y4101338D01*
G01X26375763Y4107180D01*
G01X26387193Y4118610D01*
G01X26440787Y4181348D02*
G01X26475077Y4101338D01*
G01X26509367Y4181348D02*
G01X26475077Y4101338D01*
G01X26463647Y4078478D01*
G01X26452217Y4067048D01*
G01X26440787Y4061460D01*
G01X26434945Y4061460D01*
G01X26557119Y4147058D02*
G01X26625699Y4147058D01*
G01X26625699Y4158488D01*
G01X26620111Y4169918D01*
G01X26614269Y4175760D01*
G01X26602839Y4181348D01*
G01X26585821Y4181348D01*
G01X26574391Y4175760D01*
G01X26562961Y4164330D01*
G01X26557119Y4147058D01*
G01X26557119Y4135628D01*
G01X26562961Y4118610D01*
G01X26574391Y4107180D01*
G01X26585821Y4101338D01*
G01X26602839Y4101338D01*
G01X26614269Y4107180D01*
G01X26625699Y4118610D01*
G01X26673451Y4181348D02*
G01X26673451Y4101338D01*
G01X26673451Y4147058D02*
G01X26679293Y4164330D01*
G01X26690723Y4175760D01*
G01X26702153Y4181348D01*
G01X26719171Y4181348D01*
G01X12519954Y3623637D02*
G01X12514366Y3635067D01*
G01X12497094Y3640909D01*
G01X12485664Y3640909D01*
G01X12468646Y3635067D01*
G01X12457216Y3618049D01*
G01X12451374Y3589347D01*
G01X12451374Y3560899D01*
G01X12457216Y3538039D01*
G01X12468646Y3526609D01*
G01X12485664Y3520767D01*
G01X12491506Y3520767D01*
G01X12508524Y3526609D01*
G01X12519954Y3538039D01*
G01X12525796Y3555057D01*
G01X12525796Y3560899D01*
G01X12519954Y3577917D01*
G01X12508524Y3589347D01*
G01X12491506Y3595189D01*
G01X12485664Y3595189D01*
G01X12468646Y3589347D01*
G01X12457216Y3577917D01*
G01X12451374Y3560899D01*
G01X12607838Y3640909D02*
G01X12590820Y3635067D01*
G01X12579390Y3618049D01*
G01X12573548Y3589347D01*
G01X12573548Y3572329D01*
G01X12579390Y3543627D01*
G01X12590820Y3526609D01*
G01X12607838Y3520767D01*
G01X12619268Y3520767D01*
G01X12636540Y3526609D01*
G01X12647970Y3543627D01*
G01X12653558Y3572329D01*
G01X12653558Y3589347D01*
G01X12647970Y3618049D01*
G01X12636540Y3635067D01*
G01X12619268Y3640909D01*
G01X12607838Y3640909D01*
G01X13865537Y3618049D02*
G01X13876967Y3623637D01*
G01X13894239Y3640909D01*
G01X13894239Y3520767D01*
G01X13947833Y3612207D02*
G01X13947833Y3618049D01*
G01X13953421Y3629479D01*
G01X13959263Y3635067D01*
G01X13970693Y3640909D01*
G01X13993553Y3640909D01*
G01X14004983Y3635067D01*
G01X14010571Y3629479D01*
G01X14016413Y3618049D01*
G01X14016413Y3606619D01*
G01X14010571Y3595189D01*
G01X13999141Y3577917D01*
G01X13941991Y3520767D01*
G01X14022001Y3520767D01*
G01X14075595Y3549469D02*
G01X14069753Y3543627D01*
G01X14075595Y3538039D01*
G01X14081183Y3543627D01*
G01X14075595Y3549469D01*
G01X14163225Y3640909D02*
G01X14146207Y3635067D01*
G01X14134777Y3618049D01*
G01X14128935Y3589347D01*
G01X14128935Y3572329D01*
G01X14134777Y3543627D01*
G01X14146207Y3526609D01*
G01X14163225Y3520767D01*
G01X14174655Y3520767D01*
G01X14191927Y3526609D01*
G01X14203357Y3543627D01*
G01X14208945Y3572329D01*
G01X14208945Y3589347D01*
G01X14203357Y3618049D01*
G01X14191927Y3635067D01*
G01X14174655Y3640909D01*
G01X14163225Y3640909D01*
G01X14256697Y3600777D02*
G01X14256697Y3520767D01*
G01X14256697Y3577917D02*
G01X14273969Y3595189D01*
G01X14285399Y3600777D01*
G01X14302417Y3600777D01*
G01X14313847Y3595189D01*
G01X14319689Y3577917D01*
G01X14319689Y3520767D01*
G01X14319689Y3577917D02*
G01X14336707Y3595189D01*
G01X14348137Y3600777D01*
G01X14365409Y3600777D01*
G01X14376839Y3595189D01*
G01X14382427Y3577917D01*
G01X14382427Y3520767D01*
G01X14430179Y3640909D02*
G01X14436021Y3635067D01*
G01X14441609Y3640909D01*
G01X14436021Y3646497D01*
G01X14430179Y3640909D01*
G01X14436021Y3600777D02*
G01X14436021Y3520767D01*
G01X14489361Y3640909D02*
G01X14489361Y3520767D01*
G01X14577245Y3663769D02*
G01X14565815Y3652339D01*
G01X14554385Y3635067D01*
G01X14542955Y3612207D01*
G01X14537113Y3583759D01*
G01X14537113Y3560899D01*
G01X14542955Y3532197D01*
G01X14554385Y3509337D01*
G01X14565815Y3492319D01*
G01X14577245Y3480889D01*
G01X14659287Y3640909D02*
G01X14642269Y3635067D01*
G01X14630839Y3618049D01*
G01X14624997Y3589347D01*
G01X14624997Y3572329D01*
G01X14630839Y3543627D01*
G01X14642269Y3526609D01*
G01X14659287Y3520767D01*
G01X14670717Y3520767D01*
G01X14687989Y3526609D01*
G01X14699419Y3543627D01*
G01X14705007Y3572329D01*
G01X14705007Y3589347D01*
G01X14699419Y3618049D01*
G01X14687989Y3635067D01*
G01X14670717Y3640909D01*
G01X14659287Y3640909D01*
G01X14758601Y3549469D02*
G01X14752759Y3543627D01*
G01X14758601Y3538039D01*
G01X14764189Y3543627D01*
G01X14758601Y3549469D01*
G01X14823371Y3640909D02*
G01X14886363Y3640909D01*
G01X14852073Y3595189D01*
G01X14869091Y3595189D01*
G01X14880521Y3589347D01*
G01X14886363Y3583759D01*
G01X14891951Y3566487D01*
G01X14891951Y3555057D01*
G01X14886363Y3538039D01*
G01X14874933Y3526609D01*
G01X14857661Y3520767D01*
G01X14840643Y3520767D01*
G01X14823371Y3526609D01*
G01X14817783Y3532197D01*
G01X14811941Y3543627D01*
G01X14973993Y3640909D02*
G01X14956975Y3635067D01*
G01X14945545Y3618049D01*
G01X14939703Y3589347D01*
G01X14939703Y3572329D01*
G01X14945545Y3543627D01*
G01X14956975Y3526609D01*
G01X14973993Y3520767D01*
G01X14985423Y3520767D01*
G01X15002695Y3526609D01*
G01X15014125Y3543627D01*
G01X15019713Y3572329D01*
G01X15019713Y3589347D01*
G01X15014125Y3618049D01*
G01X15002695Y3635067D01*
G01X14985423Y3640909D01*
G01X14973993Y3640909D01*
G01X15136045Y3640909D02*
G01X15078895Y3640909D01*
G01X15073307Y3589347D01*
G01X15078895Y3595189D01*
G01X15096167Y3600777D01*
G01X15113185Y3600777D01*
G01X15130457Y3595189D01*
G01X15141887Y3583759D01*
G01X15147475Y3566487D01*
G01X15147475Y3555057D01*
G01X15141887Y3538039D01*
G01X15130457Y3526609D01*
G01X15113185Y3520767D01*
G01X15096167Y3520767D01*
G01X15078895Y3526609D01*
G01X15073307Y3532197D01*
G01X15067465Y3543627D01*
G01X15195227Y3600777D02*
G01X15195227Y3520767D01*
G01X15195227Y3577917D02*
G01X15212499Y3595189D01*
G01X15223929Y3600777D01*
G01X15240947Y3600777D01*
G01X15252377Y3595189D01*
G01X15258219Y3577917D01*
G01X15258219Y3520767D01*
G01X15258219Y3577917D02*
G01X15275237Y3595189D01*
G01X15286667Y3600777D01*
G01X15303939Y3600777D01*
G01X15315369Y3595189D01*
G01X15320957Y3577917D01*
G01X15320957Y3520767D01*
G01X15368709Y3600777D02*
G01X15368709Y3520767D01*
G01X15368709Y3577917D02*
G01X15385981Y3595189D01*
G01X15397411Y3600777D01*
G01X15414429Y3600777D01*
G01X15425859Y3595189D01*
G01X15431701Y3577917D01*
G01X15431701Y3520767D01*
G01X15431701Y3577917D02*
G01X15448719Y3595189D01*
G01X15460149Y3600777D01*
G01X15477421Y3600777D01*
G01X15488851Y3595189D01*
G01X15494439Y3577917D01*
G01X15494439Y3520767D01*
G01X15542191Y3663769D02*
G01X15553621Y3652339D01*
G01X15565051Y3635067D01*
G01X15576481Y3612207D01*
G01X15582323Y3583759D01*
G01X15582323Y3560899D01*
G01X15576481Y3532197D01*
G01X15565051Y3509337D01*
G01X15553621Y3492319D01*
G01X15542191Y3480889D01*
G01X17651045Y3640909D02*
G01X17651045Y3520767D01*
G01X17651045Y3640909D02*
G01X17702607Y3640909D01*
G01X17719625Y3635067D01*
G01X17725467Y3629479D01*
G01X17731055Y3618049D01*
G01X17731055Y3600777D01*
G01X17725467Y3589347D01*
G01X17719625Y3583759D01*
G01X17702607Y3577917D01*
G01X17651045Y3577917D01*
G01X17818939Y3640909D02*
G01X17818939Y3520767D01*
G01X17778807Y3640909D02*
G01X17858817Y3640909D01*
G01X17906569Y3640909D02*
G01X17906569Y3520767D01*
G01X17986579Y3640909D02*
G01X17986579Y3520767D01*
G01X17906569Y3583759D02*
G01X17986579Y3583759D01*
G01X19112452Y3640909D02*
G01X19112452Y3520767D01*
G01X19112452Y3640909D02*
G01X19164014Y3640909D01*
G01X19181032Y3635067D01*
G01X19186874Y3629479D01*
G01X19192462Y3618049D01*
G01X19192462Y3606619D01*
G01X19186874Y3595189D01*
G01X19181032Y3589347D01*
G01X19164014Y3583759D01*
G01X19112452Y3583759D01*
G01X19152584Y3583759D02*
G01X19192462Y3520767D01*
G01X19268916Y3600777D02*
G01X19257486Y3595189D01*
G01X19246056Y3583759D01*
G01X19240214Y3566487D01*
G01X19240214Y3555057D01*
G01X19246056Y3538039D01*
G01X19257486Y3526609D01*
G01X19268916Y3520767D01*
G01X19285934Y3520767D01*
G01X19297364Y3526609D01*
G01X19308794Y3538039D01*
G01X19314636Y3555057D01*
G01X19314636Y3566487D01*
G01X19308794Y3583759D01*
G01X19297364Y3595189D01*
G01X19285934Y3600777D01*
G01X19268916Y3600777D01*
G01X19362388Y3600777D02*
G01X19362388Y3543627D01*
G01X19368230Y3526609D01*
G01X19379660Y3520767D01*
G01X19396678Y3520767D01*
G01X19408108Y3526609D01*
G01X19425380Y3543627D01*
G01X19425380Y3600777D02*
G01X19425380Y3520767D01*
G01X19473132Y3600777D02*
G01X19473132Y3520767D01*
G01X19473132Y3577917D02*
G01X19490404Y3595189D01*
G01X19501834Y3600777D01*
G01X19518852Y3600777D01*
G01X19530282Y3595189D01*
G01X19536124Y3577917D01*
G01X19536124Y3520767D01*
G01X19652456Y3640909D02*
G01X19652456Y3520767D01*
G01X19652456Y3583759D02*
G01X19641026Y3595189D01*
G01X19629596Y3600777D01*
G01X19612578Y3600777D01*
G01X19601148Y3595189D01*
G01X19589718Y3583759D01*
G01X19583876Y3566487D01*
G01X19583876Y3555057D01*
G01X19589718Y3538039D01*
G01X19601148Y3526609D01*
G01X19612578Y3520767D01*
G01X19629596Y3520767D01*
G01X19641026Y3526609D01*
G01X19652456Y3538039D01*
G01X20543633Y3640909D02*
G01X20589353Y3520767D01*
G01X20635073Y3640909D02*
G01X20589353Y3520767D01*
G01X20682825Y3640909D02*
G01X20688667Y3635067D01*
G01X20694255Y3640909D01*
G01X20688667Y3646497D01*
G01X20682825Y3640909D01*
G01X20688667Y3600777D02*
G01X20688667Y3520767D01*
G01X20810587Y3600777D02*
G01X20810587Y3520767D01*
G01X20810587Y3583759D02*
G01X20799157Y3595189D01*
G01X20787727Y3600777D01*
G01X20770709Y3600777D01*
G01X20759279Y3595189D01*
G01X20747849Y3583759D01*
G01X20742007Y3566487D01*
G01X20742007Y3555057D01*
G01X20747849Y3538039D01*
G01X20759279Y3526609D01*
G01X20770709Y3520767D01*
G01X20787727Y3520767D01*
G01X20799157Y3526609D01*
G01X20810587Y3538039D01*
G01X24172313Y3640909D02*
G01X24172313Y3520767D01*
G01X24132181Y3640909D02*
G01X24212191Y3640909D01*
G01X24288645Y3600777D02*
G01X24277215Y3595189D01*
G01X24265785Y3583759D01*
G01X24259943Y3566487D01*
G01X24259943Y3555057D01*
G01X24265785Y3538039D01*
G01X24277215Y3526609D01*
G01X24288645Y3520767D01*
G01X24305663Y3520767D01*
G01X24317093Y3526609D01*
G01X24328523Y3538039D01*
G01X24334365Y3555057D01*
G01X24334365Y3566487D01*
G01X24328523Y3583759D01*
G01X24317093Y3595189D01*
G01X24305663Y3600777D01*
G01X24288645Y3600777D01*
G01X24382117Y3600777D02*
G01X24382117Y3480889D01*
G01X24382117Y3583759D02*
G01X24393547Y3595189D01*
G01X24404977Y3600777D01*
G01X24422249Y3600777D01*
G01X24433679Y3595189D01*
G01X24445109Y3583759D01*
G01X24450697Y3566487D01*
G01X24450697Y3555057D01*
G01X24445109Y3538039D01*
G01X24433679Y3526609D01*
G01X24422249Y3520767D01*
G01X24404977Y3520767D01*
G01X24393547Y3526609D01*
G01X24382117Y3538039D01*
G01X24626465Y3640909D02*
G01X24626465Y3520767D01*
G01X24626465Y3520767D02*
G01X24695045Y3520767D01*
G01X24811377Y3600777D02*
G01X24811377Y3520767D01*
G01X24811377Y3583759D02*
G01X24799947Y3595189D01*
G01X24788517Y3600777D01*
G01X24771499Y3600777D01*
G01X24760069Y3595189D01*
G01X24748639Y3583759D01*
G01X24742797Y3566487D01*
G01X24742797Y3555057D01*
G01X24748639Y3538039D01*
G01X24760069Y3526609D01*
G01X24771499Y3520767D01*
G01X24788517Y3520767D01*
G01X24799947Y3526609D01*
G01X24811377Y3538039D01*
G01X24864971Y3600777D02*
G01X24899261Y3520767D01*
G01X24933551Y3600777D02*
G01X24899261Y3520767D01*
G01X24887831Y3497907D01*
G01X24876401Y3486477D01*
G01X24864971Y3480889D01*
G01X24859129Y3480889D01*
G01X24981303Y3566487D02*
G01X25049883Y3566487D01*
G01X25049883Y3577917D01*
G01X25044295Y3589347D01*
G01X25038453Y3595189D01*
G01X25027023Y3600777D01*
G01X25010005Y3600777D01*
G01X24998575Y3595189D01*
G01X24987145Y3583759D01*
G01X24981303Y3566487D01*
G01X24981303Y3555057D01*
G01X24987145Y3538039D01*
G01X24998575Y3526609D01*
G01X25010005Y3520767D01*
G01X25027023Y3520767D01*
G01X25038453Y3526609D01*
G01X25049883Y3538039D01*
G01X25097635Y3600777D02*
G01X25097635Y3520767D01*
G01X25097635Y3566487D02*
G01X25103477Y3583759D01*
G01X25114907Y3595189D01*
G01X25126337Y3600777D01*
G01X25143355Y3600777D01*
G01X25191107Y3572329D02*
G01X25293977Y3572329D01*
G01X25341729Y3640909D02*
G01X25341729Y3520767D01*
G01X25341729Y3640909D02*
G01X25393291Y3640909D01*
G01X25410309Y3635067D01*
G01X25416151Y3629479D01*
G01X25421739Y3618049D01*
G01X25421739Y3606619D01*
G01X25416151Y3595189D01*
G01X25410309Y3589347D01*
G01X25393291Y3583759D01*
G01X25341729Y3583759D02*
G01X25393291Y3583759D01*
G01X25410309Y3577917D01*
G01X25416151Y3572329D01*
G01X25421739Y3560899D01*
G01X25421739Y3543627D01*
G01X25416151Y3532197D01*
G01X25410309Y3526609D01*
G01X25393291Y3520767D01*
G01X25341729Y3520767D01*
G01X25498193Y3600777D02*
G01X25486763Y3595189D01*
G01X25475333Y3583759D01*
G01X25469491Y3566487D01*
G01X25469491Y3555057D01*
G01X25475333Y3538039D01*
G01X25486763Y3526609D01*
G01X25498193Y3520767D01*
G01X25515211Y3520767D01*
G01X25526641Y3526609D01*
G01X25538071Y3538039D01*
G01X25543913Y3555057D01*
G01X25543913Y3566487D01*
G01X25538071Y3583759D01*
G01X25526641Y3595189D01*
G01X25515211Y3600777D01*
G01X25498193Y3600777D01*
G01X25608937Y3640909D02*
G01X25608937Y3543627D01*
G01X25614525Y3526609D01*
G01X25625955Y3520767D01*
G01X25637385Y3520767D01*
G01X25591665Y3600777D02*
G01X25631797Y3600777D01*
G01X25702409Y3640909D02*
G01X25702409Y3543627D01*
G01X25707997Y3526609D01*
G01X25719427Y3520767D01*
G01X25730857Y3520767D01*
G01X25685137Y3600777D02*
G01X25725269Y3600777D01*
G01X25807311Y3600777D02*
G01X25795881Y3595189D01*
G01X25784451Y3583759D01*
G01X25778609Y3566487D01*
G01X25778609Y3555057D01*
G01X25784451Y3538039D01*
G01X25795881Y3526609D01*
G01X25807311Y3520767D01*
G01X25824329Y3520767D01*
G01X25835759Y3526609D01*
G01X25847189Y3538039D01*
G01X25853031Y3555057D01*
G01X25853031Y3566487D01*
G01X25847189Y3583759D01*
G01X25835759Y3595189D01*
G01X25824329Y3600777D01*
G01X25807311Y3600777D01*
G01X25900783Y3600777D02*
G01X25900783Y3520767D01*
G01X25900783Y3577917D02*
G01X25918055Y3595189D01*
G01X25929485Y3600777D01*
G01X25946503Y3600777D01*
G01X25957933Y3595189D01*
G01X25963775Y3577917D01*
G01X25963775Y3520767D01*
G01X25963775Y3577917D02*
G01X25980793Y3595189D01*
G01X25992223Y3600777D01*
G01X26009495Y3600777D01*
G01X26020925Y3595189D01*
G01X26026513Y3577917D01*
G01X26026513Y3520767D01*
G01X26202281Y3640909D02*
G01X26202281Y3520767D01*
G01X26202281Y3520767D02*
G01X26270861Y3520767D01*
G01X26387193Y3600777D02*
G01X26387193Y3520767D01*
G01X26387193Y3583759D02*
G01X26375763Y3595189D01*
G01X26364333Y3600777D01*
G01X26347315Y3600777D01*
G01X26335885Y3595189D01*
G01X26324455Y3583759D01*
G01X26318613Y3566487D01*
G01X26318613Y3555057D01*
G01X26324455Y3538039D01*
G01X26335885Y3526609D01*
G01X26347315Y3520767D01*
G01X26364333Y3520767D01*
G01X26375763Y3526609D01*
G01X26387193Y3538039D01*
G01X26440787Y3600777D02*
G01X26475077Y3520767D01*
G01X26509367Y3600777D02*
G01X26475077Y3520767D01*
G01X26463647Y3497907D01*
G01X26452217Y3486477D01*
G01X26440787Y3480889D01*
G01X26434945Y3480889D01*
G01X26557119Y3566487D02*
G01X26625699Y3566487D01*
G01X26625699Y3577917D01*
G01X26620111Y3589347D01*
G01X26614269Y3595189D01*
G01X26602839Y3600777D01*
G01X26585821Y3600777D01*
G01X26574391Y3595189D01*
G01X26562961Y3583759D01*
G01X26557119Y3566487D01*
G01X26557119Y3555057D01*
G01X26562961Y3538039D01*
G01X26574391Y3526609D01*
G01X26585821Y3520767D01*
G01X26602839Y3520767D01*
G01X26614269Y3526609D01*
G01X26625699Y3538039D01*
G01X26673451Y3600777D02*
G01X26673451Y3520767D01*
G01X26673451Y3566487D02*
G01X26679293Y3583759D01*
G01X26690723Y3595189D01*
G01X26702153Y3600777D01*
G01X26719171Y3600777D01*

G04 Image Start*
G36*
G01X11286763Y3460296D02*
G01X11181149Y3471777D01*
G01X11138274Y3374571D01*
G01X11095399Y3471777D01*
G01X10989786Y3460296D01*
G01X11052549Y3546021D01*
G01X11012827Y3600276D01*
G01X11044320Y3600276D01*
G01X11084020Y3546021D01*
G01X11044320Y3491767D01*
G01X11111147Y3499031D01*
G01X11111147Y3499031D01*
G01X11138274Y3437538D01*
G01X11165401Y3499031D01*
G01X11232229Y3491767D01*
G01X11192529Y3546021D01*
G01X11232203Y3600250D01*
G01X11165376Y3592986D01*
G01X11138274Y3654505D01*
G01X11111147Y3593011D01*
G01X11044320Y3600276D01*
G01X11012827Y3600276D01*
G01X10989786Y3631746D01*
G01X11095424Y3620266D01*
G01X11138274Y3717471D01*
G01X11181149Y3620266D01*
G01X11286763Y3631746D01*
G01X11223999Y3546021D01*
G01X11286763Y3460296D01*
G37*
G36*
G01X11157769Y4574601D02*
G01X11150029Y4574013D01*
G01X11142186Y4573814D01*
G01X11134343Y4574013D01*
G01X11126602Y4574601D01*
G01X11118975Y4575570D01*
G01X11111470Y4576910D01*
G01X11096864Y4580665D01*
G01X11082862Y4585790D01*
G01X11069540Y4592207D01*
G01X11056974Y4599840D01*
G01X11045242Y4608613D01*
G01X11034420Y4618448D01*
G01X11024584Y4629271D01*
G01X11015811Y4641003D01*
G01X11008178Y4653568D01*
G01X11001761Y4666890D01*
G01X10996637Y4680892D01*
G01X10992882Y4695498D01*
G01X10991542Y4703004D01*
G01X10990572Y4710631D01*
G01X10989984Y4718371D01*
G01X10989786Y4726214D01*
G01X11015186Y4726214D01*
G01X11015843Y4713248D01*
G01X11017770Y4700652D01*
G01X11020905Y4688490D01*
G01X11025182Y4676828D01*
G01X11030537Y4665728D01*
G01X11036905Y4655257D01*
G01X11044223Y4645477D01*
G01X11052425Y4636454D01*
G01X11061449Y4628251D01*
G01X11071228Y4620934D01*
G01X11081700Y4614565D01*
G01X11092799Y4609210D01*
G01X11104462Y4604934D01*
G01X11116623Y4601799D01*
G01X11116623Y4601799D01*
G01X11129219Y4599871D01*
G01X11142186Y4599214D01*
G01X11155152Y4599871D01*
G01X11167748Y4601799D01*
G01X11179910Y4604934D01*
G01X11191572Y4609210D01*
G01X11202672Y4614565D01*
G01X11213143Y4620934D01*
G01X11222923Y4628251D01*
G01X11231946Y4636454D01*
G01X11240149Y4645477D01*
G01X11247466Y4655257D01*
G01X11253835Y4665728D01*
G01X11259190Y4676828D01*
G01X11263466Y4688490D01*
G01X11266601Y4700652D01*
G01X11268529Y4713248D01*
G01X11269186Y4726214D01*
G01X11268529Y4739181D01*
G01X11266601Y4751777D01*
G01X11263466Y4763938D01*
G01X11259190Y4775601D01*
G01X11253835Y4786700D01*
G01X11247466Y4797172D01*
G01X11240149Y4806951D01*
G01X11231946Y4815975D01*
G01X11222923Y4824177D01*
G01X11213143Y4831495D01*
G01X11202672Y4837863D01*
G01X11191572Y4843218D01*
G01X11179910Y4847495D01*
G01X11167748Y4850629D01*
G01X11155152Y4852557D01*
G01X11142186Y4853214D01*
G01X11129219Y4852557D01*
G01X11116623Y4850629D01*
G01X11104462Y4847495D01*
G01X11092799Y4843218D01*
G01X11081700Y4837863D01*
G01X11071228Y4831495D01*
G01X11061449Y4824177D01*
G01X11052425Y4815975D01*
G01X11044223Y4806951D01*
G01X11036905Y4797172D01*
G01X11030537Y4786700D01*
G01X11025182Y4775601D01*
G01X11020905Y4763938D01*
G01X11017770Y4751777D01*
G01X11015843Y4739181D01*
G01X11015186Y4726214D01*
G01X10989786Y4726214D01*
G01X10989984Y4734057D01*
G01X10990572Y4741798D01*
G01X10991542Y4749425D01*
G01X10992882Y4756930D01*
G01X10996637Y4771536D01*
G01X11001761Y4785538D01*
G01X11008178Y4798860D01*
G01X11015811Y4811426D01*
G01X11024584Y4823158D01*
G01X11034420Y4833980D01*
G01X11045242Y4843816D01*
G01X11056974Y4852589D01*
G01X11069540Y4860222D01*
G01X11082862Y4866639D01*
G01X11096864Y4871763D01*
G01X11111470Y4875518D01*
G01X11118975Y4876858D01*
G01X11126602Y4877828D01*
G01X11134343Y4878416D01*
G01X11142186Y4878614D01*
G01X11150029Y4878416D01*
G01X11157769Y4877828D01*
G01X11165396Y4876858D01*
G01X11172902Y4875518D01*
G01X11187508Y4871763D01*
G01X11201510Y4866639D01*
G01X11214832Y4860222D01*
G01X11227397Y4852589D01*
G01X11239129Y4843816D01*
G01X11249952Y4833980D01*
G01X11259787Y4823158D01*
G01X11268560Y4811426D01*
G01X11276193Y4798860D01*
G01X11282610Y4785538D01*
G01X11287735Y4771536D01*
G01X11291490Y4756930D01*
G01X11292830Y4749425D01*
G01X11293799Y4741798D01*
G01X11294387Y4734057D01*
G01X11294586Y4726214D01*
G01X11294387Y4718371D01*
G01X11293799Y4710631D01*
G01X11292830Y4703004D01*
G01X11291490Y4695498D01*
G01X11287735Y4680892D01*
G01X11282610Y4666890D01*
G01X11276193Y4653568D01*
G01X11268560Y4641003D01*
G01X11259787Y4629271D01*
G01X11249952Y4618448D01*
G01X11239129Y4608613D01*
G01X11227397Y4599840D01*
G01X11214832Y4592207D01*
G01X11201510Y4585790D01*
G01X11187508Y4580665D01*
G01X11172902Y4576910D01*
G01X11165396Y4575570D01*
G01X11157769Y4574601D01*
G37*
G36*
G01X10989786Y4298043D02*
G01X11294586Y4298043D01*
G01X11142186Y4034086D01*
G01X11004451Y4272643D01*
G01X11033779Y4272643D01*
G01X11142186Y4084886D01*
G01X11250593Y4272643D01*
G01X11250593Y4272643D01*
G01X11033779Y4272643D01*
G01X11004451Y4272643D01*
G01X10989786Y4298043D01*
G37*
G36*
G01X10989786Y5459186D02*
G01X11269186Y5459186D01*
G01X11269186Y5179786D01*
G01X10989786Y5179786D01*
G01X10989786Y5433786D01*
G01X11015186Y5433786D01*
G01X11015186Y5205186D01*
G01X11243786Y5205186D01*
G01X11243786Y5433786D01*
G01X11243786Y5433786D01*
G01X11015186Y5433786D01*
G01X10989786Y5433786D01*
G01X10989786Y5459186D01*
G37*

G04 PolygonModel Start*
G54D15*
G01X10699500Y3282043D02*
G01X27309903Y3282043D01*
G01X10699500Y3862614D02*
G01X27309903Y3862614D01*
G01X10699500Y4443186D02*
G01X27309903Y4443186D01*
G01X10699500Y5023757D02*
G01X27309903Y5023757D01*
G01X10699500Y5604329D02*
G01X27309903Y5604329D01*
G01X10699500Y6184900D02*
G01X27309903Y6184900D01*
G01X10699500Y6184900D02*
G01X10699500Y3307443D01*
G01X12150929Y6184900D02*
G01X12150929Y3307443D01*
G01X13565092Y6184900D02*
G01X13565092Y3307443D01*
G01X17350599Y6184900D02*
G01X17350599Y3307443D01*
G01X18812006Y6184900D02*
G01X18812006Y3307443D01*
G01X20243187Y6184900D02*
G01X20243187Y3307443D01*
G01X21912366Y6184900D02*
G01X21912366Y3307443D01*
G01X23831735Y6184900D02*
G01X23831735Y3307443D01*
G01X27309903Y6184900D02*
G01X27309903Y3307443D01*

M02*

